<?xml version="1.0" encoding="utf-8"?>
<!-- Generator: Adobe Illustrator 22.0.1, SVG Export Plug-In . SVG Version: 6.00 Build 0)  -->
<svg version="1.1" id="Layer_1" xmlns="http://www.w3.org/2000/svg" xmlns:xlink="http://www.w3.org/1999/xlink" x="0px" y="0px"
	 viewBox="0 0 207.6 254.7" style="enable-background:new 0 0 207.6 254.7;" xml:space="preserve">
<style type="text/css">
	.st0{fill:#D01A86;}
	.st1{fill:#C98240;}
	.st2{fill:#FFFFFF;}
	.st3{fill:#59C4C6;}
	.st4{fill:none;}
	.st5{fill:#231F20;}
	.st6{fill:#FAB68E;}
	.st7{fill:#E01D8D;}
	.st8{fill:#41BFBF;}
</style>
<circle class="st0" cx="27.9" cy="81.6" r="7.6"/>
<circle class="st0" cx="52.9" cy="81.6" r="7.6"/>
<g>
	
		<rect x="7.8" y="194.7" transform="matrix(0.7071 -0.7071 0.7071 0.7071 -165.9686 89.3572)" class="st1" width="34.1" height="100.5"/>
	
		<rect x="-33.1" y="234.8" transform="matrix(0.7071 -0.7071 0.7071 0.7071 -174.3403 66.0989)" class="st2" width="51.5" height="17.4"/>
	<circle class="st0" cx="23.2" cy="192.2" r="7.6"/>
	<circle class="st0" cx="39.8" cy="211.6" r="7.6"/>
	
		<rect x="42" y="230.9" transform="matrix(0.7071 -0.7071 0.7071 0.7071 -149.5672 118.0583)" class="st2" width="51.5" height="17.4"/>
</g>
<path class="st3" d="M181.8,231.8c0-4.4-3.5-7.9-7.9-7.9c-4.4,0-7.9,3.5-7.9,7.9v23.9h15.9v-23.9H181.8z"/>
<path class="st3" d="M207.5,231.8c0-4.4-3.5-7.9-7.9-7.9c-4.4,0-7.9,3.5-7.9,7.9v23.9h15.9v-23.9H207.5z"/>
<path class="st3" d="M156.1,231.8c0-4.4-3.5-7.9-7.9-7.9s-7.9,3.5-7.9,7.9v23.9h15.9v-23.9H156.1z"/>
<rect x="79.5" y="1.1" class="st3" width="16.3" height="32.6"/>
<path class="st2" d="M45.7,44.2c-2.7-0.6-5.3-1-8-1.1c-2.6-0.1-5.3,0-7.9,0.3c-2.6,0.3-5,0.8-7.5,1.5s-4.8,1.6-7.1,2.7
	c-2.3,1.1-4.5,2.5-6.6,3.8c-2,1.5-3.9,3.1-5.8,4.9c-0.8,0.8-1.5,1.6-2.3,2.5v7.7c0.4-0.6,0.7-1.1,1.1-1.6C3,63,4.5,61.2,6.2,59.6
	s3.4-3.1,5.2-4.4c1.9-1.3,3.8-2.5,5.8-3.4s4.2-1.8,6.4-2.5s4.5-1.1,6.8-1.3s4.8-0.4,7.1-0.3c2.5,0.1,4.9,0.4,7.4,1L64.4,53l1-4.5
	L45.7,44.2z"/>
<g>
	<g>
		<line class="st4" x1="179" y1="167" x2="202.9" y2="142.6"/>
		<path class="st5" d="M179,167.9c-0.2,0-0.5,0-0.6-0.2c-0.3-0.3-0.3-0.8,0-1.1l23.9-24.4c0.3-0.3,0.8-0.3,1.1,0
			c0.3,0.3,0.3,0.8,0,1.1l-23.9,24.4C179.5,167.7,179.1,167.9,179,167.9z"/>
	</g>
	<g>
		<g>
			<path class="st6" d="M175.6,163.3L175.6,163.3H32.7c0,0,11.8,24.1,30.7,24.1c3.2,0,8.6,0,15.2,0v-14.7c0-2.4,1.9-4.4,4.4-4.4
				s4.4,1.9,4.4,4.4v14.7c6.5,0,13.6,0,21,0v-14.7c0-2.4,1.9-4.4,4.4-4.4s4.4,1.9,4.4,4.4v14.7c7.1,0,14.2,0,21,0v-14.7
				c0-2.4,1.9-4.4,4.4-4.4c2.4,0,4.4,1.9,4.4,4.4v14.7c16.5,0,28.8,0,28.8,0l0,0c6.6,0,11.8-5.3,11.8-12
				C187.4,168.8,182.2,163.5,175.6,163.3z"/>
		</g>
		<g>
			<path class="st2" d="M142.4,168.2c-2.4,0-4.4,1.9-4.4,4.4v14.7c3.1,0,6,0,8.7,0v-14.7C146.8,170.3,144.9,168.2,142.4,168.2z"/>
		</g>
		<g>
			<path class="st2" d="M112.7,168.2c-2.4,0-4.4,1.9-4.4,4.4v14.7c2.9,0,5.8,0,8.7,0v-14.7C117.2,170.3,115.1,168.2,112.7,168.2z"/>
		</g>
		<g>
			<path class="st2" d="M83.1,168.2c-2.4,0-4.4,1.9-4.4,4.4v14.7c2.7,0,5.7,0,8.7,0v-14.7C87.5,170.3,85.5,168.2,83.1,168.2z"/>
		</g>
	</g>
	<g>
		<g>
			<path class="st5" d="M127.9,163.3l-27-69.8c-1.6-3.9-7.3-4.8-10.3-1.8L83,99.2c-7.9,7.9-9.5,19.4-3.9,28.8l21.5,35.4H127.9z"/>
		</g>
	</g>
	<path class="st7" d="M103.6,100.5c-3.7,1-6.6,4-7.1,8.1L92,149.4l8.6,14.1h7.9c1.3-1.5,2.3-3.2,2.4-5.3l3.4-29.9L103.6,100.5z"/>
	<g>
		<g>
			<circle class="st5" cx="68.2" cy="176.1" r="4.7"/>
		</g>
	</g>
	<g>
		<g>
			<circle class="st5" cx="97.8" cy="176.1" r="4.7"/>
		</g>
	</g>
	<g>
		<g>
			<circle class="st5" cx="127.6" cy="176.1" r="4.7"/>
		</g>
	</g>
	<g>
		<g>
			<circle class="st5" cx="157.3" cy="176.1" r="4.7"/>
		</g>
	</g>
	<g>
		<g>
			<g>
				<path class="st5" d="M152.8,119.7l15.4,17.3l1-92.9c1-9.2-10-14.9-18.3-10.8l12.4,64.3c0.5,2.6-1.3,5.2-3.9,5.7l0,0
					c-2.6,0.5-5.2-1.3-5.7-3.9l-11.3-58.7l-5,4.8l13.3,68.4c0.5,2.6-1.3,5.2-3.9,5.7l0,0c-2.6,0.5-5.2-1.3-5.7-3.9l-12-62.2
					l-5.5,5.2l13.7,71.1c0.5,2.6-1.3,5.2-3.9,5.7c-2.6,0.5-5.2-1.3-5.7-3.9l-12.6-65l-6.6,6.3c-3.1,2.9-4.2,7.3-2.7,11.2l29.6,79.2
					h32.7l0.2-13.4l-22.1-24.2L152.8,119.7z"/>
			</g>
		</g>
		<path class="st1" d="M163.3,97.5l-12.4-64.3c-1.1,0.5-2.3,1.3-3.2,2.3l-5.3,5.2l11.3,58.7c0.5,2.6,3.1,4.4,5.7,3.9l0,0
			C162,102.7,163.8,100.1,163.3,97.5z"/>
		<path class="st1" d="M150.5,113.9l-13.3-68.4l-8.4,8.1l12,62.2c0.5,2.6,3.1,4.4,5.7,3.9l0,0C149.2,119,151,116.5,150.5,113.9z"/>
		<path class="st1" d="M137.3,129.9l-13.7-71.1l-8.4,8.1l12.6,65c0.5,2.6,3.1,4.4,5.7,3.9C136,135,137.8,132.5,137.3,129.9z"/>
		<polygon class="st8" points="152.8,119.7 146.2,125.5 168,149.9 168.1,137 		"/>
	</g>
	<g>
		<circle class="st8" cx="145.7" cy="114.2" r="3.9"/>
	</g>
	<g>
		<path class="st6" d="M80.9,133.1l-2.7-4.4c-0.8-1.3-1.3-2.4-1.9-3.7c-0.5-1.3-1-2.6-1.1-3.9c-0.3-1.3-0.5-2.7-0.5-4s0-2.7,0.2-4
			c0.2-1.3,0.5-2.6,0.8-3.9c0.3-1.3,1-2.6,1.5-3.7c0.6-1.3,1.3-2.4,2.1-3.6c0.8-1.1,1.8-2.3,2.7-3.2l7.6-7.4l1.8,1.8l-7.6,7.4
			c-1,1-1.8,1.9-2.6,2.9c-0.8,1-1.5,2.1-1.9,3.2c-0.5,1.1-1,2.3-1.3,3.4c-0.3,1.1-0.6,2.4-0.8,3.6c-0.2,1.1-0.2,2.4-0.2,3.6
			c0,1.1,0.2,2.4,0.5,3.6c0.3,1.1,0.6,2.4,1.1,3.6c0.5,1.1,1,2.3,1.8,3.4L83,132L80.9,133.1z"/>
	</g>
</g>
</svg>
