<?xml version="1.0" encoding="utf-8"?>
<!-- Generator: Adobe Illustrator 22.0.1, SVG Export Plug-In . SVG Version: 6.00 Build 0)  -->
<svg version="1.1" id="Layer_1" xmlns="http://www.w3.org/2000/svg" xmlns:xlink="http://www.w3.org/1999/xlink" x="0px" y="0px"
	 viewBox="0 0 105.7 96.2" style="enable-background:new 0 0 105.7 96.2;" xml:space="preserve">
<style type="text/css">
	.st0{fill:none;}
	.st1{fill:#231F20;}
	.st2{fill:#FAB68E;}
	.st3{fill:#FFFFFF;}
	.st4{fill:#E01D8D;}
	.st5{fill:#C98240;}
	.st6{fill:#41BFBF;}
</style>
<g>
	<g>
		<line class="st0" x1="90.5" y1="83.6" x2="105.3" y2="68.5"/>
		<path class="st1" d="M90.5,84.1c-0.1,0-0.3,0-0.4-0.1c-0.2-0.2-0.2-0.5,0-0.7l14.8-15.1c0.2-0.2,0.5-0.2,0.7,0s0.2,0.5,0,0.7
			L90.8,84C90.8,84,90.6,84.1,90.5,84.1z"/>
	</g>
	<g>
		<g>
			<path class="st2" d="M88.4,81.3L88.4,81.3H0c0,0,7.3,14.9,19,14.9c2,0,5.3,0,9.4,0v-9.1c0-1.5,1.2-2.7,2.7-2.7s2.7,1.2,2.7,2.7
				v9.1c4,0,8.4,0,13,0v-9.1c0-1.5,1.2-2.7,2.7-2.7s2.7,1.2,2.7,2.7v9.1c4.4,0,8.8,0,13,0v-9.1c0-1.5,1.2-2.7,2.7-2.7
				s2.7,1.2,2.7,2.7v9.1c10.2,0,17.8,0,17.8,0l0,0c4.1,0,7.3-3.3,7.3-7.4C95.7,84.7,92.5,81.4,88.4,81.3z"/>
		</g>
		<g>
			<path class="st3" d="M67.9,84.3c-1.5,0-2.7,1.2-2.7,2.7v9.1c1.9,0,3.7,0,5.4,0V87C70.6,85.6,69.4,84.3,67.9,84.3z"/>
		</g>
		<g>
			<path class="st3" d="M49.5,84.3c-1.5,0-2.7,1.2-2.7,2.7v9.1c1.8,0,3.6,0,5.4,0V87C52.3,85.6,51,84.3,49.5,84.3z"/>
		</g>
		<g>
			<path class="st3" d="M31.2,84.3c-1.5,0-2.7,1.2-2.7,2.7v9.1c1.7,0,3.5,0,5.4,0V87C33.9,85.6,32.7,84.3,31.2,84.3z"/>
		</g>
	</g>
	<g>
		<g>
			<path class="st1" d="M58.9,81.3L42.2,38.1c-1-2.4-4.5-3-6.4-1.1l-4.7,4.6c-4.9,4.9-5.9,12-2.4,17.8L42,81.3H58.9z"/>
		</g>
	</g>
	<path class="st4" d="M43.9,42.4c-2.3,0.6-4.1,2.5-4.4,5l-2.8,25.3l5.3,8.7h4.9c0.8-0.9,1.4-2,1.5-3.3l2.1-18.5L43.9,42.4z"/>
	<g>
		<g>
			<circle class="st1" cx="22" cy="89.2" r="2.9"/>
		</g>
	</g>
	<g>
		<g>
			<circle class="st1" cx="40.3" cy="89.2" r="2.9"/>
		</g>
	</g>
	<g>
		<g>
			<circle class="st1" cx="58.7" cy="89.2" r="2.9"/>
		</g>
	</g>
	<g>
		<g>
			<circle class="st1" cx="77.1" cy="89.2" r="2.9"/>
		</g>
	</g>
	<g>
		<g>
			<g>
				<path class="st1" d="M74.3,54.3L83.8,65l0.6-57.5c0.6-5.7-6.2-9.2-11.3-6.7l7.7,39.8c0.3,1.6-0.8,3.2-2.4,3.5l0,0
					c-1.6,0.3-3.2-0.8-3.5-2.4l-7-36.3l-3.1,3L73,50.7c0.3,1.6-0.8,3.2-2.4,3.5l0,0c-1.6,0.3-3.2-0.8-3.5-2.4l-7.4-38.5l-3.4,3.2
					l8.5,44c0.3,1.6-0.8,3.2-2.4,3.5c-1.6,0.3-3.2-0.8-3.5-2.4l-7.8-40.2L47,25.3c-1.9,1.8-2.6,4.5-1.7,6.9l18.3,49h20.2l0.1-8.3
					l-13.7-15L74.3,54.3z"/>
			</g>
		</g>
		<path class="st5" d="M80.8,40.6L73.1,0.8c-0.7,0.3-1.4,0.8-2,1.4l-3.3,3.2l7,36.3c0.3,1.6,1.9,2.7,3.5,2.4l0,0
			C80,43.8,81.1,42.2,80.8,40.6z"/>
		<path class="st5" d="M72.9,50.7L64.7,8.4l-5.2,5l7.4,38.5c0.3,1.6,1.9,2.7,3.5,2.4l0,0C72.1,53.9,73.2,52.3,72.9,50.7z"/>
		<path class="st5" d="M64.7,60.6l-8.5-44l-5.2,5l7.8,40.2c0.3,1.6,1.9,2.7,3.5,2.4C63.9,63.8,65,62.2,64.7,60.6z"/>
		<polygon class="st6" points="74.3,54.3 70.2,57.9 83.7,73 83.8,65 		"/>
	</g>
	<g>
		<circle class="st6" cx="69.9" cy="50.9" r="2.4"/>
	</g>
	<g>
		<path class="st2" d="M29.8,62.6l-1.7-2.7c-0.5-0.8-0.8-1.5-1.2-2.3c-0.3-0.8-0.6-1.6-0.7-2.4c-0.2-0.8-0.3-1.7-0.3-2.5
			s0-1.7,0.1-2.5s0.3-1.6,0.5-2.4c0.2-0.8,0.6-1.6,0.9-2.3c0.4-0.8,0.8-1.5,1.3-2.2s1.1-1.4,1.7-2l4.7-4.6l1.1,1.1l-4.7,4.6
			c-0.6,0.6-1.1,1.2-1.6,1.8s-0.9,1.3-1.2,2s-0.6,1.4-0.8,2.1c-0.2,0.7-0.4,1.5-0.5,2.2s-0.1,1.5-0.1,2.2s0.1,1.5,0.3,2.2
			s0.4,1.5,0.7,2.2s0.6,1.4,1.1,2.1l1.7,2.7L29.8,62.6z"/>
	</g>
</g>
</svg>
