<?xml version="1.0" encoding="utf-8"?>
<!-- Generator: Adobe Illustrator 22.1.0, SVG Export Plug-In . SVG Version: 6.00 Build 0)  -->
<svg version="1.1" id="Layer_1" xmlns="http://www.w3.org/2000/svg" xmlns:xlink="http://www.w3.org/1999/xlink" x="0px" y="0px"
	 viewBox="0 0 1600 900" style="enable-background:new 0 0 1600 900;" xml:space="preserve">
<style type="text/css">
	.st0{fill:#231F20;}
	.st1{fill:#C98240;}
	.st2{fill:#613392;}
	.st3{fill:#00A78A;}
	.st4{fill:#E0E569;}
	.st5{fill:none;}
	.st6{fill:#1D4386;}
	.st7{fill:#006C69;}
	.st8{fill:none;stroke:#231F20;stroke-width:10;stroke-miterlimit:10;}
	.st9{fill:#F26C23;}
	.st10{fill:#FFFFFF;}
	.st11{fill:#9D958C;}
	.st12{fill:none;stroke:#FFFFFF;stroke-width:5;stroke-linecap:round;stroke-linejoin:round;}
	.st13{fill:none;stroke:#FFFFFF;stroke-width:6;stroke-linecap:round;stroke-linejoin:round;}
	.st14{fill:none;stroke:#FFFFFF;stroke-width:6;stroke-linecap:round;stroke-linejoin:round;stroke-dasharray:0.1293,20.6902;}
	.st15{fill:#F38B9E;}
	.st16{fill:#EE4028;}
	.st17{fill:#DD4626;}
	.st18{fill:#E01D8D;}
	.st19{fill:#939693;}
	.st20{fill:#38297A;}
	.st21{fill:#D01A86;}
	.st22{fill:#EE948E;}
	.st23{fill:#EF4C3B;}
	.st24{fill:#D07947;}
	.st25{fill:#FAB68E;}
	.st26{fill:#41BFBF;}
	.st27{fill:#59C4C6;}
	.st28{clip-path:url(#SVGID_2_);fill:#231F20;}
	.st29{clip-path:url(#SVGID_2_);fill:#EE4028;}
	.st30{clip-path:url(#SVGID_2_);fill:#0076BB;}
	.st31{clip-path:url(#SVGID_2_);fill:#DEA36D;}
	.st32{clip-path:url(#SVGID_2_);fill:#FFFFFF;}
	.st33{clip-path:url(#SVGID_2_);fill:#EF4C3B;}
	.st34{clip-path:url(#SVGID_2_);fill:#CD916C;}
	.st35{clip-path:url(#SVGID_2_);fill:#E0E569;}
	.st36{fill:#CD916C;}
	.st37{fill:#EDE843;}
	.st38{fill:#0076BB;}
	.st39{fill:#F47E20;}
	.st40{fill:#FFC52E;}
	.st41{clip-path:url(#SVGID_4_);fill:#231F20;}
	.st42{clip-path:url(#SVGID_4_);}
	.st43{clip-path:url(#SVGID_4_);fill:#FFC52E;}
	.st44{clip-path:url(#SVGID_4_);fill:#FFFFFF;}
	.st45{fill:#94785E;}
	.st46{clip-path:url(#SVGID_6_);fill:#C98240;}
	.st47{clip-path:url(#SVGID_6_);fill:#00A78A;}
	.st48{clip-path:url(#SVGID_6_);fill:#E0E569;}
	.st49{clip-path:url(#SVGID_6_);fill:#613392;}
	.st50{clip-path:url(#SVGID_6_);fill:#231F20;}
	.st51{clip-path:url(#SVGID_6_);fill:#FFFFFF;}
	.st52{clip-path:url(#SVGID_6_);}
	.st53{clip-path:url(#SVGID_8_);fill:#006C69;}
	.st54{clip-path:url(#SVGID_8_);fill:#FFFFFF;}
	.st55{clip-path:url(#SVGID_8_);}
	.st56{clip-path:url(#SVGID_8_);fill:#231F20;}
	.st57{clip-path:url(#SVGID_8_);fill:#1D4386;}
	.st58{clip-path:url(#SVGID_8_);fill:#F26C23;}
	.st59{clip-path:url(#SVGID_8_);fill:#9D958C;}
	.st60{clip-path:url(#SVGID_10_);fill:#94785E;}
	.st61{clip-path:url(#SVGID_10_);fill:#231F20;}
	.st62{clip-path:url(#SVGID_10_);}
	.st63{clip-path:url(#SVGID_10_);fill:#FFC52E;}
	.st64{clip-path:url(#SVGID_10_);fill:#F26C23;}
	.st65{clip-path:url(#SVGID_10_);fill:#FFFFFF;}
	.st66{clip-path:url(#SVGID_10_);fill:#E01D8D;}
</style>
<path class="st0" d="M560.4,392.9l-19.2-39.2c-4.4-8.9-17.1-9-21.6-0.1L505.8,381c-1.8,3.6,0.1,7.9,4,9l22.6,6.1
	c-0.8-1.2-1.2-2.6-1.2-4.1c0-4.3,3.5-7.8,7.8-7.8c4.3,0,7.8,3.5,7.8,7.8c0,3-1.7,5.6-4.2,6.9l10.6,2.9c2,0.6,4.2,0.1,5.8-1.3
	C561.1,398.5,561.7,395.4,560.4,392.9"/>
<path class="st1" d="M546.7,392c0-4.3-3.5-7.8-7.8-7.8c-4.3,0-7.8,3.5-7.8,7.8c0,1.5,0.4,2.9,1.2,4.1l10.1,2.7
	C545,397.6,546.7,395,546.7,392"/>
<path class="st0" d="M587.2,397h-57.9c-2.8,0-5,2.3-5,5c0,2.8,2.3,5,5,5h13.8c0-0.1,0-0.2,0-0.3c0-1.3,1-2.3,2.3-2.3
	c1.3,0,2.3,1,2.3,2.3c0,0.1,0,0.2,0,0.3h2.6c0-0.1,0-0.2,0-0.3c0-1.3,1-2.3,2.3-2.3c1.3,0,2.3,1,2.3,2.3c0,0.1,0,0.2,0,0.3h2.6
	c0-0.1,0-0.2,0-0.3c0-1.3,1-2.3,2.3-2.3c1.3,0,2.3,1,2.3,2.3c0,0.1,0,0.2,0,0.3h2.6c0-0.1,0-0.2,0-0.3c0-1.3,1-2.3,2.3-2.3
	c1.3,0,2.3,1,2.3,2.3c0,0.1,0,0.2,0,0.3h2.6c0-0.1,0-0.2,0-0.3c0-1.3,1-2.3,2.3-2.3c1.3,0,2.3,1,2.3,2.3c0,0.1,0,0.2,0,0.3h2.6
	c0-0.1,0-0.2,0-0.3c0-1.3,1-2.3,2.3-2.3c1.3,0,2.3,1,2.3,2.3c0,0.1,0,0.2,0,0.3h3.2c2.8,0,5-2.3,5-5C592.2,399.2,590,397,587.2,397"
	/>
<path class="st0" d="M587.5,340.8L587.5,340.8c3.4-2.5,8.3-1.8,10.9,1.6l4.9,6.6l5.8-14c5.7-13.8-6.8-28.3-21.3-24.5L543,322.3
	c-5.8,1.5-8.8,8-6.1,13.4l15.8,32.3l2.4,4.8l11.5,23.4c1.4,2.9,4.2,4.8,7.3,5.3c3.6,0.5,7-1.1,9-4l-19.5-26.4
	c-3.2-4.3-2.3-10.5,2.1-13.7c4.3-3.2,10.5-2.3,13.7,2.1l12.7,17.2l4.1-10l0.3-0.8l-10.5-14.1C583.3,348.3,584,343.4,587.5,340.8"/>
<path class="st2" d="M598.4,342.5c-2.5-3.4-7.4-4.2-10.9-1.6c-3.4,2.5-4.2,7.4-1.6,10.9l10.5,14.1l2-4.8l5-12L598.4,342.5z"/>
<path class="st2" d="M565.5,357.4L565.5,357.4c-4.3,3.2-5.2,9.3-2.1,13.7l19.5,26.4c0.4-0.6,0.7-1.2,1-1.8l7.9-19l-12.7-17.2
	C576,355.1,569.8,354.2,565.5,357.4"/>
<line class="st0" x1="591.1" y1="399.8" x2="620.9" y2="380.5"/>
<path class="st0" d="M591.1,400.6c-0.3,0-0.5-0.1-0.7-0.4c-0.2-0.4-0.1-0.8,0.2-1.1l29.8-19.3c0.4-0.2,0.8-0.1,1.1,0.2
	c0.2,0.4,0.1,0.8-0.2,1.1l-29.8,19.3C591.4,400.5,591.2,400.6,591.1,400.6"/>
<path class="st3" d="M536.4,335.9c-1.4-2.8-1.4-6-0.1-8.8c1.3-2.8,3.8-4.9,6.8-5.7l44.7-11.7c7-1.8,14.3,0.4,19,5.9
	c4.7,5.4,6,13,3.2,19.6l-1.4-0.6c2.6-6.2,1.5-13-2.9-18c-4.4-5.1-11-7.1-17.5-5.4l-44.7,11.7c-2.6,0.7-4.6,2.4-5.7,4.8
	c-1.1,2.4-1.1,5.1,0.1,7.5L536.4,335.9z"/>
<path class="st4" d="M555.5,338.3c0.3,1.2-0.4,2.5-1.6,2.8c-1.2,0.3-2.5-0.4-2.8-1.6s0.4-2.5,1.6-2.8
	C553.9,336.3,555.2,337.1,555.5,338.3"/>
<path class="st4" d="M569,334.7c0.3,1.2-0.4,2.5-1.6,2.8c-1.2,0.3-2.5-0.4-2.8-1.6c-0.3-1.2,0.4-2.5,1.6-2.8
	C567.4,332.8,568.7,333.5,569,334.7"/>
<path class="st4" d="M576.6,323.5c0.3,1.2-0.4,2.5-1.6,2.8c-1.2,0.3-2.5-0.4-2.8-1.6c-0.3-1.2,0.4-2.5,1.6-2.8
	C575,321.5,576.3,322.2,576.6,323.5"/>
<path class="st4" d="M591.3,320.9c0.3,1.2-0.4,2.5-1.6,2.8c-1.2,0.3-2.5-0.4-2.8-1.6c-0.3-1.2,0.4-2.5,1.6-2.8
	C589.7,318.9,591,319.7,591.3,320.9"/>
<path class="st3" d="M528.3,390.8c0,0.9-0.7,1.6-1.6,1.6c-0.9,0-1.6-0.7-1.6-1.6c0-0.9,0.7-1.6,1.6-1.6
	C527.6,389.2,528.3,389.9,528.3,390.8"/>
<path class="st3" d="M530.1,385.6c-0.4,0.7-1.4,1-2.1,0.6s-1-1.4-0.6-2.1c0.4-0.7,1.4-1,2.1-0.6S530.5,384.8,530.1,385.6"/>
<path class="st3" d="M534.2,382c-0.7,0.5-1.7,0.2-2.1-0.5c-0.5-0.7-0.2-1.7,0.5-2.1c0.7-0.5,1.7-0.2,2.1,0.5
	C535.2,380.6,535,381.6,534.2,382"/>
<path class="st3" d="M540.3,380.7c-0.7,0.5-1.7,0.2-2.1-0.5c-0.5-0.7-0.2-1.7,0.5-2.1c0.7-0.5,1.7-0.2,2.1,0.5
	C541.2,379.3,541,380.3,540.3,380.7"/>
<path class="st0" d="M542.7,392c0,2.1-1.7,3.8-3.8,3.8c-2.1,0-3.8-1.7-3.8-3.8c0-2.1,1.7-3.8,3.8-3.8
	C541,388.2,542.7,389.9,542.7,392"/>
<path class="st4" d="M563,348.3l-3.9-5.2c-0.8-1.1-2.3-1.3-3.4-0.5c-1.1,0.8-1.3,2.3-0.5,3.4l3.9,5.2c0.8,1.1,2.3,1.3,3.4,0.5
	C563.5,350.9,563.7,349.3,563,348.3"/>
<path class="st4" d="M566.3,341.5c-0.8-1.1-2.3-1.3-3.4-0.5c-1.1,0.8-1.3,2.3-0.5,3.4l3.9,5.2c0.8,1.1,2.3,1.3,3.4,0.5
	c1.1-0.8,1.3-2.3,0.5-3.4L566.3,341.5z"/>
<path class="st4" d="M555.3,348.9c-0.8-1.1-2.3-1.3-3.4-0.5c-1.1,0.8-1.3,2.3-0.5,3.4l3.9,5.2c0.8,1.1,2.3,1.3,3.4,0.5
	c1.1-0.8,1.3-2.3,0.5-3.4L555.3,348.9z"/>
<path class="st4" d="M576.7,333.6c-0.8-1.1-2.3-1.3-3.4-0.5c-1.1,0.8-1.3,2.3-0.5,3.4l3.9,5.2c0.8,1.1,2.3,1.3,3.4,0.5
	c1.1-0.8,1.3-2.3,0.5-3.4L576.7,333.6z"/>
<path class="st4" d="M590.6,330.1l-3.9-5.2c-0.8-1.1-2.3-1.3-3.4-0.5c-1.1,0.8-1.3,2.3-0.5,3.4l3.9,5.2c0.8,1.1,2.3,1.3,3.4,0.5
	C591.2,332.7,591.4,331.1,590.6,330.1"/>
<path class="st4" d="M572.9,339.2c-0.8-1.1-2.3-1.3-3.4-0.5c-1.1,0.8-1.3,2.3-0.5,3.4l3.9,5.2c0.8,1.1,2.3,1.3,3.4,0.5v0
	c1.1-0.8,1.3-2.3,0.5-3.4L572.9,339.2z"/>
<path class="st4" d="M581,327.9c-0.8-1.1-2.3-1.3-3.4-0.5c-1.1,0.8-1.3,2.3-0.5,3.4l3.9,5.2c0.8,1.1,2.3,1.3,3.4,0.5
	c1.1-0.8,1.3-2.3,0.5-3.4L581,327.9z"/>
<path class="st4" d="M598.4,330.1l-3.9-5.2c-0.8-1.1-2.3-1.3-3.4-0.5c-1.1,0.8-1.3,2.3-0.5,3.4l3.9,5.2c0.8,1.1,2.3,1.3,3.4,0.5
	C599,332.7,599.2,331.1,598.4,330.1"/>
<path class="st4" d="M522.1,383.4l-6.2-2c-1.3-0.4-2.6,0.3-3,1.6c-0.4,1.3,0.3,2.6,1.6,3l6.2,2c1.3,0.4,2.6-0.3,3-1.6
	C524,385.1,523.3,383.7,522.1,383.4"/>
<path class="st4" d="M524.6,371.7c-0.9-1-2.4-1-3.4-0.1c-1,0.9-1,2.4-0.1,3.4l4.4,4.8c0.9,1,2.4,1,3.4,0.1c1-0.9,1-2.4,0.1-3.4
	L524.6,371.7z"/>
<path class="st4" d="M537.5,373.9l-1.6-6.3c-0.3-1.3-1.6-2.1-2.9-1.8c-1.3,0.3-2.1,1.6-1.8,2.9l1.6,6.3c0.3,1.3,1.6,2.1,2.9,1.8
	C537,376.5,537.8,375.2,537.5,373.9"/>
<polyline class="st5" points="626.5,431 626.5,304.8 500.3,304.8 500.3,431 "/>
<g>
	<path class="st6" d="M1065,792.9l-17.2-37c-1.7-3.7-0.1-8.1,3.6-9.8c3.4-1.6,7.5-0.3,9.4,2.8c0-0.1,0-0.2,0-0.3l-2.8-5.9
		c-1.7-3.7-0.1-8.1,3.6-9.8c3.7-1.7,8.1-0.1,9.8,3.6l1.1,2.3c0.3-2.5,1.8-4.7,4.2-5.8h0c3.7-1.7,8.1-0.1,9.8,3.6l6.7,14.3l3.8-9.1
		c5.4-13-6.4-26.6-20.1-23.1l-42.2,11c-5.5,1.4-8.3,7.6-5.8,12.7l14.9,30.4l2.2,4.6l10.8,22.1c1.3,2.7,3.9,4.6,6.9,4.9h0
		c3.4,0.4,6.6-1.1,8.5-3.8c0.4-0.5,0.7-1.1,0.9-1.7l0.9-2.1C1070.6,798,1066.6,796.3,1065,792.9z"/>
	<path class="st7" d="M1051.1,796.2l-18.1-37c-4.1-8.4-16.1-8.5-20.4-0.1l-13,25.9c-1.7,3.4,0.1,7.5,3.8,8.5l40.8,11.1
		c1.9,0.5,4,0,5.5-1.3l2.8,1C1054.5,802.6,1052.3,798.6,1051.1,796.2z"/>
	<path class="st8" d="M1063.5,804.2"/>
	<g>
		<line class="st0" x1="1080" y1="802.8" x2="1108.1" y2="784.6"/>
		<path class="st0" d="M1080,803.5c-0.2,0-0.5-0.1-0.6-0.3c-0.2-0.3-0.1-0.8,0.2-1l28.1-18.2c0.3-0.2,0.8-0.1,1,0.2
			c0.2,0.3,0.1,0.8-0.2,1l-28.1,18.2C1080.3,803.4,1080.1,803.5,1080,803.5z"/>
	</g>
	<circle class="st0" cx="1108.1" cy="784.5" r="1.5"/>
	<g>
		<circle class="st9" cx="1037.7" cy="785.3" r="3.5"/>
		<g>
			<path class="st0" d="M1037.6,789.8c-0.8,0-1.6-0.2-2.3-0.6c-1-0.6-1.8-1.6-2.1-2.8c-0.3-1.2-0.1-2.4,0.5-3.4
				c0.6-1,1.6-1.8,2.8-2.1l0.5,2c-0.6,0.2-1.2,0.6-1.5,1.1s-0.4,1.2-0.3,1.9c0.2,0.6,0.6,1.2,1.1,1.5c0.6,0.3,1.2,0.4,1.9,0.3l0.5,2
				C1038.4,789.8,1038,789.8,1037.6,789.8z"/>
		</g>
		
			<rect x="1040.1" y="782.8" transform="matrix(0.9713 -0.238 0.238 0.9713 -156.8098 270.2547)" class="st10" width="1.2" height="3.5"/>
	</g>
	<g>
		<circle class="st9" cx="1032.3" cy="775.3" r="3.5"/>
		<g>
			<path class="st0" d="M1036.6,776.6l-1.9-0.6c0.4-1.3-0.3-2.7-1.6-3.1c-0.6-0.2-1.3-0.1-1.9,0.2c-0.6,0.3-1,0.8-1.2,1.5l-1.9-0.6
				c0.4-1.2,1.1-2.1,2.2-2.7c1.1-0.6,2.3-0.7,3.5-0.3C1036,771.7,1037.3,774.3,1036.6,776.6z"/>
		</g>
		
			<rect x="1030.7" y="776.6" transform="matrix(-0.3019 0.9533 -0.9533 -0.3019 2084.7358 30.1703)" class="st10" width="1.2" height="3.5"/>
	</g>
	<circle class="st9" cx="1026.5" cy="764.1" r="3.5"/>
	<g>
		<path class="st0" d="M1023.3,767.3c-1.8-1.8-1.8-4.6,0-6.4c1.8-1.8,4.6-1.8,6.4,0l-1.4,1.4c-1-1-2.6-1-3.5,0c-1,1-1,2.6,0,3.5
			L1023.3,767.3z"/>
	</g>
	
		<rect x="1028.2" y="764.6" transform="matrix(0.7041 0.7101 -0.7101 0.7041 848.585 -503.78)" class="st10" width="1.2" height="3.5"/>
	<circle class="st9" cx="1016.3" cy="768.1" r="3.5"/>
	<g>
		<path class="st0" d="M1016.3,772.6c-0.8,0-1.6-0.2-2.4-0.7c-1-0.6-1.8-1.6-2-2.8c-0.3-1.2-0.1-2.4,0.5-3.4l1.7,1.1
			c-0.3,0.6-0.5,1.2-0.3,1.9c0.2,0.6,0.6,1.2,1.1,1.5c1.2,0.7,2.7,0.4,3.4-0.8l1.7,1.1C1019.3,771.8,1017.8,772.6,1016.3,772.6z"/>
	</g>
	
		<rect x="1017.3" y="763.6" transform="matrix(0.5273 -0.8497 0.8497 0.5273 -169.0871 1226.73)" class="st10" width="1.2" height="3.5"/>
	<g>
		<circle class="st9" cx="1013" cy="777.6" r="3.5"/>
		<g>
			<path class="st0" d="M1013,782.1c-1.7,0-3.3-0.9-4.1-2.5l1.8-0.9c0.6,1.2,2.1,1.7,3.3,1.1c1.2-0.6,1.7-2.1,1.1-3.3l1.8-0.9
				c1.1,2.2,0.2,5-2.1,6.1C1014.4,782,1013.7,782.1,1013,782.1z"/>
		</g>
		
			<rect x="1011" y="773" transform="matrix(-0.4372 -0.8993 0.8993 -0.4372 757.1821 2023.2107)" class="st10" width="1.2" height="3.5"/>
	</g>
	<g>
		<circle class="st9" cx="1008" cy="786.6" r="3.5"/>
		<g>
			<path class="st0" d="M1006.1,790.8c-1.1-0.5-1.9-1.4-2.4-2.5c-0.4-1.1-0.4-2.4,0.1-3.5c1-2.3,3.7-3.3,6-2.3l-0.8,1.9
				c-1.3-0.6-2.7,0-3.3,1.3c-0.3,0.6-0.3,1.3-0.1,1.9c0.2,0.6,0.7,1.1,1.3,1.4L1006.1,790.8z"/>
		</g>
		
			<rect x="1010.3" y="786.2" transform="matrix(0.9099 0.4148 -0.4148 0.9099 417.8838 -348.3379)" class="st10" width="1.2" height="3.5"/>
	</g>
	<path class="st7" d="M1076.6,809.5h-55c-2.5,0-4.5-2-4.5-4.5v-0.4c0-2.5,2-4.5,4.5-4.5h55c2.5,0,4.5,2,4.5,4.5v0.4
		C1081.1,807.5,1079.1,809.5,1076.6,809.5z"/>
	<path class="st0" d="M1079.7,801.5c-0.9-0.9-2-1.4-3.3-1.4h-23.5v9.4h23.5c1.3,0,2.5-0.5,3.3-1.4c0.9-0.9,1.4-2,1.4-3.3
		C1081.1,803.5,1080.6,802.3,1079.7,801.5z"/>
	<circle class="st10" cx="1028.3" cy="804.2" r="1.2"/>
	<circle class="st10" cx="1034.5" cy="804.2" r="1.2"/>
	<circle class="st10" cx="1040.7" cy="804.2" r="1.2"/>
	<circle class="st10" cx="1046.8" cy="804.2" r="1.2"/>
	<circle class="st10" cx="1053" cy="804.2" r="1.2"/>
	<circle class="st10" cx="1059.1" cy="804.2" r="1.2"/>
	<circle class="st10" cx="1065.3" cy="804.2" r="1.2"/>
	<circle class="st10" cx="1071.5" cy="804.2" r="1.2"/>
	<g>
		<path class="st11" d="M1084.9,770.8l1.9-4.5l4.7-11.3l1.7-4.2l-6.7-14.3c-1.7-3.7-6.1-5.3-9.8-3.6h0c-2.4,1.1-3.9,3.4-4.2,5.8
			l-1.1-2.3c-1.7-3.7-6.1-5.3-9.8-3.6c-3.7,1.7-5.3,6.1-3.6,9.8l2.8,5.9c0,0.1,0,0.2,0,0.3c-1.9-3.1-6-4.4-9.4-2.8
			c-3.7,1.7-5.3,6.1-3.6,9.8l11,23.7c2.4-5.2,7.7-8.9,13.8-8.9c4.1,0,7.8,1.6,10.5,4.2l1.5-3.5L1084.9,770.8z"/>
		<path class="st0" d="M1072.6,770.7c-6.1,0-11.4,3.6-13.8,8.9c-0.9,1.9-1.4,4.1-1.4,6.3c0,7.3,5.2,13.4,12.1,14.8
			c0.9,0.2,1.8,0.3,2.8,0.3l0-0.1l1.8-4.2c0,0,0,0,0,0l2.1-5.1l0,0l4.5-10.7l2.4-5.9C1080.4,772.4,1076.7,770.7,1072.6,770.7z"/>
	</g>
	<g>
		<path class="st6" d="M1084.7,775.6l-3.6-1.5l13.8-33.3c2.3-5.4,1.3-11.3-2.6-15.7c-3.9-4.4-9.6-6.2-15.3-4.7l-42.2,11
			c-2.1,0.5-3.7,2-4.6,3.9s-0.9,4.1,0.1,6l-3.5,1.7c-1.5-3-1.5-6.4-0.1-9.4c1.4-3,4-5.2,7.2-6l42.2-11c7-1.8,14.4,0.4,19.2,5.9
			c4.8,5.5,6,13.1,3.2,19.8L1084.7,775.6z"/>
	</g>
	<g>
		<path class="st7" d="M1002.8,795.4c-2.3-0.6-4.2-2.2-5.2-4.4c-1-2.2-0.9-4.7,0.2-6.8l13-25.9c2.3-4.5,6.8-7.3,11.9-7.3
			c0,0,0,0,0.1,0c5.1,0,9.6,2.9,11.9,7.4l-3.5,1.7c-1.6-3.3-4.8-5.3-8.4-5.3c0,0,0,0,0,0c-3.6,0-6.8,1.9-8.4,5.2l-13,25.9
			c-0.5,1.1-0.6,2.4-0.1,3.5c0.5,1.1,1.5,1.9,2.6,2.3L1002.8,795.4z"/>
	</g>
	<g>
		<line class="st12" x1="1076.6" y1="718.5" x2="1076.5" y2="718.6"/>
		<g>
			<path class="st10" d="M1030.8,734c-0.7,0-1.4-0.3-1.9-0.9c-0.9-1-0.8-2.6,0.3-3.5l0.2-0.2c1.1-0.9,2.6-0.7,3.5,0.3
				c0.9,1.1,0.7,2.6-0.3,3.5l-0.2,0.1C1032,733.8,1031.4,734,1030.8,734z M1041.9,730.1c-1.1,0-2.1-0.7-2.4-1.9
				c-0.4-1.3,0.4-2.7,1.8-3.1l0.2-0.1c1.3-0.3,2.7,0.4,3.1,1.8c0.4,1.3-0.4,2.7-1.8,3.1l-0.2,0.1
				C1042.4,730.1,1042.1,730.1,1041.9,730.1z M1053.4,727.1c-1.1,0-2.1-0.7-2.4-1.9c-0.3-1.3,0.5-2.7,1.8-3.1l0.2-0.1
				c1.3-0.3,2.7,0.5,3.1,1.8c0.3,1.3-0.5,2.7-1.8,3.1l-0.2,0.1C1053.9,727.1,1053.7,727.1,1053.4,727.1z M1065,724.1
				c-1.1,0-2.1-0.7-2.4-1.9c-0.3-1.3,0.5-2.7,1.8-3.1l0.2-0.1c1.3-0.3,2.7,0.5,3.1,1.8c0.3,1.3-0.5,2.7-1.8,3.1l-0.2,0.1
				C1065.4,724.1,1065.2,724.1,1065,724.1z"/>
		</g>
		<path class="st12" d="M1028.6,742.1c0,0,0,0.1,0.1,0.1"/>
	</g>
	<g>
		<path class="st5" d="M1084.4,771.4"/>
	</g>
	<g>
		<line class="st13" x1="999.6" y1="785.1" x2="999.6" y2="785"/>
		<path class="st14" d="M1008.9,766.5l3.7-7.4c0.3-0.7,0.7-1.3,1.2-1.9"/>
		<path class="st13" d="M1022.7,752.9C1022.8,752.9,1022.8,752.9,1022.7,752.9"/>
	</g>
	<path class="st10" d="M1040.9,746.7l-0.2,0.1c-1.2,0.6-2.6,0.1-3.2-1.1l-2.4-4.8c-0.6-1.2-0.1-2.6,1.1-3.2l0.2-0.1
		c1.2-0.6,2.6-0.1,3.2,1.1l2.4,4.8C1042.6,744.7,1042.1,746.1,1040.9,746.7z"/>
	<path class="st10" d="M1047,742.4l-0.2,0.1c-1.2,0.6-2.6,0.1-3.2-1.1l-1.5-2.9c-0.6-1.2-0.1-2.6,1.1-3.2l0.2-0.1
		c1.2-0.6,2.6-0.1,3.2,1.1l1.5,2.9C1048.7,740.3,1048.2,741.8,1047,742.4z"/>
	<circle class="st10" cx="1050.7" cy="734.8" r="2.7"/>
</g>
<g>
	<path class="st0" d="M1044.1,356.5c0.1-0.6,0.1-1.2,0.2-1.8C1044.3,355.3,1044.2,355.9,1044.1,356.5z"/>
	<path class="st0" d="M1070.8,390l3.1-3.7c-2.6,1.3-5.8,1.1-8.1-0.8v0c-2.5-2.1-3.3-5.5-2.1-8.4l-3.9,4.6c-2.6,3.1-7.2,3.5-10.3,0.9
		c-2.6-2.1-3.3-5.7-2-8.6l-2.6,3.1c-0.3,0.3-0.5,0.6-0.8,0.8l0-16.1c0-1.2,0-2.4,0-3.6c0,0,0,0,0-0.1c0,0.8-0.1,1.6-0.1,2.5
		l0.1,37.6c0,2.7,2.2,4.9,5,4.9l0,0c7.6,0,14.8-1.6,21.4-4.3C1068.6,396.3,1068.6,392.6,1070.8,390z"/>
	<path class="st0" d="M1103.9,348.2l0-27.3c0-2.7-2.2-4.9-5-4.9l-10.3,0c-22.7,0-41.3,16.9-44.2,38.8l9.6-11
		c2.6-3.1,7.2-3.5,10.3-0.9v0c2.6,2.1,3.3,5.7,2,8.6l2.6-3.1c2.6-3.1,7.2-3.5,10.3-0.9v0c2.5,2.1,3.3,5.5,2.1,8.4l3.9-4.6
		c2.6-3.1,7.2-3.5,10.3-0.9l0,0c3.1,2.6,3.5,7.2,0.9,10.2l-3.1,3.7c2.5-1.3,5.8-1.1,8.1,0.8"/>
	<polygon class="st0" points="1044.3,354.7 1044.3,354.8 1044.3,354.7 	"/>
	<path class="st0" d="M1044,358.3c0-0.6,0.1-1.2,0.1-1.8C1044.1,357.1,1044,357.7,1044,358.3z"/>
	<polygon class="st0" points="1070.3,399 1070.3,399 1070.3,399 	"/>
</g>
<g>
	<g>
		<g>
			<circle class="st4" cx="1019" cy="369.8" r="33"/>
		</g>
	</g>
</g>
<path class="st15" d="M1101.3,364.9c-2.3-1.9-5.6-2.1-8.1-0.8l3.1-3.7c2.6-3.1,2.2-7.7-0.9-10.2l0,0c-3.1-2.6-7.7-2.1-10.3,0.9
	l-3.9,4.6c1.2-2.9,0.4-6.3-2.1-8.4v0c-3.1-2.6-7.7-2.1-10.3,0.9l-2.6,3.1c1.3-2.9,0.6-6.5-2-8.6v0c-3.1-2.6-7.7-2.1-10.3,0.9
	l-9.6,11c-0.2,1.2-0.3,2.4-0.3,3.6c0,1.2,0,2.4,0,3.6l0,16.1c0.3-0.3,0.6-0.5,0.8-0.8l2.6-3.1c-1.3,2.9-0.6,6.5,2,8.6
	c3.1,2.6,7.7,2.1,10.3-0.9l3.9-4.6c-1.2,2.9-0.4,6.3,2.1,8.4v0c2.3,1.9,5.6,2.2,8.1,0.8l-3.1,3.7c-2.1,2.5-2.2,6.3-0.4,9
	C1085,392.8,1096.5,380.3,1101.3,364.9z"/>
<g>
	<path class="st0" d="M1044.1,356.5c0.1-0.6,0.1-1.2,0.2-1.8C1044.3,355.3,1044.2,355.9,1044.1,356.5z"/>
	<path class="st0" d="M1070.8,390l3.1-3.7c-2.6,1.3-5.8,1.1-8.1-0.8v0c-2.5-2.1-3.3-5.5-2.1-8.4l-3.9,4.6c-2.6,3.1-7.2,3.5-10.3,0.9
		c-2.6-2.1-3.3-5.7-2-8.6l-2.6,3.1c-0.3,0.3-0.5,0.6-0.8,0.8l0-16.1c0-1.2,0-2.4,0-3.6c0,0,0,0,0-0.1c0,0.8-0.1,1.6-0.1,2.5
		l0.1,37.6c0,2.7,2.2,4.9,5,4.9l0,0c7.6,0,14.8-1.6,21.4-4.3C1068.6,396.3,1068.6,392.6,1070.8,390z"/>
	<path class="st0" d="M1103.9,348.2l0-27.3c0-2.7-2.2-4.9-5-4.9l-10.3,0c-22.7,0-41.3,16.9-44.2,38.8l9.6-11
		c2.6-3.1,7.2-3.5,10.3-0.9v0c2.6,2.1,3.3,5.7,2,8.6l2.6-3.1c2.6-3.1,7.2-3.5,10.3-0.9v0c2.5,2.1,3.3,5.5,2.1,8.4l3.9-4.6
		c2.6-3.1,7.2-3.5,10.3-0.9l0,0c3.1,2.6,3.5,7.2,0.9,10.2l-3.1,3.7c2.5-1.3,5.8-1.1,8.1,0.8"/>
	<polygon class="st0" points="1044.3,354.7 1044.3,354.8 1044.3,354.7 	"/>
	<path class="st0" d="M1044,358.3c0-0.6,0.1-1.2,0.1-1.8C1044.1,357.1,1044,357.7,1044,358.3z"/>
	<polygon class="st0" points="1070.3,399 1070.3,399 1070.3,399 	"/>
</g>
<g>
	<g>
		<g>
			
				<rect x="1029.7" y="367.1" transform="matrix(1.667936e-03 1 -1 1.667936e-03 1409.3929 -672.2246)" class="st16" width="23.4" height="5.3"/>
		</g>
	</g>
</g>
<g>
	<g>
		<g>
			<path class="st16" d="M1056,327.7c8.8-8.8,20.5-13.7,33-13.7l10.3,0c1.8,0,3.6,0.7,4.9,2c1.3,1.3,2,3,2,4.9l0,27.3l-3.9,0l0-27.3
				c0-0.8-0.3-1.5-0.9-2.1c-0.6-0.6-1.3-0.9-2.1-0.9l-10.3,0c-11.4,0-22.1,4.5-30.2,12.6L1056,327.7z"/>
		</g>
	</g>
</g>
<g>
	<path class="st17" d="M1072.9,401.2l0,10.7c3,0,5.4-2.4,5.4-5.4C1078.3,403.6,1075.8,401.2,1072.9,401.2z"/>
</g>
<g>
	<path class="st0" d="M1073,411.9l-62,0.1c-3,0-5.4-2.4-5.4-5.4v0c0-3,2.4-5.4,5.4-5.4l62-0.1c3,0,5.4,2.4,5.4,5.4v0
		C1078.4,409.5,1076,411.9,1073,411.9z"/>
</g>
<path class="st18" d="M1096.9,360.9l0.5-0.5c1.5-1.7,2.2-4,2-6.2c-0.2-2.3-1.3-4.3-3-5.8c-1.8-1.5-4-2.1-6.3-1.9
	c-2.3,0.2-4.4,1.3-5.8,3l-1,1.2c0-0.2-0.1-0.3-0.1-0.5c-0.4-1.8-1.4-3.4-2.8-4.6c-1.8-1.5-4-2.1-6.3-1.9c-2.1,0.2-4,1.1-5.5,2.6
	c0-0.2-0.1-0.3-0.1-0.5c-0.4-1.9-1.4-3.5-2.9-4.7c-1.8-1.5-4-2.1-6.3-1.9c-2.3,0.2-4.4,1.3-5.8,3c-0.5,0.6-0.4,1.4,0.2,1.9
	c0.6,0.5,1.4,0.4,1.9-0.2c1-1.2,2.4-1.9,4-2.1c1.6-0.1,3.1,0.3,4.3,1.3c1,0.8,1.7,1.9,2,3.2c0.3,1.2,0.1,2.5-0.4,3.7
	c-0.3,0.6-0.1,1.3,0.5,1.7c0.6,0.4,1.3,0.2,1.8-0.3l2.6-3.1c1-1.2,2.4-1.9,4-2.1c1.6-0.1,3.1,0.3,4.3,1.3c1,0.8,1.6,1.9,1.9,3.1
	c0.3,1.2,0.2,2.5-0.3,3.6c-0.3,0.6,0,1.3,0.5,1.7c0.6,0.3,1.3,0.2,1.7-0.3l3.8-4.5c1-1.2,2.4-1.9,4-2.1c1.6-0.1,3.1,0.3,4.3,1.3
	c1.2,1,1.9,2.4,2.1,3.9c0.1,1.6-0.3,3.1-1.3,4.2l-3,3.6c-0.4,0.5-0.4,1.2,0,1.7c0.4,0.5,1.1,0.7,1.7,0.3c1-0.5,2.2-0.8,3.3-0.7
	c1.2,0.1,2.3,0.6,3.2,1.3c0,0,0,0,0.1,0.1l0.1,0.1c0.2,0.2,0.4,0.3,0.6,0.3c0.3-0.9,0.3-1.5,0.5-2.9c-1.3-1-2.6-1.4-4.2-1.6
	C1097.3,360.9,1097.1,360.9,1096.9,360.9z"/>
<rect x="951" y="105.7" transform="matrix(-1.667936e-03 -1 1 -1.667936e-03 852.2996 1212.5503)" class="st4" width="160.8" height="150.3"/>
<g>
	<circle class="st0" cx="1034.4" cy="129.5" r="20.9"/>
</g>
<path class="st19" d="M1081.9,198.7L1081.9,198.7c0,2.5-2,4.5-4.5,4.5l-49.2,0.1c-2.5,0-4.5-2-4.5-4.5v0c0-2.5,2-4.5,4.5-4.5
	l49.2-0.1C1079.8,194.2,1081.9,196.2,1081.9,198.7z"/>
<path class="st19" d="M1062.4,120.4c0,2.5,2,4.5,4.5,4.5l39.1-0.1l0-9l-39.1,0.1C1064.5,115.9,1062.4,117.9,1062.4,120.4z"/>
<path class="st20" d="M977.6,229.5L977.6,229.5c-2.5,0-4.5-2-4.5-4.5l-0.1-49.2c0-2.5,2-4.5,4.5-4.5l0,0c2.5,0,4.5,2,4.5,4.5
	l0.1,49.2C982.1,227.5,980.1,229.5,977.6,229.5z"/>
<circle class="st21" cx="995.6" cy="153" r="9.6"/>
<circle class="st20" cx="1019.7" cy="235.4" r="9.6"/>
<path class="st0" d="M974,101c3.5,6.4,5.3,13.6,5.3,21.2l0,10.8c0,0.8-0.3,1.6-0.9,2.2c-0.6,0.6-1.4,0.9-2.2,0.9l-19.8,0l0,4.1
	l19.8,0c1.9,0,3.7-0.8,5.1-2.1c1.4-1.4,2.1-3.2,2.1-5.1l0-10.8c0-7.5-1.7-14.6-4.8-21.2L974,101z"/>
<g>
	<path class="st0" d="M1099.8,235c-9.2,9.2-21.4,14.3-34.5,14.3l-10.8,0c-1.9,0-3.8-0.7-5.1-2.1c-1.4-1.4-2.1-3.2-2.1-5.1l0-28.6
		l4.1,0l0,28.6c0,0.8,0.3,1.6,0.9,2.2c0.6,0.6,1.4,0.9,2.2,0.9l10.8,0c11.9,0,23.1-4.7,31.6-13.1L1099.8,235z"/>
</g>
<g>
	
		<rect x="1006.7" y="246.5" transform="matrix(1.667936e-03 1 -1 1.667936e-03 1267.4559 -770.7952)" class="st22" width="26.1" height="5.9"/>
</g>
<g>
	
		<rect x="1021.9" y="111" transform="matrix(-1.667936e-03 -1 1 -1.667936e-03 922.7688 1149.0728)" class="st22" width="26.1" height="5.9"/>
</g>
<g>
	
		<rect x="1073.5" y="214.3" transform="matrix(1 -1.667936e-03 1.667936e-03 1 -0.3608 1.8127)" class="st21" width="26.1" height="5.9"/>
</g>
<path class="st0" d="M984.2,261.8c0.3-1.5,0.5-3.1,0.5-4.7c0-11.6-9.4-20.9-21-20.9c-2.5,0-4.9,0.5-7.2,1.3l0,24.4L984.2,261.8z"/>
<path class="st23" d="M1071.3,176.1L1071.3,176.1c0,6-4.8,10.8-10.8,10.8l-45.1,0.1c-6,0-10.8-4.8-10.8-10.8v0
	c0-6,4.8-10.8,10.8-10.8l45.1-0.1C1066.4,165.3,1071.3,170.1,1071.3,176.1z"/>
<g>
	<g>
		<g>
			<line class="st24" x1="835.3" y1="585.6" x2="850.1" y2="570.5"/>
			<path class="st0" d="M835.3,586.1c-0.1,0-0.3,0-0.4-0.1c-0.2-0.2-0.2-0.5,0-0.7l14.8-15.1c0.2-0.2,0.5-0.2,0.7,0
				c0.2,0.2,0.2,0.5,0,0.7l-14.8,15.1C835.6,586,835.4,586.1,835.3,586.1z"/>
		</g>
		<g>
			<g>
				<path class="st25" d="M833.2,583.3L833.2,583.3l-88.4,0c0,0,7.3,14.9,19,14.9c2,0,5.3,0,9.4,0v-9.1c0-1.5,1.2-2.7,2.7-2.7
					s2.7,1.2,2.7,2.7v9.1c4,0,8.4,0,13,0v-9.1c0-1.5,1.2-2.7,2.7-2.7c1.5,0,2.7,1.2,2.7,2.7v9.1c4.4,0,8.8,0,13,0v-9.1
					c0-1.5,1.2-2.7,2.7-2.7c1.5,0,2.7,1.2,2.7,2.7v9.1c10.2,0,17.8,0,17.8,0v0c4.1,0,7.3-3.3,7.3-7.4
					C840.5,586.7,837.3,583.4,833.2,583.3z"/>
			</g>
			<g>
				<path class="st10" d="M812.7,586.3c-1.5,0-2.7,1.2-2.7,2.7v9.1c1.9,0,3.7,0,5.4,0v-9.1C815.4,587.6,814.2,586.3,812.7,586.3z"/>
			</g>
			<g>
				<path class="st10" d="M794.3,586.3c-1.5,0-2.7,1.2-2.7,2.7v9.1c1.8,0,3.6,0,5.4,0v-9.1C797.1,587.6,795.8,586.3,794.3,586.3z"/>
			</g>
			<g>
				<path class="st10" d="M776,586.3c-1.5,0-2.7,1.2-2.7,2.7v9.1c1.7,0,3.5,0,5.4,0v-9.1C778.7,587.6,777.5,586.3,776,586.3z"/>
			</g>
		</g>
		<g>
			<g>
				<path class="st0" d="M803.7,583.3L787,540.1c-1-2.4-4.5-3-6.4-1.1l-4.7,4.6c-4.9,4.9-5.9,12-2.4,17.8l13.3,21.9H803.7z"/>
			</g>
		</g>
		<path class="st18" d="M788.7,544.4c-2.3,0.6-4.1,2.5-4.4,5l-2.8,25.3l5.3,8.7h4.9c0.8-0.9,1.4-2,1.5-3.3l2.1-18.5L788.7,544.4z"/>
		<g>
			<g>
				<circle class="st0" cx="766.8" cy="591.2" r="2.9"/>
			</g>
		</g>
		<g>
			<g>
				<circle class="st0" cx="785.1" cy="591.2" r="2.9"/>
			</g>
		</g>
		<g>
			<g>
				<circle class="st0" cx="803.5" cy="591.2" r="2.9"/>
			</g>
		</g>
		<g>
			<g>
				<circle class="st0" cx="821.9" cy="591.2" r="2.9"/>
			</g>
		</g>
		<g>
			<g>
				<g>
					<path class="st0" d="M819.1,556.3l9.5,10.7l0.6-57.5c0.6-5.7-6.2-9.2-11.3-6.7l7.7,39.8c0.3,1.6-0.8,3.2-2.4,3.5l0,0
						c-1.6,0.3-3.2-0.8-3.5-2.4l-7-36.3l-3.1,3l8.2,42.3c0.3,1.6-0.8,3.2-2.4,3.5l0,0c-1.6,0.3-3.2-0.8-3.5-2.4l-7.4-38.5l-3.4,3.2
						l8.5,44c0.3,1.6-0.8,3.2-2.4,3.5c-1.6,0.3-3.2-0.8-3.5-2.4l-7.8-40.2l-4.1,3.9c-1.9,1.8-2.6,4.5-1.7,6.9l18.3,49h20.2l0.1-8.3
						L815,559.9L819.1,556.3z"/>
				</g>
			</g>
			<path class="st1" d="M825.6,542.6l-7.7-39.8c-0.7,0.3-1.4,0.8-2,1.4l-3.3,3.2l7,36.3c0.3,1.6,1.9,2.7,3.5,2.4l0,0
				C824.8,545.8,825.9,544.2,825.6,542.6z"/>
			<path class="st1" d="M817.7,552.7l-8.2-42.3l-5.2,5l7.4,38.5c0.3,1.6,1.9,2.7,3.5,2.4l0,0C816.9,555.9,818,554.3,817.7,552.7z"/>
			<path class="st1" d="M809.5,562.6l-8.5-44l-5.2,5l7.8,40.2c0.3,1.6,1.9,2.7,3.5,2.4C808.7,565.8,809.8,564.2,809.5,562.6z"/>
			<polygon class="st26" points="819.1,556.3 815,559.9 828.5,575 828.6,567 			"/>
		</g>
		<g>
			<circle class="st26" cx="814.7" cy="552.9" r="2.4"/>
		</g>
		<g>
			<path class="st25" d="M774.6,564.6l-1.7-2.7c-0.5-0.8-0.8-1.5-1.2-2.3c-0.3-0.8-0.6-1.6-0.7-2.4c-0.2-0.8-0.3-1.7-0.3-2.5
				c0-0.8,0-1.7,0.1-2.5c0.1-0.8,0.3-1.6,0.5-2.4c0.2-0.8,0.6-1.6,0.9-2.3c0.4-0.8,0.8-1.5,1.3-2.2c0.5-0.7,1.1-1.4,1.7-2l4.7-4.6
				l1.1,1.1l-4.7,4.6c-0.6,0.6-1.1,1.2-1.6,1.8c-0.5,0.6-0.9,1.3-1.2,2c-0.3,0.7-0.6,1.4-0.8,2.1c-0.2,0.7-0.4,1.5-0.5,2.2
				c-0.1,0.7-0.1,1.5-0.1,2.2c0,0.7,0.1,1.5,0.3,2.2c0.2,0.7,0.4,1.5,0.7,2.2c0.3,0.7,0.6,1.4,1.1,2.1l1.7,2.7L774.6,564.6z"/>
		</g>
	</g>
	<rect x="707.9" y="296.9" class="st25" width="151.4" height="152.6"/>
	<path class="st0" d="M799.6,332.7L799.6,332.7c0,6.3,5.2,11.5,11.5,11.5h48.4v-23.1h-48.4C804.7,321.1,799.6,326.3,799.6,332.7z"/>
	<path class="st1" d="M817.6,354.8c0,2.5,2,4.5,4.5,4.5h22.1c2.5,0,4.5-2,4.5-4.5c0-2.5-2-4.5-4.5-4.5h-22.1
		C819.7,350.3,817.6,352.3,817.6,354.8z"/>
	<path class="st1" d="M817.6,310.5c0,2.5,2,4.5,4.5,4.5h22.1c2.5,0,4.5-2,4.5-4.5c0-2.5-2-4.5-4.5-4.5h-22.1
		C819.7,306,817.6,308,817.6,310.5z"/>
	
		<rect x="756.2" y="353.7" transform="matrix(0.7071 -0.7071 0.7071 0.7071 -51.0951 658.0181)" class="st1" width="25.1" height="74"/>
	
		<rect x="738.5" y="370.7" transform="matrix(-0.7071 -0.7071 0.7071 -0.7071 996.1975 1191.8157)" class="st10" width="12.8" height="37.9"/>
	<circle class="st21" cx="767.5" cy="351.8" r="5.6"/>
	<circle class="st21" cx="779.7" cy="366.1" r="5.6"/>
	<circle class="st21" cx="824.7" cy="406.6" r="5.6"/>
	<circle class="st21" cx="843.1" cy="406.6" r="5.6"/>
	
		<rect x="793.8" y="367.7" transform="matrix(-0.7071 -0.7071 0.7071 -0.7071 1092.7046 1225.9048)" class="st10" width="12.8" height="37.9"/>
	<path class="st27" d="M830.5,433c0-3.2-2.6-5.8-5.8-5.8c-3.2,0-5.8,2.6-5.8,5.8v17.6h11.7V433z"/>
	<path class="st27" d="M849.4,433c0-3.2-2.6-5.8-5.8-5.8c-3.2,0-5.8,2.6-5.8,5.8v17.6h11.7V433z"/>
	<path class="st27" d="M811.6,433c0-3.2-2.6-5.8-5.8-5.8c-3.2,0-5.8,2.6-5.8,5.8v17.6h11.7V433z"/>
	<rect x="738.1" y="296.5" class="st27" width="12" height="24"/>
	<g>
		<path class="st10" d="M780.6,341.8l-1.9-6.9c-0.5-1.9-0.9-3.8-1.1-5.7c-0.2-1.9-0.2-3.8-0.1-5.7c0.1-1.9,0.4-3.7,0.9-5.5
			c0.4-1.8,1-3.6,1.8-5.3c0.7-1.7,1.6-3.4,2.6-4.9c1-1.6,2.2-3.1,3.5-4.5c1.3-1.4,2.7-2.7,4.2-3.9c1.5-1.2,3.2-2.3,5-3.3l12.9-7.1
			l1.7,3l-12.9,7.1c-1.6,0.9-3.1,1.9-4.5,3c-1.4,1.1-2.7,2.3-3.8,3.5c-1.1,1.3-2.2,2.6-3.1,4c-0.9,1.4-1.7,2.9-2.4,4.4
			c-0.7,1.5-1.2,3.1-1.6,4.7c-0.4,1.6-0.6,3.3-0.8,5c-0.1,1.7-0.1,3.4,0.1,5.1c0.2,1.7,0.5,3.5,1,5.2l1.9,6.9L780.6,341.8z"/>
	</g>
	<path class="st21" d="M741,424.9c-2-0.4-3.9-0.7-5.9-0.8c-1.9-0.1-3.9,0-5.8,0.2c-1.9,0.2-3.7,0.6-5.5,1.1c-1.8,0.5-3.5,1.2-5.2,2
		c-1.7,0.8-3.3,1.8-4.8,2.8c-1.5,1.1-2.9,2.3-4.3,3.6c-0.6,0.6-1.1,1.2-1.7,1.8v5.7c0.3-0.4,0.5-0.8,0.8-1.2c1-1.4,2.1-2.7,3.3-3.9
		c1.2-1.2,2.5-2.3,3.8-3.2c1.4-1,2.8-1.8,4.3-2.5c1.5-0.7,3.1-1.3,4.7-1.8c1.6-0.5,3.3-0.8,5-1c1.7-0.2,3.5-0.3,5.2-0.2
		c1.8,0.1,3.6,0.3,5.4,0.7l14.4,3.1l0.7-3.3L741,424.9z"/>
</g>
<g>
	<g>
		<defs>
			<rect id="SVGID_1_" x="259.9" y="488.4" width="134.6" height="134.6"/>
		</defs>
		<clipPath id="SVGID_2_">
			<use xlink:href="#SVGID_1_"  style="overflow:visible;"/>
		</clipPath>
		<path class="st28" d="M373.8,551.1c0.8-1.9,3-2.8,4.9-1.9l2.3,1c0.6-2,1.1-4,1.5-6.1c-0.5,0.2-1,0.3-1.6,0.4
			c-2.6,0.2-4.9-1.5-5.6-3.9c-0.4,0.1-0.8,0.2-1.3,0.3c-2.6,0.2-4.9-1.5-5.6-3.9c-0.4,0.1-0.8,0.2-1.3,0.3c-2.6,0.2-4.8-1.4-5.5-3.8
			c-0.4,0.1-0.9,0.2-1.3,0.3c-2.4,0.2-4.5-1.2-5.4-3.4c-0.5,0.2-1.1,0.4-1.7,0.4c-2.4,0.2-4.5-1.2-5.4-3.4c-0.5,0.2-1.1,0.4-1.7,0.4
			c-2.5,0.2-4.6-1.3-5.5-3.5c-0.5,0.2-1,0.3-1.6,0.4c-3,0.2-5.6-2-5.8-5c0-0.3,0-0.6,0-0.8c-6,7.6-9.6,17.2-9.6,27.6v37.5
			c0,2.7,2.2,4.9,4.9,4.9c22.1,0,41.1-13,49.8-31.8l-2.7-1.2C373.8,555.2,373,553,373.8,551.1"/>
		<path class="st29" d="M333.3,519.8c0.2,3,2.8,5.2,5.8,5c0.6,0,1.1-0.2,1.6-0.4c0.8,2.2,3,3.7,5.5,3.5c0.6,0,1.2-0.2,1.7-0.4
			c0.9,2.1,3,3.5,5.4,3.4c0.6,0,1.2-0.2,1.7-0.4c0.9,2.1,3,3.5,5.4,3.4c0.5,0,0.9-0.1,1.3-0.3c0.7,2.3,3,4,5.5,3.8
			c0.4,0,0.9-0.1,1.3-0.3c0.7,2.4,3,4.1,5.6,3.9c0.4,0,0.9-0.1,1.3-0.3c0.7,2.4,3,4.1,5.6,3.9c0.6,0,1.1-0.2,1.6-0.4
			c0.6-3.1,0.9-6.3,0.9-9.5c-0.9-0.6-2.1-0.9-3.3-0.8c-0.4,0-0.9,0.1-1.3,0.3c-0.7-2.4-3-4.1-5.6-3.9c-0.4,0-0.9,0.1-1.3,0.3
			c-0.7-2.4-3-4.1-5.6-3.9c-0.5,0-0.9,0.1-1.3,0.3c-0.7-2.3-3-4-5.5-3.8c-0.6,0-1.2,0.2-1.7,0.4c-0.9-2.1-3-3.5-5.4-3.4
			c-0.6,0-1.2,0.2-1.7,0.4c-0.9-2.1-3-3.5-5.4-3.4c-0.6,0-1.1,0.2-1.6,0.4c-0.8-2.2-3-3.7-5.5-3.5c-0.2,0-0.3,0-0.5,0.1
			c-1.6,1.5-3.1,3.2-4.5,4.9C333.3,519.2,333.3,519.5,333.3,519.8"/>
		<path class="st30" d="M378.7,549.2c-1.9-0.8-4.1,0-4.9,1.9s0,4.1,1.9,4.9l2.7,1.2c1-2.3,1.9-4.6,2.7-7L378.7,549.2z"/>
		<path class="st28" d="M266.5,560.3C266.5,560.3,266.5,560.3,266.5,560.3C266.5,560.3,266.5,560.3,266.5,560.3
			C266.5,560.3,266.5,560.3,266.5,560.3"/>
		<path class="st28" d="M298.8,521.2c-10.6,0-19.9,5-26,12.7c2.5,0.3,4.6,2.3,4.8,5c0.2,2.7-1.6,5-4.1,5.6c0.6,0.8,0.9,1.7,1,2.7
			c0.1,1.7-0.5,3.2-1.7,4.3c1.2,0.9,2.1,2.3,2.2,4c0.1,1.3-0.3,2.6-1,3.6c1.2,0.9,2.1,2.3,2.2,4c0.1,0.8-0.1,1.7-0.4,2.4
			c1.7,0.8,3,2.5,3.2,4.5c0,0.3,0,0.7,0,1c1.9,0.4,3.4,1.8,4,3.7c0.3-0.1,0.6-0.1,0.8-0.1c3-0.2,5.6,2,5.8,5c0.2,2.2-1,4.2-2.9,5.2
			c1.2,0.5,2.4,0.9,3.6,1.2c2.7,0.7,5.5,1.1,8.5,1.1c18.2,0,32.9-14.7,32.9-32.9C331.7,535.9,317,521.2,298.8,521.2"/>
		<path class="st30" d="M289.6,579.5c-0.2-3-2.8-5.2-5.8-5c-0.3,0-0.6,0.1-0.8,0.1c0.1,0.4,0.2,0.8,0.2,1.2c0.2,2.3-1.1,4.4-3.1,5.3
			c2.1,1.4,4.3,2.6,6.6,3.5C288.6,583.7,289.8,581.7,289.6,579.5"/>
		<path class="st29" d="M283,574.6c-0.6-1.9-2.1-3.3-4-3.7c0-0.3,0-0.6,0-1c-0.2-2-1.4-3.7-3.2-4.5c0.3-0.7,0.4-1.5,0.4-2.4
			c-0.1-1.7-1-3.1-2.2-4c0.7-1,1.1-2.3,1-3.6c-0.1-1.6-1-3.1-2.2-4c1.1-1.1,1.8-2.6,1.7-4.3c-0.1-1-0.4-1.9-1-2.7
			c2.5-0.6,4.3-3,4.1-5.6c-0.2-2.6-2.2-4.7-4.8-5c-3.8,4.9-6.2,10.8-6.8,17.3c-0.1,0.9-0.1,1.9-0.1,2.8c0,2.1,0.2,4.2,0.6,6.2
			c0,0,0,0,0,0c0,0,0,0,0,0c1.5,8.1,6.1,15.1,12.4,19.9c0-0.1,0-0.2,0-0.3c0,0.1,0,0.2,0,0.3c0.4,0.3,0.8,0.6,1.2,0.9
			c2-0.9,3.3-3,3.1-5.3C283.2,575.4,283.1,575,283,574.6"/>
		<path class="st31" d="M332.6,554.2H331c0-17.7-14.4-32-32-32c-17.7,0-32,14.4-32,32h-1.6c0-18.6,15.1-33.7,33.7-33.7
			S332.6,535.7,332.6,554.2"/>
		<path class="st28" d="M389.2,569c-0.2-0.4-0.8-0.5-1.1-0.2l-31.8,20.6c-0.4,0.2-0.5,0.8-0.2,1.1c0.2,0.2,0.4,0.4,0.7,0.4
			c0.2,0,0.3,0,0.4-0.1l31.8-20.6C389.3,569.8,389.4,569.3,389.2,569"/>
		<path class="st29" d="M390.1,569.3c0,0.9-0.7,1.6-1.6,1.6c-0.9,0-1.6-0.7-1.6-1.6c0-0.9,0.7-1.6,1.6-1.6
			C389.3,567.6,390.1,568.4,390.1,569.3"/>
		<path class="st28" d="M378.5,502.1h-10.3c-5.6,0-10.9,1-15.8,2.9l6,2.7c1.9,0.8,2.8,3,1.9,4.9c-0.8,1.9-3,2.8-4.9,1.9l-10.7-4.7
			c-0.3-0.1-0.6-0.3-0.8-0.5c-2.2,1.4-4.2,3-6.1,4.8c0.2,0,0.3,0,0.5-0.1c2.5-0.2,4.6,1.3,5.5,3.5c0.5-0.2,1-0.3,1.6-0.4
			c2.4-0.2,4.5,1.2,5.4,3.4c0.5-0.2,1.1-0.4,1.7-0.4c2.4-0.2,4.5,1.2,5.4,3.4c0.5-0.2,1.1-0.4,1.7-0.4c2.6-0.2,4.8,1.4,5.5,3.8
			c0.4-0.1,0.9-0.2,1.3-0.3c2.6-0.2,4.9,1.5,5.6,3.9c0.4-0.1,0.8-0.2,1.3-0.3c2.6-0.2,4.9,1.5,5.6,3.9c0.4-0.1,0.8-0.2,1.3-0.3
			c1.2-0.1,2.3,0.2,3.3,0.8c0-0.1,0-0.2,0-0.4V507C383.5,504.3,381.2,502.1,378.5,502.1"/>
		<path class="st32" d="M355.5,514.5c1.9,0.8,4.1,0,4.9-1.9c0.8-1.9,0-4.1-1.9-4.9l-6-2.7c-3,1.1-5.8,2.6-8.5,4.3
			c0.2,0.2,0.5,0.4,0.8,0.5L355.5,514.5z"/>
		<path class="st30" d="M369.1,544l-10.7-4.7c-1.9-0.8-4.1,0-4.9,1.9c-0.8,1.9,0,4.1,1.9,4.9l10.7,4.7c1.9,0.8,4.1,0,4.9-1.9
			C371.8,547.1,371,544.9,369.1,544"/>
		<path class="st33" d="M352.4,547.7l-3.8-1.7c-0.7-0.3-1.5,0-1.8,0.7c-0.3,0.7,0,1.5,0.7,1.8l3.8,1.7c0.7,0.3,1.5,0,1.8-0.7
			C353.3,548.7,353,548,352.4,547.7"/>
		<path class="st32" d="M371.3,517.4c0,2.1-1.7,3.9-3.9,3.9c-2.1,0-3.9-1.7-3.9-3.9c0-2.1,1.7-3.9,3.9-3.9
			C369.6,513.5,371.3,515.2,371.3,517.4"/>
		<path class="st32" d="M363.6,558c0,1.1-0.9,1.9-1.9,1.9c-1.1,0-1.9-0.9-1.9-1.9s0.9-1.9,1.9-1.9
			C362.7,556.1,363.6,556.9,363.6,558"/>
		<path class="st32" d="M286.6,535.4c0.6,0.9,0.5,2.1-0.4,2.7c-0.9,0.6-2.1,0.5-2.7-0.4c-0.6-0.9-0.5-2.1,0.4-2.7
			C284.8,534.3,286,534.5,286.6,535.4"/>
		<path class="st32" d="M293.3,529.4c1.6,0.4,2.5,2.1,2.1,3.7c-0.4,1.6-2.1,2.5-3.7,2.1c-1.6-0.4-2.5-2.1-2.1-3.7
			C290.1,530,291.7,529,293.3,529.4"/>
		<path class="st32" d="M301,530.8c1,0.3,1.7,1.3,1.4,2.4c-0.3,1-1.3,1.7-2.4,1.4c-1-0.3-1.7-1.3-1.4-2.4S299.9,530.5,301,530.8"/>
		<path class="st28" d="M272.1,543.6c0,0.6-0.5,1.1-1.1,1.1s-1-0.5-1-1.1c0-0.6,0.5-1.1,1-1.1S272.1,543,272.1,543.6"/>
		<path class="st28" d="M269.7,551.2c-0.4,0.4-1.1,0.5-1.5,0.1c-0.4-0.4-0.5-1.1-0.1-1.5c0.4-0.4,1.1-0.5,1.5-0.1
			C270.1,550.1,270.1,550.8,269.7,551.2"/>
		<path class="st28" d="M269.7,558.1c-0.4,0.4-1.1,0.5-1.5,0.1c-0.4-0.4-0.5-1.1-0.1-1.5c0.4-0.4,1.1-0.5,1.5-0.1
			C270.1,557,270.1,557.7,269.7,558.1"/>
		<path class="st28" d="M271,564.7c-0.4,0.4-1.1,0.5-1.5,0.1c-0.4-0.4-0.5-1.1-0.1-1.5c0.4-0.4,1.1-0.5,1.5-0.1
			C271.4,563.6,271.4,564.2,271,564.7"/>
		<path class="st28" d="M273.9,569.8c-0.4,0.4-1.1,0.5-1.5,0.1c-0.4-0.4-0.5-1.1-0.1-1.5c0.4-0.4,1.1-0.5,1.5-0.1
			C274.3,568.8,274.3,569.4,273.9,569.8"/>
		<path class="st28" d="M276.9,574.3c-0.4,0.4-1.1,0.5-1.5,0.1c-0.4-0.4-0.5-1.1-0.1-1.5s1.1-0.5,1.5-0.1
			C277.2,573.2,277.3,573.9,276.9,574.3"/>
		<rect x="320.9" y="558.6" class="st34" width="2.8" height="9.9"/>
		<path class="st35" d="M341.6,519.2c0,1.6-1.3,2.9-2.9,2.9c-1.6,0-2.9-1.3-2.9-2.9s1.3-2.9,2.9-2.9
			C340.2,516.3,341.6,517.6,341.6,519.2"/>
		<path class="st31" d="M352.6,597.7h-61.7c-2.9,0-5.3-2.4-5.3-5.3c0-2.9,2.4-5.3,5.3-5.3h61.7c2.9,0,5.3,2.4,5.3,5.3
			C357.9,595.2,355.5,597.7,352.6,597.7"/>
	</g>
	<polygon class="st36" points="236.5,288 236.5,450.2 252.6,450.2 268.6,450.2 274.6,450.2 284.6,450.2 290.5,450.2 300.1,450.2 
		306.6,450.2 322,450.2 386.4,450.2 386.4,288 	"/>
	<g>
		<path class="st37" d="M299.2,428c0-1.4,0.6-2.6,1.5-3.5c-0.9-0.9-2.1-1.4-3.4-1.4c-2.7,0-4.9,2.2-4.9,4.9s2.2,4.9,4.9,4.9
			c1.3,0,2.5-0.5,3.4-1.4C299.8,430.5,299.2,429.3,299.2,428z"/>
		<path class="st37" d="M306.1,428c0-1.4,0.6-2.6,1.5-3.5c-0.9-0.9-2.1-1.4-3.4-1.4c-1.3,0-2.5,0.5-3.4,1.4c0.9,0.9,1.5,2.1,1.5,3.5
			c0,1.4-0.6,2.6-1.5,3.5c0.9,0.9,2.1,1.4,3.4,1.4c1.3,0,2.5-0.5,3.4-1.4C306.6,430.5,306.1,429.3,306.1,428z"/>
		<path class="st37" d="M302.1,428c0-1.4-0.6-2.6-1.5-3.5c-0.9,0.9-1.5,2.1-1.5,3.5c0,1.4,0.6,2.6,1.5,3.5
			C301.6,430.5,302.1,429.3,302.1,428z"/>
		<path class="st37" d="M312.9,428c0-1.4,0.6-2.6,1.5-3.5c-0.9-0.9-2.1-1.4-3.4-1.4c-1.3,0-2.5,0.5-3.4,1.4c0.9,0.9,1.5,2.1,1.5,3.5
			c0,1.4-0.6,2.6-1.5,3.5c0.9,0.9,2.1,1.4,3.4,1.4c1.3,0,2.5-0.5,3.4-1.4C313.5,430.5,312.9,429.3,312.9,428z"/>
		<path class="st37" d="M309,428c0-1.4-0.6-2.6-1.5-3.5c-0.9,0.9-1.5,2.1-1.5,3.5c0,1.4,0.6,2.6,1.5,3.5
			C308.4,430.5,309,429.3,309,428z"/>
		<path class="st37" d="M319.8,428c0-1.4,0.6-2.6,1.5-3.5c-0.9-0.9-2.1-1.4-3.4-1.4h0c-1.3,0-2.5,0.5-3.4,1.4
			c0.9,0.9,1.5,2.1,1.5,3.5c0,1.4-0.6,2.6-1.5,3.5c0.9,0.9,2.1,1.4,3.4,1.4h0c1.3,0,2.5-0.5,3.4-1.4
			C320.4,430.5,319.8,429.3,319.8,428z"/>
		<path class="st37" d="M315.9,428c0-1.4-0.6-2.6-1.5-3.5c-0.9,0.9-1.5,2.1-1.5,3.5c0,1.4,0.6,2.6,1.5,3.5
			C315.3,430.5,315.9,429.3,315.9,428z"/>
		<path class="st37" d="M326.7,428c0-1.4,0.6-2.6,1.5-3.5c-0.9-0.9-2.1-1.4-3.4-1.4c-1.3,0-2.5,0.5-3.4,1.4c0.9,0.9,1.5,2.1,1.5,3.5
			c0,1.4-0.6,2.6-1.5,3.5c0.9,0.9,2.1,1.4,3.4,1.4c1.3,0,2.5-0.5,3.4-1.4C327.2,430.5,326.7,429.3,326.7,428z"/>
		<path class="st37" d="M322.7,428c0-1.4-0.6-2.6-1.5-3.5c-0.9,0.9-1.5,2.1-1.5,3.5c0,1.4,0.6,2.6,1.5,3.5
			C322.2,430.5,322.7,429.3,322.7,428z"/>
		<path class="st37" d="M333.5,428c0-1.4,0.6-2.6,1.5-3.5c-0.9-0.9-2.1-1.4-3.4-1.4c-1.3,0-2.5,0.5-3.4,1.4c0.9,0.9,1.5,2.1,1.5,3.5
			c0,1.4-0.6,2.6-1.5,3.5c0.9,0.9,2.1,1.4,3.4,1.4c1.3,0,2.5-0.5,3.4-1.4C334.1,430.5,333.5,429.3,333.5,428z"/>
		<path class="st37" d="M329.6,428c0-1.4-0.6-2.6-1.5-3.5c-0.9,0.9-1.5,2.1-1.5,3.5c0,1.4,0.6,2.6,1.5,3.5
			C329,430.5,329.6,429.3,329.6,428z"/>
		<path class="st37" d="M336.4,428c0-1.4-0.6-2.6-1.5-3.5c-0.9,0.9-1.5,2.1-1.5,3.5c0,1.4,0.6,2.6,1.5,3.5
			C335.9,430.5,336.4,429.3,336.4,428z"/>
	</g>
	<g>
		<circle class="st10" cx="281.5" cy="368.7" r="2.2"/>
		<circle class="st10" cx="272.3" cy="377.9" r="2.2"/>
		<circle class="st10" cx="263.1" cy="387.2" r="2.2"/>
		<circle class="st10" cx="253.8" cy="396.4" r="2.2"/>
	</g>
	
		<rect x="302.8" y="329.5" transform="matrix(-0.7071 -0.7071 0.7071 -0.7071 301.63 789.8292)" class="st23" width="23.1" height="5.9"/>
	
		<rect x="362.2" y="420" transform="matrix(0.7071 -0.7071 0.7071 0.7071 -189.6337 388.0028)" class="st0" width="22.7" height="5.8"/>
	<path class="st0" d="M293.2,345.8v-29.7c0-4.1-3.3-7.4-7.4-7.4c-4.1,0-7.4,3.3-7.4,7.4v29.7c0,4.1,3.3,7.4,7.4,7.4
		C289.9,353.2,293.2,349.9,293.2,345.8z"/>
	<circle class="st10" cx="342.4" cy="383.3" r="28"/>
	<path class="st23" d="M274.4,450.2v-31.5c0-4.8-3.9-8.7-8.7-8.7h0c-4.8,0-8.7,3.9-8.7,8.7v31.5H274.4z"/>
	<g>
		<path class="st37" d="M261.5,340c-5.3-6.4-4.4-15.9,2-21.2c6.4-5.3,15.9-4.4,21.2,2l-0.7,0.6c-4.9-6-13.8-6.8-19.8-1.9
			c-2.9,2.4-4.7,5.8-5.1,9.5c-0.4,3.7,0.8,7.4,3.1,10.3L261.5,340z"/>
	</g>
	<path class="st38" d="M359,367.3v-21.2c0-2.9-2.4-5.3-5.3-5.3c-2.9,0-5.3,2.4-5.3,5.3v21.2c0,2.9,2.4,5.3,5.3,5.3
		C356.6,372.6,359,370.2,359,367.3z"/>
	<path class="st10" d="M391.1,360.5c-3.1-1.7-5.9-3.9-8.5-6.3c-8.6-8.1-13.6-19.2-13.9-31c-0.4-14,5.7-26.7,15.6-35.1h-4.5
		c-9.1,8.9-14.6,21.5-14.2,35.2c0.5,17.8,10.8,33,25.5,40.7V360.5z"/>
	<circle class="st37" cx="341.2" cy="320.1" r="10.5"/>
	<circle class="st38" cx="294.8" cy="403.8" r="9.9"/>
	<path class="st38" d="M237.2,347.8c-0.4,0-0.8,0-1.2,0.1v39.3c0.4,0,0.8,0.1,1.2,0.1c10.9,0,19.7-8.8,19.7-19.7
		C256.9,356.6,248.1,347.8,237.2,347.8z"/>
	<path class="st23" d="M251.9,288.2v5.8c0,8,6.5,14.6,14.6,14.6c8,0,14.6-6.5,14.6-14.6v-5.8H251.9z"/>
</g>
<g>
	<g>
		<path class="st39" d="M1273.6,585.5l-18.4-37.6c-4.2-8.6-16.4-8.6-20.7-0.1l-13.2,26.3c-1.7,3.4,0.1,7.6,3.8,8.6l41.5,11.3
			c2,0.5,4.1,0,5.6-1.3l0,0C1274.3,591,1274.9,588,1273.6,585.5z"/>
	</g>
	<g>
		<path class="st0" d="M1299.8,506.7l-42.8,11.2c-5.6,1.5-8.4,7.7-5.9,12.9l15.2,30.9l2.3,4.6l11,22.4c1.3,2.7,4,4.6,7,5l0,0
			c3.4,0.5,6.7-1.1,8.7-3.8c0.4-0.5,0.7-1.1,1-1.7l7.6-18.2l4-9.6l0.3-0.7l1.9-4.6l4.8-11.5l5.6-13.5
			C1325.7,516.9,1313.7,503,1299.8,506.7z"/>
	</g>
	<g>
		<path class="st0" d="M1305.3,570.6l-3.6-1.5l16.5-39.8c2.3-5.5,1.3-11.5-2.6-16c-3.9-4.5-9.7-6.3-15.5-4.8l-42.8,11.2
			c-2.1,0.5-3.8,2-4.7,3.9c-0.9,2-0.9,4.2,0.1,6.1l-3.5,1.7c-1.5-3-1.5-6.5-0.1-9.5c1.4-3,4-5.3,7.3-6.1l42.8-11.2
			c7.1-1.9,14.6,0.4,19.5,6c4.9,5.6,6.1,13.3,3.3,20.1L1305.3,570.6z"/>
	</g>
	<g>
		<path class="st8" d="M1286.3,593.7"/>
	</g>
	<g>
		<path class="st0" d="M1273.6,585.5l-18.4-37.6c-4.2-8.6-16.4-8.6-20.7-0.1l-13.2,26.3c-1.7,3.4,0.1,7.6,3.8,8.6l41.5,11.3
			c2,0.5,4.1,0,5.6-1.3l2.9,1.1C1277.1,592,1274.9,588,1273.6,585.5z"/>
	</g>
	<g>
		<g>
			<line class="st0" x1="1303" y1="592.2" x2="1331.6" y2="573.7"/>
		</g>
		<g>
			<path class="st0" d="M1303,592.9c-0.2,0-0.5-0.1-0.6-0.3c-0.2-0.3-0.1-0.8,0.2-1l28.6-18.5c0.3-0.2,0.8-0.1,1,0.2
				c0.2,0.3,0.1,0.8-0.2,1l-28.6,18.5C1303.3,592.9,1303.1,592.9,1303,592.9z"/>
		</g>
	</g>
	<g>
		<path class="st0" d="M1299.5,599.1h-55.7c-2.6,0-4.7-2.1-4.7-4.7v-0.3c0-2.6,2.1-4.7,4.7-4.7h55.7c2.6,0,4.7,2.1,4.7,4.7v0.3
			C1304.1,597,1302,599.1,1299.5,599.1z"/>
	</g>
	<path class="st16" d="M1305.1,532.6c-3.7-1.4-7.8,0.5-9.2,4.2l-13.5,35.8c-1.4,3.7,0.5,7.8,4.2,9.2v0c3.7,1.4,7.8-0.5,9.2-4.2
		l13.5-35.8C1310.7,538.1,1308.8,534,1305.1,532.6z"/>
	<g>
		<path class="st40" d="M1281.2,564l-10.6-24.6c-0.9-2.1-3.4-3.1-5.5-2.2c-2.1,0.9-3.1,3.4-2.2,5.5l10.6,24.6
			c0.9,2.1,3.4,3.1,5.5,2.2h0C1281.2,568.6,1282.2,566.1,1281.2,564z"/>
	</g>
	<path class="st9" d="M1285.2,553.9l-6.9-16c-0.1-0.1-0.1-0.2-0.2-0.4l-5.2-12.1c-0.6-1.4-2.2-2-3.6-1.4c-1.4,0.6-2,2.2-1.4,3.6
		l6.9,16c0.1,0.1,0.1,0.2,0.2,0.4l5.2,12.1c0.6,1.4,2.2,2,3.6,1.4S1285.8,555.3,1285.2,553.9z"/>
	<path class="st9" d="M1289.1,544.6l-6.9-16c0,0-0.1-0.1-0.1-0.1l-2.1-4.9c-0.6-1.4-2.2-2-3.6-1.4s-2,2.2-1.4,3.6l6.9,16
		c0,0,0.1,0.1,0.1,0.1l2.1,4.9c0.6,1.4,2.2,2,3.6,1.4l0,0C1289.1,547.6,1289.7,546,1289.1,544.6z"/>
	<g>
		<path class="st9" d="M1293.1,536.3l-6.5-14.7c-0.6-1.3-2.1-1.9-3.4-1.3c-1.3,0.6-1.9,2-1.3,3.3l6.5,14.7c0.6,1.3,2.1,1.9,3.4,1.3
			l0,0C1293.1,539.1,1293.7,537.6,1293.1,536.3z"/>
	</g>
	<g>
		<circle class="st10" cx="1258.8" cy="522" r="2.2"/>
	</g>
	<g>
		<circle class="st10" cx="1265.4" cy="520.3" r="2.2"/>
	</g>
	<g>
		<circle class="st10" cx="1272" cy="518.5" r="2.2"/>
	</g>
	<g>
		<circle class="st10" cx="1278.6" cy="516.7" r="2.2"/>
	</g>
	<g>
		<circle class="st10" cx="1285.2" cy="514.9" r="2.2"/>
	</g>
	<g>
		<circle class="st10" cx="1291.7" cy="513.1" r="2.2"/>
	</g>
	<g>
		<circle class="st40" cx="1262.7" cy="531.1" r="4.4"/>
	</g>
	<g>
		<path class="st10" d="M1293.6,520.9l-2.3,0.9c-0.7,0.3-1.6-0.1-1.9-0.8l0-0.1c-0.3-0.7,0.1-1.6,0.8-1.9l2.3-0.9
			c0.7-0.3,1.6,0.1,1.9,0.8l0,0.1C1294.7,519.7,1294.4,520.6,1293.6,520.9z"/>
	</g>
	<g>
		<path class="st10" d="M1295.4,525.1l-2.3,0.9c-0.7,0.3-1.6-0.1-1.9-0.8l0-0.1c-0.3-0.7,0.1-1.6,0.8-1.9l2.3-0.9
			c0.7-0.3,1.6,0.1,1.9,0.8l0,0.1C1296.5,524,1296.1,524.8,1295.4,525.1z"/>
	</g>
	<g>
		<path class="st10" d="M1297.1,529.4l-2.3,0.9c-0.7,0.3-1.6-0.1-1.9-0.8l0-0.1c-0.3-0.7,0.1-1.6,0.8-1.9l2.3-0.9
			c0.7-0.3,1.6,0.1,1.9,0.8l0,0.1C1298.2,528.3,1297.9,529.1,1297.1,529.4z"/>
	</g>
	<g>
		<polygon class="st16" points="1306.4,509.6 1297.1,517.1 1301.3,528.2 1313.2,527.6 1316.3,516.1 		"/>
	</g>
	<g>
		<polygon class="st9" points="1242.2,553.1 1239.8,560.2 1245.8,564.7 1252,560.4 1249.7,553.2 		"/>
	</g>
	<g>
		<path class="st9" d="M1243.7,579.8c0.4-0.7,0.7-1.4,0.9-2.1l1.2-2.9l-1.4-8.1l-7.8-5.1l-7.6-0.7l-0.2,0.5
			c-0.4,0.1-0.9,0.3-1.3,0.5l-6.2,12.4c-1.7,3.4,0.1,7.6,3.8,8.6l1.6,0.4l0,0l3.7,1l6,1.6l0,0l4.1,1.1L1243.7,579.8z"/>
	</g>
	<g>
		<polygon class="st9" points="1252.9,562.3 1246.5,566.3 1248.2,573.6 1255.8,574.2 1258.6,567.2 		"/>
	</g>
	<g>
		<polygon class="st9" points="1248.3,575.5 1245.3,582.4 1251,587.4 1257.5,583.6 1255.8,576.2 		"/>
	</g>
	<g>
		<path class="st0" d="M1224.6,584.7c-2.3-0.6-4.2-2.3-5.2-4.5c-1-2.2-0.9-4.7,0.2-6.9l13.2-26.3c2.3-4.6,6.9-7.5,12.1-7.5
			c0,0,0,0,0.1,0c5.2,0,9.8,2.9,12.1,7.6l-3.5,1.7c-1.6-3.3-4.8-5.3-8.6-5.4c0,0,0,0,0,0c-3.7,0-6.9,2-8.6,5.3l-13.2,26.3
			c-0.6,1.1-0.6,2.4-0.1,3.5c0.5,1.1,1.5,2,2.7,2.3L1224.6,584.7z"/>
	</g>
	<g>
		<circle class="st10" cx="1234.7" cy="557.3" r="1.6"/>
	</g>
	<g>
		<circle class="st10" cx="1237.2" cy="553.2" r="1.6"/>
	</g>
	<g>
		<circle class="st10" cx="1239.7" cy="549" r="1.6"/>
	</g>
	<g>
		<circle class="st10" cx="1242.2" cy="544.9" r="1.6"/>
	</g>
	<g>
		<polygon class="st9" points="1242.6,587.6 1244.3,584.5 1249.7,589.5 		"/>
	</g>
	<g>
		<circle class="st10" cx="1274.4" cy="593" r="1.3"/>
	</g>
	<g>
		<circle class="st10" cx="1278.5" cy="594.7" r="1.3"/>
	</g>
	<g>
		<circle class="st10" cx="1282.6" cy="593" r="1.3"/>
	</g>
	<g>
		<circle class="st10" cx="1286.7" cy="594.7" r="1.3"/>
	</g>
	<g>
		<circle class="st10" cx="1290.8" cy="593" r="1.3"/>
	</g>
	<g>
		<circle class="st10" cx="1294.9" cy="594.7" r="1.3"/>
	</g>
	<g>
		<circle class="st10" cx="1299" cy="593" r="1.3"/>
	</g>
	<g>
		<circle class="st10" cx="1245.9" cy="594.7" r="1.3"/>
	</g>
	<g>
		<circle class="st10" cx="1250" cy="593" r="1.3"/>
	</g>
	<g>
		<circle class="st10" cx="1254.1" cy="594.7" r="1.3"/>
	</g>
	<g>
		<circle class="st10" cx="1258.2" cy="593" r="1.3"/>
	</g>
	<g>
		<circle class="st10" cx="1262.3" cy="594.7" r="1.3"/>
	</g>
	<g>
		<circle class="st10" cx="1266.4" cy="593" r="1.3"/>
	</g>
	<g>
		<circle class="st10" cx="1270.4" cy="594.7" r="1.3"/>
	</g>
	<g>
		<defs>
			
				<rect id="SVGID_3_" x="1179.7" y="293.7" transform="matrix(6.123234e-17 -1 1 6.123234e-17 891.2931 1629.7069)" width="161.6" height="151"/>
		</defs>
		<clipPath id="SVGID_4_">
			<use xlink:href="#SVGID_3_"  style="overflow:visible;"/>
		</clipPath>
		
			<rect x="1179.7" y="293.7" transform="matrix(6.123234e-17 -1 1 6.123234e-17 891.2931 1629.7069)" class="st41" width="161.6" height="151"/>
		<g class="st42">
			<path class="st10" d="M1216.3,455.3l-2.4-1l10.7-25.8c1.5-3.6,0.8-7.5-1.7-10.4c-2.5-2.9-6.3-4.1-10-3.1l-27.8,7.3
				c-1.4,0.4-2.5,1.3-3,2.6c-0.6,1.3-0.6,2.7,0.1,4l-2.3,1.1c-1-1.9-1-4.2-0.1-6.2c0.9-2,2.6-3.4,4.7-4l27.8-7.3
				c4.6-1.2,9.5,0.3,12.6,3.9c3.1,3.6,4,8.6,2.1,13L1216.3,455.3z"/>
		</g>
		<g class="st42">
			<polygon class="st9" points="1194.4,384.6 1185.1,392.1 1189.3,403.2 1201.2,402.6 1204.3,391.1 			"/>
		</g>
		<g class="st42">
			<polygon class="st16" points="1219.3,349.5 1210,380.4 1236.4,398.8 1262.1,379.3 1251.5,348.8 			"/>
		</g>
		<path class="st43" d="M1302,319L1302,319c-6.8,0-12.3,5.5-12.3,12.3v39.4c0,6.8,5.5,12.3,12.3,12.3h0c6.8,0,12.3-5.5,12.3-12.3
			v-39.4C1314.3,324.5,1308.8,319,1302,319z"/>
		<g class="st42">
			<path class="st9" d="M1322.9,399.8c0-1.3-0.5-2.5-1.4-3.3c-0.8-0.8-2-1.4-3.3-1.4c-1.3,0-2.5,0.5-3.3,1.4s-1.4,2-1.4,3.3l0,50.2
				h9.3V399.8z"/>
			<path class="st9" d="M1302.4,396.5c-0.8-0.8-2-1.4-3.3-1.4c-1.3,0-2.5,0.5-3.3,1.4s-1.4,2-1.4,3.3V450h9.3v-50.2
				C1303.7,398.5,1303.2,397.3,1302.4,396.5z"/>
			<path class="st9" d="M1283.1,396.5c-0.8-0.8-2-1.4-3.3-1.4s-2.5,0.5-3.3,1.4c-0.8,0.8-1.4,2-1.4,3.3V450h9.3v-50.2
				C1284.5,398.5,1284,397.3,1283.1,396.5z"/>
		</g>
		<circle class="st44" cx="1199.8" cy="303.1" r="25.9"/>
		<g class="st42">
			<g>
				<circle class="st10" cx="1325.5" cy="330.7" r="3.9"/>
			</g>
			<g>
				<circle class="st10" cx="1228.9" cy="330.7" r="3.9"/>
			</g>
			<g>
				<circle class="st10" cx="1253.1" cy="330.7" r="3.9"/>
			</g>
			<g>
				<circle class="st10" cx="1277.4" cy="330.7" r="3.9"/>
			</g>
		</g>
		<path class="st44" d="M1268,362.6L1268,362.6c0.1-2.4-1.8-4.4-4.2-4.5l-13.9-0.4c-2.4-0.1-4.4,1.8-4.5,4.2v0
			c-0.1,2.4,1.8,4.4,4.2,4.5l13.9,0.4C1266,366.9,1268,365,1268,362.6z"/>
		<path class="st43" d="M1244.8,414.5L1244.8,414.5c-2.5,1.4-3.4,4.6-2,7.1l8.1,14.7c1.4,2.5,4.6,3.4,7.1,2l0,0
			c2.5-1.4,3.4-4.6,2-7.1l-8.1-14.7C1250.5,414,1247.3,413.1,1244.8,414.5z"/>
		<g class="st42">
			<path class="st16" d="M1313,288c1.2,2.9,0.3,11.3-1.2,14c-1.5,2.7-4.1,4.7-7.1,5.3l-37.2,7.3c-6.5,1.3-13-1.2-17.1-6.4
				c0,0,0,0,0-0.1c-4.1-5.3-4.3-14.2-1.4-20.2l8,1c-2.1,4.3-8,8-2.6,16.1c0,0,0,0,0,0c2.9,3.8,7.4,5.4,12.1,4.5l37.2-7.3
				c1.6-0.3,2.9-1.3,3.6-2.7c0.7-1.4-0.7-10.2-1.4-11.6H1313z"/>
		</g>
	</g>
</g>
<g>
	<path class="st45" d="M611.9,709.6c0-2.7-2.2-4.8-4.8-4.8H597c-24.1,0-43.7,19.5-43.7,43.7v36.7c0,2.7,2.2,4.8,4.8,4.8h0
		c13.7,0,26.2-5.1,35.7-13.6l-8.3-9l3.1-2.9l8.2,9c9.3-9.7,14.9-22.8,14.9-37.2V709.6z"/>
</g>
<g>
	<path class="st18" d="M585.7,767.3l8.3,9c1.1-0.9,2.1-1.9,3.1-2.9l-8.2-9L585.7,767.3z"/>
</g>
<g>
	<g>
		<line class="st0" x1="585.7" y1="790.9" x2="616.9" y2="770.7"/>
	</g>
	<g>
		<path class="st0" d="M585.7,791.7c-0.3,0-0.5-0.1-0.7-0.4c-0.2-0.4-0.1-0.9,0.2-1.1l31.2-20.2c0.4-0.2,0.9-0.1,1.1,0.2
			c0.2,0.4,0.1,0.9-0.2,1.1l-31.2,20.2C586,791.6,585.8,791.7,585.7,791.7z"/>
	</g>
</g>
<g>
	<g>
		<g>
			<circle class="st45" cx="529" cy="755.7" r="32.2"/>
		</g>
	</g>
</g>
<g>
	<g>
		<path class="st10" d="M564.6,727.7L564.6,727.7c2,1.5,4.6,1.5,6.5,0.2l0,0.1c-1.9,2.5-1.4,6.1,1.2,8c2.5,1.9,6.1,1.4,8-1.2
			l0.8-1.1c-1.2,2.4-0.5,5.4,1.7,7.1c1.9,1.4,4.4,1.5,6.4,0.3l-2.6,3.5c-1.9,2.5-1.4,6.1,1.2,8c2.5,1.9,6.1,1.4,8-1.2l1.9-2.6
			c-1.3,2.4-0.6,5.5,1.6,7.2c2.5,1.9,6.1,1.4,8-1.2l2.4-3.2c1.5-5,2.3-10.3,2.3-15.7v-4.6c-1.2,0.3-2.3,1-3,2.1l-1.9,2.6
			c1.3-2.4,0.6-5.5-1.6-7.2c-1.9-1.4-4.4-1.5-6.4-0.3l2.6-3.5c1.9-2.5,1.4-6.1-1.2-8c-2.5-1.9-6.1-1.4-8,1.2l-0.8,1.1
			c1.2-2.4,0.5-5.4-1.7-7.1c-2-1.5-4.6-1.5-6.5-0.2l0-0.1c1.2-1.6,1.4-3.7,0.7-5.5c-8.8,2.7-16.3,8.1-21.8,15.2
			C561.9,723.8,562.7,726.3,564.6,727.7z"/>
	</g>
</g>
<g>
	<path class="st9" d="M595.8,763.3l-4.8-5.3c-0.8-0.9-2.1-0.9-3-0.2c-0.9,0.8-0.9,2.1-0.2,3l4.8,5.3c0.8,0.9,2.1,0.9,3,0.2
		C596.5,765.5,596.6,764.2,595.8,763.3z"/>
	<path class="st9" d="M582.7,766c-0.8-0.9-2.1-0.9-3-0.2c-0.9,0.8-0.9,2.1-0.2,3l4.8,5.3c0.8,0.9,2.1,0.9,3,0.2
		c0.9-0.8,0.9-2.1,0.2-3L582.7,766z"/>
</g>
<g>
	<path class="st0" d="M584.2,773l-0.5,0.5c-0.2,0.2-0.5,0.2-0.8,0l-2.8-2.8c-0.2-0.2-0.2-0.5,0-0.8l0.5-0.5c0.2-0.2,0.5-0.2,0.8,0
		l2.8,2.8C584.4,772.4,584.4,772.8,584.2,773z"/>
</g>
<g>
	<path class="st0" d="M591.4,759.1l0.5-0.5c0.2-0.2,0.5-0.2,0.8,0l2.8,2.8c0.2,0.2,0.2,0.5,0,0.8l-0.5,0.5c-0.2,0.2-0.5,0.2-0.8,0
		l-2.8-2.8C591.2,759.7,591.2,759.3,591.4,759.1z"/>
</g>
<g>
	<circle class="st40" cx="511.8" cy="767.6" r="4.1"/>
	<path class="st0" d="M511.8,772.3c-2.6,0-4.7-2.1-4.7-4.7c0-2.6,2.1-4.7,4.7-4.7s4.7,2.1,4.7,4.7
		C516.5,770.2,514.4,772.3,511.8,772.3z M511.8,764c-2,0-3.6,1.6-3.6,3.6c0,2,1.6,3.6,3.6,3.6c2,0,3.6-1.6,3.6-3.6
		C515.4,765.6,513.8,764,511.8,764z"/>
</g>
<g>
	<circle class="st0" cx="511.8" cy="767.5" r="2.1"/>
</g>
<g>
	<circle class="st40" cx="601.6" cy="743.1" r="2.9"/>
	<path class="st0" d="M601.6,746.6c-1.9,0-3.4-1.5-3.4-3.4c0-1.9,1.5-3.4,3.4-3.4s3.4,1.5,3.4,3.4C605,745,603.5,746.6,601.6,746.6z
		 M601.6,740.8c-1.3,0-2.4,1.1-2.4,2.4c0,1.3,1.1,2.4,2.4,2.4s2.4-1.1,2.4-2.4C603.9,741.8,602.9,740.8,601.6,740.8z"/>
</g>
<g>
	<circle class="st0" cx="601.6" cy="743.1" r="1.5"/>
</g>
<g>
	<circle class="st40" cx="520.7" cy="745.3" r="11.2"/>
	<path class="st0" d="M520.7,757.1c-6.5,0-11.7-5.2-11.7-11.7c0-6.5,5.2-11.7,11.7-11.7s11.7,5.2,11.7,11.7
		C532.4,751.8,527.2,757.1,520.7,757.1z M520.7,734.7c-5.9,0-10.6,4.8-10.6,10.6c0,5.9,4.8,10.6,10.6,10.6c5.9,0,10.6-4.8,10.6-10.6
		C531.4,739.5,526.6,734.7,520.7,734.7z"/>
</g>
<g>
	<circle class="st0" cx="520.8" cy="745.1" r="5.7"/>
</g>
<g>
	<g>
		<g>
			<path class="st9" d="M510.9,784c-15.7-9.8-20.5-30.5-10.7-46.2c4.7-7.6,12.2-12.9,20.9-14.9c8.7-2,17.7-0.5,25.3,4.2l-1.4,2.3
				c-7-4.4-15.3-5.8-23.3-3.9c-8,1.9-14.9,6.7-19.2,13.7c-9,14.4-4.6,33.5,9.8,42.5L510.9,784z"/>
		</g>
	</g>
</g>
<g>
	<rect x="547.4" y="755" class="st18" width="6" height="17"/>
</g>
<g>
	<path class="st18" d="M520.8,751.4v-1.1c2.9,0,5.2-2.3,5.2-5.2c0-2.9-2.3-5.2-5.2-5.2v-1.1c3.4,0,6.3,2.8,6.3,6.3
		C527.1,748.5,524.3,751.4,520.8,751.4z"/>
</g>
<g>
	<g>
		<circle class="st40" cx="575.8" cy="731.8" r="9.1"/>
		<path class="st0" d="M575.8,741.5c-5.3,0-9.6-4.3-9.6-9.6s4.3-9.6,9.6-9.6s9.6,4.3,9.6,9.6S581.1,741.5,575.8,741.5z M575.8,723.3
			c-4.7,0-8.6,3.8-8.6,8.6s3.8,8.6,8.6,8.6s8.6-3.8,8.6-8.6S580.5,723.3,575.8,723.3z"/>
	</g>
	<g>
		<circle class="st0" cx="575.8" cy="731.6" r="4.7"/>
	</g>
	<g>
		<path class="st18" d="M575.8,736.8c-2.9,0-5.2-2.3-5.2-5.2c0-2.9,2.3-5.2,5.2-5.2v1.1c-2.3,0-4.1,1.9-4.1,4.1
			c0,2.3,1.9,4.1,4.1,4.1V736.8z"/>
	</g>
</g>
<g>
	<polyline class="st5" points="558.2,790 558.2,790 558.2,790 	"/>
</g>
<g>
	<path class="st0" d="M608.7,757.6l-2-0.8c2.7-6.5,4.1-13.4,4.1-20.5v-26.7c0-0.5-0.1-1-0.3-1.5c-0.2-0.4-0.5-0.8-0.8-1.2
		c-0.3-0.3-0.7-0.6-1.2-0.8c-0.5-0.2-1-0.3-1.5-0.3H597c-5.7,0-11.3,1.1-16.6,3.3c-5.1,2.1-9.6,5.2-13.5,9.1
		c-3.9,3.9-7,8.5-9.1,13.5c-2.2,5.2-3.3,10.8-3.3,16.6h-2.1c0-6,1.2-11.9,3.5-17.4c2.3-5.3,5.5-10.1,9.6-14.2s8.9-7.3,14.2-9.6
		c5.5-2.3,11.4-3.5,17.4-3.5h10.1c0.8,0,1.6,0.2,2.3,0.5c0.7,0.3,1.3,0.7,1.9,1.3c0.5,0.5,1,1.2,1.3,1.9c0.3,0.7,0.5,1.5,0.5,2.3
		v26.7C613,743.6,611.5,750.8,608.7,757.6z"/>
</g>
<g>
	<circle class="st9" cx="594.6" cy="710.9" r="1.8"/>
</g>
<g>
	<circle class="st9" cx="600.1" cy="710.9" r="1.8"/>
</g>
<path class="st0" d="M581.7,787.9h-60.5c-2.9,0-5.2,2.4-5.2,5.2s2.4,5.2,5.2,5.2h60.5c2.9,0,5.2-2.4,5.2-5.2
	S584.6,787.9,581.7,787.9z"/>
<g>
	<defs>
		
			<rect id="SVGID_5_" x="465.3" y="100.5" transform="matrix(6.123234e-17 -1 1 6.123234e-17 369.8715 721.5424)" width="160.8" height="150.6"/>
	</defs>
	<clipPath id="SVGID_6_">
		<use xlink:href="#SVGID_5_"  style="overflow:visible;"/>
	</clipPath>
	
		<rect x="465.3" y="100.5" transform="matrix(6.123234e-17 -1 1 6.123234e-17 369.8715 721.5424)" class="st46" width="160.8" height="150.6"/>
	<path class="st47" d="M536,100.4c2,2.4,2.8,5.5,2.3,8.5c-0.6,3.1-2.4,5.7-5.2,7.2l-40.5,22.3c-6.3,3.5-13.9,3.1-19.9-1
		c-5.9-4.1-9-11.1-7.9-18.3l1.5,0.2c-1,6.7,1.7,12.9,7.3,16.8c5.5,3.8,12.4,4.2,18.3,0.9l40.5-22.3c2.3-1.3,3.9-3.5,4.4-6.1
		c0.5-2.6-0.2-5.2-1.9-7.3L536,100.4z"/>
	<circle class="st48" cx="559" cy="236" r="22"/>
	<path class="st49" d="M556,188h-50c-7.2,0-13-5.8-13-13v0c0-7.2,5.8-13,13-13h50c7.2,0,13,5.8,13,13v0C569,182.2,563.2,188,556,188
		z"/>
	<path class="st50" d="M520,115c-4.4,0-8,3.6-8,8s3.6,8,8,8s8-3.6,8-8S524.4,115,520,115z M520,128.3c-2.9,0-5.3-2.4-5.3-5.3
		c0-2.9,2.4-5.3,5.3-5.3s5.3,2.4,5.3,5.3C525.3,125.9,522.9,128.3,520,128.3z"/>
	<path class="st51" d="M599,167c-7.7,0-14,6.3-14,14s6.3,14,14,14s14-6.3,14-14S606.7,167,599,167z M599,190.3
		c-5.2,0-9.3-4.2-9.3-9.3c0-5.2,4.2-9.3,9.3-9.3s9.3,4.2,9.3,9.3C608.3,186.2,604.2,190.3,599,190.3z"/>
	<path class="st50" d="M495.8,257.5L495.8,257.5c-2.9,0-5.2-2.4-5.2-5.2v-17.5c0-2.9,2.4-5.2,5.2-5.2l0,0c2.9,0,5.2,2.4,5.2,5.2
		v17.5C501,255.1,498.6,257.5,495.8,257.5z"/>
	<g class="st52">
		<path class="st10" d="M482.5,219.3c-2.5,0.5-4.8-1.2-5.3-3.7c-0.5-2.5,1.2-4.8,3.7-5.3c2.5-0.5,4.8,1.2,5.3,3.7
			C486.6,216.5,484.9,218.9,482.5,219.3"/>
		<path class="st10" d="M498.5,221.8c-2.4-0.8-3.6-3.5-2.8-5.8c0.8-2.4,3.5-3.6,5.8-2.8c2.4,0.8,3.6,3.5,2.8,5.8
			S500.8,222.6,498.5,221.8"/>
		<path class="st10" d="M510.8,231.8c-1.7-1.9-1.6-4.7,0.3-6.4c1.9-1.7,4.7-1.6,6.4,0.3c1.7,1.9,1.6,4.7-0.3,6.4
			C515.4,233.8,512.5,233.7,510.8,231.8"/>
		<path class="st10" d="M517.7,248.6c-1.7-1.9-1.6-4.7,0.3-6.4c1.9-1.7,4.7-1.6,6.4,0.3c1.7,1.9,1.6,4.7-0.3,6.4
			C522.3,250.6,519.4,250.4,517.7,248.6"/>
	</g>
	<g class="st52">
		<path class="st4" d="M541.6,164.7L541.6,164.7c-2,0-3.6-1.6-3.6-3.6v-11.6c0-2,1.6-3.6,3.6-3.6l0,0c2,0,3.6,1.6,3.6,3.6v11.6
			C545.2,163.1,543.6,164.7,541.6,164.7z"/>
		<path class="st4" d="M518.8,164.7L518.8,164.7c-2,0-3.6-1.6-3.6-3.6v-11.6c0-2,1.6-3.6,3.6-3.6l0,0c2,0,3.6,1.6,3.6,3.6v11.6
			C522.4,163.1,520.7,164.7,518.8,164.7z"/>
		<path class="st4" d="M553,173L553,173c-2,0-3.6-1.6-3.6-3.6v-11.6c0-2,1.6-3.6,3.6-3.6l0,0c2,0,3.6,1.6,3.6,3.6v11.6
			C556.6,171.4,555,173,553,173z"/>
		<path class="st4" d="M530.2,173L530.2,173c-2,0-3.6-1.6-3.6-3.6v-11.6c0-2,1.6-3.6,3.6-3.6l0,0c2,0,3.6,1.6,3.6,3.6v11.6
			C533.8,171.4,532.2,173,530.2,173z"/>
		<path class="st4" d="M507.4,173L507.4,173c-2,0-3.6-1.6-3.6-3.6v-11.6c0-2,1.6-3.6,3.6-3.6h0c2,0,3.6,1.6,3.6,3.6v11.6
			C510.9,171.4,509.3,173,507.4,173z"/>
	</g>
	<rect x="555" y="116" transform="matrix(6.123234e-17 -1 1 6.123234e-17 430.5 685.5)" class="st51" width="6" height="23"/>
	<rect x="553.5" y="199" class="st50" width="6.2" height="23.9"/>
	<path class="st48" d="M591.6,138.3c0.5,0.8,0.3,1.8-0.5,2.3c-0.8,0.5-1.8,0.3-2.3-0.5c-0.5-0.8-0.3-1.8,0.5-2.3
		C590.1,137.3,591.1,137.5,591.6,138.3"/>
	<path class="st48" d="M600,132.9c0.5,0.8,0.3,1.8-0.5,2.3c-0.8,0.5-1.8,0.3-2.3-0.5c-0.5-0.8-0.3-1.8,0.5-2.3
		C598.5,131.9,599.5,132.1,600,132.9"/>
	<path class="st48" d="M602.7,123.5c0.5,0.8,0.3,1.8-0.5,2.3c-0.8,0.5-1.8,0.3-2.3-0.5c-0.5-0.8-0.3-1.8,0.5-2.3
		C601.2,122.5,602.2,122.7,602.7,123.5"/>
	<path class="st47" d="M621,211.7c-2.1-1.7-4.8-2.7-7.8-2.7c-6.9,0-12.6,5.6-12.6,12.6v41.9c0,6.9,5.6,12.6,12.6,12.6
		c2.9,0,5.6-1,7.8-2.7V211.7z"/>
	<path class="st50" d="M621,90.9c-1.2,0.6-2.3,1.4-3.2,2.3l-35.7,35c-5.1,5-5.2,13.3-0.2,18.4c5,5.1,13.3,5.2,18.4,0.2l20.8-20.3
		V90.9z"/>
	<rect x="492" y="88" class="st48" width="10" height="35"/>
</g>
<g>
	<defs>
		
			<rect id="SVGID_7_" x="955.3" y="504.5" transform="matrix(6.123234e-17 -1 1 6.123234e-17 455.8715 1615.5424)" width="160.8" height="150.6"/>
	</defs>
	<clipPath id="SVGID_8_">
		<use xlink:href="#SVGID_7_"  style="overflow:visible;"/>
	</clipPath>
	
		<rect x="955.3" y="504.5" transform="matrix(6.123234e-17 -1 1 6.123234e-17 455.8715 1615.5424)" class="st53" width="160.8" height="150.6"/>
	<circle class="st54" cx="1033.9" cy="578.5" r="26.5"/>
	<g class="st55">
		<path class="st11" d="M989.6,573.9c1.5,0.7,2.9,1.8,3.9,3.2c1.4,2.1,1.9,4.5,1.5,7s-1.8,4.6-3.9,6l-2.4-3.4c1.1-0.8,1.9-2,2.1-3.3
			c0.2-1.4,0-2.7-0.8-3.8c-1.6-2.3-4.8-2.9-7.1-1.3l-2.4-3.4C983.3,572.9,986.8,572.7,989.6,573.9z"/>
	</g>
	<rect x="960" y="549" class="st56" width="40" height="10"/>
	<rect x="1044.9" y="572.7" class="st57" width="29.7" height="9"/>
	<path class="st56" d="M1083,680L1083,680c-6.3,0-11.5-5.2-11.5-11.5v-61.9c0-6.3,5.2-11.5,11.5-11.5l0,0c6.3,0,11.5,5.2,11.5,11.5
		v61.9C1094.5,674.8,1089.3,680,1083,680z"/>
	<g class="st55">
		<path class="st6" d="M996.6,606.7l1.6,1.3l-11.7,15.2c-1.9,2.5-2.2,5.6-0.8,8.5c1.4,2.8,4.1,4.5,7.2,4.5l23.2,0.1
			c1.1,0,2.2-0.5,2.9-1.4s1-2,0.8-3.1l2-0.4c0.3,1.7-0.1,3.5-1.2,4.8c-1.1,1.4-2.8,2.1-4.5,2.1l-23.2-0.1c-3.9,0-7.3-2.2-9-5.7
			c-1.7-3.5-1.3-7.5,1.1-10.6L996.6,606.7z"/>
	</g>
	<path class="st58" d="M1017.2,538.9L1017.2,538.9c-2.5,1.3-5.5,0.3-6.7-2.2l-4.6-9.1c-1.3-2.5-0.3-5.5,2.2-6.7l0,0
		c2.5-1.3,5.5-0.3,6.7,2.2l4.6,9.1C1020.6,534.6,1019.6,537.6,1017.2,538.9z"/>
	<path class="st58" d="M1032.7,538.9L1032.7,538.9c-2.5,1.3-5.5,0.3-6.7-2.2l-4.6-9.1c-1.3-2.5-0.3-5.5,2.2-6.7l0,0
		c2.5-1.3,5.5-0.3,6.7,2.2l4.6,9.1C1036.1,534.6,1035.1,537.6,1032.7,538.9z"/>
	<path class="st58" d="M1048.2,538.9L1048.2,538.9c-2.5,1.3-5.5,0.3-6.7-2.2l-4.6-9.1c-1.3-2.5-0.3-5.5,2.2-6.7l0,0
		c2.5-1.3,5.5-0.3,6.7,2.2l4.6,9.1C1051.6,534.6,1050.6,537.6,1048.2,538.9z"/>
	<path class="st58" d="M1045.5,663L1045.5,663c-5.8,0-10.5-4.7-10.5-10.5v-23c0-5.8,4.7-10.5,10.5-10.5l0,0
		c5.8,0,10.5,4.7,10.5,10.5v23C1056,658.3,1051.3,663,1045.5,663z"/>
	<circle class="st58" cx="1082.5" cy="508.5" r="8.5"/>
	<path class="st59" d="M1111,544.7l-2-0.5c-1.8,7.5-9.4,12.1-16.9,10.2c-3.6-0.9-6.7-3.1-8.6-6.3c-1.9-3.2-2.5-6.9-1.6-10.6l-11-2.7
		c-1.6,6.6-0.6,13.4,2.9,19.2c3.5,5.8,9,9.9,15.6,11.5c4.7,1.2,9.4,0.9,13.7-0.5c2.9-0.9,5.5-2.3,7.9-4.2V544.7z"/>
</g>
<g>
	<defs>
		
			<rect id="SVGID_9_" x="458.3" y="493.5" transform="matrix(6.123234e-17 -1 1 6.123234e-17 -30.1285 1107.5424)" width="160.8" height="150.6"/>
	</defs>
	<clipPath id="SVGID_10_">
		<use xlink:href="#SVGID_9_"  style="overflow:visible;"/>
	</clipPath>
	
		<rect x="458.3" y="493.5" transform="matrix(6.123234e-17 -1 1 6.123234e-17 -30.1285 1107.5424)" class="st60" width="160.8" height="150.6"/>
	<circle class="st61" cx="472" cy="603" r="27"/>
	<g class="st62">
		<circle class="st9" cx="532.8" cy="513.8" r="3.2"/>
		<circle class="st9" cx="532.8" cy="526.2" r="3.2"/>
		<circle class="st9" cx="532.8" cy="538.6" r="3.2"/>
	</g>
	<g class="st62">
		<path class="st10" d="M592.8,657.6l-2.4-1c3.3-7.8,5-16,5-24.5v-31.9c0-0.6-0.1-1.2-0.4-1.8c-0.2-0.5-0.6-1-1-1.4
			c-0.4-0.4-0.9-0.7-1.4-1c-0.6-0.2-1.1-0.4-1.8-0.4h-12.1c-6.9,0-13.6,1.3-19.8,4c-6.1,2.6-11.5,6.2-16.2,10.9
			c-4.7,4.7-8.4,10.1-10.9,16.2c-2.7,6.3-4,13-4,19.8h-2.6c0-7.2,1.4-14.2,4.2-20.8c2.7-6.4,6.6-12.1,11.5-17
			c4.9-4.9,10.6-8.8,17-11.5c6.6-2.8,13.6-4.2,20.8-4.2h12.1c1,0,1.9,0.2,2.8,0.6c0.8,0.4,1.6,0.9,2.2,1.5c0.6,0.6,1.2,1.4,1.5,2.2
			c0.4,0.9,0.6,1.8,0.6,2.8V632C598,640.9,596.2,649.5,592.8,657.6z"/>
	</g>
	
		<rect x="551.9" y="498.9" transform="matrix(-0.7071 0.7071 -0.7071 -0.7071 1337.286 460.8986)" class="st61" width="42.5" height="17"/>
	<path class="st63" d="M581.8,523.7l1.6,1c-2.6,4.3-1.2,9.8,3.1,12.4c4.3,2.6,9.8,1.2,12.4-3.1l1.6,1c-3.1,5.1-9.8,6.8-15,3.7
		C580.4,535.6,578.7,528.9,581.8,523.7z"/>
	<path class="st63" d="M531.5,551c-11.3,0-20.5,9.2-20.5,20.5s9.2,20.5,20.5,20.5s20.5-9.2,20.5-20.5S542.8,551,531.5,551z
		 M531.5,585.2c-7.5,0-13.7-6.1-13.7-13.7c0-7.5,6.1-13.7,13.7-13.7s13.7,6.1,13.7,13.7C545.2,579,539,585.2,531.5,585.2z"/>
	<g class="st62">
		<rect x="568" y="610" class="st18" width="10.8" height="48"/>
	</g>
	<g class="st62">
		
			<rect x="471.4" y="488.4" transform="matrix(0.7071 -0.7071 0.7071 0.7071 -215.7725 484.0601)" class="st18" width="10" height="28.2"/>
	</g>
	<g class="st62">
		<path class="st10" d="M484.7,534.5c-13.1,0-23.7-10.6-23.7-23.7c0-13.1,10.6-23.7,23.7-23.7s23.7,10.6,23.7,23.7
			C508.4,523.8,497.8,534.5,484.7,534.5z M484.7,489.6c-11.6,0-21.1,9.5-21.1,21.1c0,11.6,9.5,21.1,21.1,21.1
			c11.6,0,21.1-9.5,21.1-21.1C505.8,499.1,496.3,489.6,484.7,489.6z"/>
	</g>
	<path class="st64" d="M505,607h-13c-2.8,0-5-2.2-5-5l0,0c0-2.8,2.2-5,5-5h13c2.8,0,5,2.2,5,5l0,0C510,604.8,507.8,607,505,607z"/>
	<rect x="463" y="548" class="st65" width="36.8" height="16"/>
	<circle class="st63" cx="551.5" cy="625.5" r="6.5"/>
	<circle class="st63" cx="568.5" cy="625.5" r="6.5"/>
	<path class="st66" d="M614,552.1c-0.5-0.1-1-0.1-1.5-0.1h-36c-6.9,0-12.5,5.6-12.5,12.5s5.6,12.5,12.5,12.5h36c0.5,0,1,0,1.5-0.1
		V552.1z"/>
</g>
</svg>
