<?xml version="1.0" encoding="utf-8"?>
<!-- Generator: Adobe Illustrator 22.0.1, SVG Export Plug-In . SVG Version: 6.00 Build 0)  -->
<svg version="1.1" id="Layer_1" xmlns="http://www.w3.org/2000/svg" xmlns:xlink="http://www.w3.org/1999/xlink" x="0px" y="0px"
	 viewBox="0 0 4292 4276.2" style="enable-background:new 0 0 4292 4276.2;" xml:space="preserve">
<style type="text/css">
	.st0{fill:#211AC9;}
	.st1{fill:#FFD926;}
	.st2{fill:#FFFFFF;}
	.st3{fill:#FF0DD1;}
</style>
<g id="Layer_57">
</g>
<g id="Layer_56">
</g>
<g id="Layer_55">
</g>
<g id="Layer_54">
</g>
<g id="Layer_53">
</g>
<g id="Layer_52">
</g>
<g id="Layer_51">
</g>
<g id="Layer_49">
</g>
<g id="Layer_48">
</g>
<g id="Layer_47">
</g>
<g id="Layer_46">
</g>
<g id="Layer_45">
</g>
<g id="Layer_44">
</g>
<g id="Layer_43">
</g>
<g id="Layer_42">
</g>
<g id="Layer_41">
</g>
<g id="Layer_40">
</g>
<g id="Layer_39">
</g>
<g id="Layer_38">
</g>
<g id="Layer_37">
</g>
<g id="Layer_36">
</g>
<g id="Layer_35">
</g>
<g id="Layer_34">
</g>
<g id="Layer_33">
</g>
<g id="Layer_32">
</g>
<g id="Layer_31">
</g>
<g id="Layer_30">
</g>
<g id="Layer_29">
</g>
<g id="Layer_28">
</g>
<g id="Layer_27">
</g>
<g id="Layer_26">
</g>
<g id="Layer_25">
</g>
<g id="Layer_24">
</g>
<g id="Layer_23">
</g>
<g id="Layer_22">
</g>
<g id="Layer_21">
</g>
<g id="Layer_20">
</g>
<g id="Layer_19">
</g>
<g id="Layer_18">
</g>
<g id="Layer_17">
</g>
<g id="Layer_16">
</g>
<g id="Layer_15">
</g>
<g id="Layer_14">
</g>
<g id="Layer_13">
</g>
<g id="Layer_12">
</g>
<g id="Layer_11">
</g>
<g id="Layer_10">
</g>
<g id="Layer_9">
</g>
<g id="Layer_8">
</g>
<g id="Layer_7">
</g>
<g id="Layer_6">
</g>
<g id="Layer_5">
</g>
<g id="Layer_4">
</g>
<g>
	<rect class="st0" width="4292" height="4276.2"/>
</g>
<polygon class="st1" points="2146,1853.1 1816.9,2423.1 2475.1,2423.1 "/>
<g>
	<g>
		<path class="st2" d="M1859.6,1822.3c-157.7,26.3-719,10.6-787.4,8.6l-17.9-0.5l-140.7-416.6l35.3-0.6c1,0,102.6-2.2,222-37.1
			c116.3-34,214.9-134.6,215.9-135.6l2.4-2.4l2.9-1.8l335.7-200.3l291.9,37.6l-6.6,51.1l-274.2-35.3L1421.3,1279
			c-17.1,17.1-115.7,111.5-235.9,146.6c-84.4,24.7-159.1,33.8-200.8,37.2l107.1,317.1c287.5,8.1,719.7,11.1,779.4-13
			c66.3-26.7,287.4-124.7,389.7-170.2c-5.7-1.8-11.8-3.6-18.3-5.2c-56.4-14-115.7-11.9-176.4,6.2c-30.4,9.1-67.5,12.4-103.3,15.7
			c-45.7,4.2-96.9,8.9-122.7,26l-11.1,9.7l-36.2-36.6c4.6-5.1,9.7-9.6,15.3-13.7l277-242.6l236.4-109.8h5.6
			c73.5-0.6,203.5-11.4,239.3-37.4c18.6-13.5,36.4-28.8,51.7-43l-334.2,29.9l-262.1,79.3l-262.7,188.2l-30-41.9l269.6-193.1
			l275.3-83.3l473.6-42.4l-42.5,48.4c-2.1,2.3-50.9,57.7-108.5,99.6c-57.2,41.6-225.8,46.6-263.6,47.2l-219.6,102l-188.9,165.4
			c11.1-1.2,22.2-2.2,33.4-3.2c33.3-3,67.7-6.2,93.3-13.8c169-50.3,282.3,23.9,287,27.1l38.6,26l-42.5,19
			c-14.5,6.5-356.6,159-444.1,194.4C1883.3,1817.6,1872.9,1820.1,1859.6,1822.3z"/>
	</g>
	<g>
		<polygon class="st2" points="1627.5,1365.4 1598.4,1322.9 1795.3,1188.5 2001.1,1150 1953.7,1135.8 1794.4,1162.4 1585.9,1243.6 
			1567.1,1195.5 1780.7,1112.4 1957,1083 2219.9,1161.5 1815.4,1237.1 		"/>
	</g>
	<g>
		
			<rect x="791.3" y="1398.6" transform="matrix(0.8659 -0.5002 0.5002 0.8659 -730.5126 732.0109)" class="st3" width="417.6" height="659.9"/>
	</g>
</g>
<g>
	<g>
		<path class="st2" d="M3108.3,2656.2c-0.3-0.3-37.4-27.3-119.2-70.7c-78.8-41.7-256.8-47.9-258.6-47.9l1.6-51.5
			c7.8,0.2,191.8,6.6,281.1,53.9c85.8,45.4,124.2,73.6,125.8,74.8L3108.3,2656.2z"/>
	</g>
	<g>
		<g>
			<path class="st2" d="M2713.6,2707.8l-51.5,0.7c-0.3-23.9-0.4-104.3,13.3-133.6l46.7,21.8
				C2716.2,2609.2,2713,2664.2,2713.6,2707.8z"/>
		</g>
		<g>
			<path class="st2" d="M3313.2,2632.4l-39.1-33.6c0.6-0.7,64.2-75.4,122.8-200.8l95.3-204c-4.5,0.5-9.5,1.4-14.7,3.1
				c-13.8,4.6-27,13.7-39.2,27.1c-29.8,32.6-63.7,87.5-96.4,140.5c-24.8,40.1-50.4,81.7-75.5,115.8
				c-54.4,74-135.6,145.1-177.8,155.9c-0.2,0.1-0.5,0.1-0.7,0.2l-12.2-50.1c0.1,0,0.2,0,0.2-0.1c20.4-5.2,90.9-57.7,148.8-136.4
				c23.9-32.4,48.9-73,73.2-112.3c35.6-57.6,69.1-111.9,102.2-148.1c18.3-20,38.9-33.9,61.2-41.3c42.6-14.1,76,0.5,79.7,2.2
				l23.4,10.9l-120.7,258.5C3381.8,2552.1,3316,2629.2,3313.2,2632.4z"/>
		</g>
		<g>
			<path class="st2" d="M2978.1,2576.9L2965,2527l6.6,24.9l-6.7-24.9c0.3-0.1,34.2-9.5,88.8-42.7c53.5-32.5,97.8-94.7,137.7-157
				c29.8-46.5,149.2-230.2,189.9-280.4c44.8-55.1,145.3-48.4,156.6-47.4l36.8,3.1l-82.7,177.2l-46.7-21.8l49.7-106.5
				c-27.1,2.5-59,9.8-73.7,27.9c-35.3,43.5-142.9,207.6-186.5,275.7c-43.3,67.6-91.9,135.3-154.4,173.3
				C3018.7,2566,2979.8,2576.5,2978.1,2576.9z"/>
		</g>
		<g>
			<path class="st2" d="M2915.8,2550.1c-10,2.6-20.5,4.7-31.5,6.2l-7.3-51c115-16.5,160.9-104.3,191.2-162.5
				c4.8-9.3,9.4-18,13.8-25.5c34.6-59.4,53.6-97.9,68.8-128.9c25.2-51.2,39.1-79.4,91.8-132.1c88.9-88.9,176.3-67.7,180-66.8
				l30.5,7.8l-53.5,110.5l-46.4-22.5l22.2-45.9c-24.5,3.8-59.5,16.5-96.3,53.2c-46.7,46.7-57.8,69.2-82,118.4
				c-14.8,30-35,71.1-70.5,132.1c-3.8,6.5-7.9,14.3-12.6,23.4C3083.5,2425.1,3034.1,2519.8,2915.8,2550.1z"/>
		</g>
		<g>
			<path class="st2" d="M2487.5,3216.2l-20.6-9.6L2057,3015.2l9.5-22.8c1.8-4.4,45.4-108.6,84.5-180.9
				c45.8-84.7,219.7-188,292.4-228.5c64.4-35.9,119.9-48.9,168.9-60.5c24-5.6,46.6-11,67.1-18.4c16.5-6,31.7-10,46.4-13.8
				c43.3-11.4,74.6-19.6,113.3-72.1c36.1-49.1,48.1-105.1,59.6-159.2c5.7-26.8,11.6-54.5,20.4-80.9l0.7-2.1l1-1.9
				c0.9-1.7,23-42.9,49.2-75.2c27.6-34.1,72-34.9,93.8-30.1l26.9,6l-7.7,26.4c-17.4,59.4-101.7,408.7-102.6,412.2l-50.1-12.1
				c3-12.6,66.2-274,93.8-379.8c-5.2,2-10.1,5.1-14.1,9.9c-20.1,24.8-38.3,57.1-42.7,65.1c-7.5,23.1-12.7,47.5-18.2,73.3
				c-12.7,59.5-25.8,121-68.5,179c-49.5,67.2-96.4,79.5-141.7,91.4c-13.5,3.6-27.5,7.2-41.8,12.4c-23.3,8.5-47.4,14.1-72.9,20.1
				c-45.7,10.8-97.5,22.9-155.6,55.3c-110.5,61.6-240,148.5-272.1,208c-27.2,50.2-57.4,118.5-72.6,153.4l345.2,161.2
				c28.8-39.2,102.3-126.6,196.3-142c134-22.1,297.1-61.4,352.8-105.6c46.3-36.7,157.3-146.9,230.7-219.8
				c17.6-17.5,32.5-32.3,44.1-43.7c-23-14.9-63.8-31.5-111.2-6.7c-49.8,26-90.3,67.6-126,104.4c-27.2,28-50.7,52.1-74.8,66.1
				c-38.2,22-157.8,71-200.9,50.9l21.8-46.7c-0.2-0.1-0.4-0.2-0.7-0.3c16.6,4.9,100.5-17.8,154-48.6c17.9-10.3,39.1-32.1,63.6-57.3
				c36.5-37.6,82-84.3,139.1-114.1c85.8-44.8,163.6,2.1,192.7,33.1l17.8,19l-19.2,17.6c-9.3,8.5-33.4,32.5-64.1,62.9
				c-74.3,73.7-186.5,185.1-235,223.6c-77.7,61.6-289.2,101.7-376.5,116c-96.2,15.9-173.3,136.3-174,137.5L2487.5,3216.2z"/>
		</g>
		<g>
			<path class="st2" d="M2918.1,2822.9c-1.8-0.9-176.3-89-294-93.9c-94.4-4-258.3,112.6-313.6,157.8l-32.7-39.9
				c2.2-1.8,53.6-43.8,121.5-85.8c93.6-57.9,170-86.1,227-83.7c128.9,5.4,307.7,95.7,315.2,99.5L2918.1,2822.9z"/>
		</g>
		<g>
			
				<rect x="2021.2" y="2903.2" transform="matrix(0.5642 -0.8256 0.8256 0.5642 -1697.5653 3250.1277)" class="st3" width="417.6" height="659.9"/>
		</g>
	</g>
</g>
</svg>
