<?xml version="1.0" encoding="utf-8"?>
<!-- Generator: Adobe Illustrator 22.0.1, SVG Export Plug-In . SVG Version: 6.00 Build 0)  -->
<svg version="1.1" id="Layer_1" xmlns="http://www.w3.org/2000/svg" xmlns:xlink="http://www.w3.org/1999/xlink" x="0px" y="0px"
	 viewBox="0 0 719.7 471.9" style="enable-background:new 0 0 719.7 471.9;" xml:space="preserve">
<style type="text/css">
	.st0{fill:#CBAB00;}
	.st1{fill:#FF5327;}
	.st2{fill:none;stroke:#FFFFFF;stroke-width:8;stroke-miterlimit:10;}
</style>
<path class="st0" d="M564,438.8c0,0,5.6-75.8,43.6-86.1s48.4,0.3,61.5,0.3c13.1,0.1,11.8-9.1,11.9-20.9c0.1-11.8,6.6-18.3,9.3-24.8
	s-7.4-8.5-7.4-8.5s3.5-0.7,10.1-4.6s-1.3-9.2-3.8-18.3c-2.6-9.2,14.4-11.7,14.5-20.8c0.1-9.1-18.2-22.3-26-34.1
	c-7.8-11.8-3.1-35.8-5.6-60.7S596.4,55.9,596.4,55.9l-203.5,64.6l-60.1,205.4l109.6,100.9L564,438.8z"/>
<rect x="392.8" y="313.9" class="st1" width="316" height="158"/>
<g id="Helmet_1_">
	<g>
		<path class="st1" d="M611.4,110.7c38.1-3.5,75,2.2,108.3,15.4C676.7,44.2,587.3-8.1,489.4,1C360,13,264.9,127.7,276.9,257.1
			c8.5,91.2,68,165.4,147.7,197c-13.8-26.4-22.8-55.8-25.8-87.3C386.8,237.4,482,122.8,611.4,110.7z"/>
	</g>
	<g>
		<path class="st2" d="M378.4,75.8L378.4,75.8C378.8,38.3,322,7.4,264.9,6.9L4,4l0,0C3.6,41.6,49.6,72.4,106.7,73L378.4,75.8z"/>
	</g>
	<g>
		<path class="st2" d="M383.8,155.2L383.8,155.2c0.4-37.5-45.6-68.4-102.7-68.9L63.4,83.4l0,0c-0.4,37.6,45.6,68.4,102.7,69
			L383.8,155.2z"/>
	</g>
	<g>
		<path class="st2" d="M403.8,235.2L403.8,235.2c0.4-37.5-45.6-68.4-102.7-68.9l-138.5-2.9l0,0c-0.4,37.6,45.6,68.4,102.7,69
			L403.8,235.2z"/>
	</g>
</g>
</svg>
