<?xml version="1.0" encoding="utf-8"?>
<!-- Generator: Adobe Illustrator 22.0.1, SVG Export Plug-In . SVG Version: 6.00 Build 0)  -->
<svg version="1.1" id="Layer_1" xmlns="http://www.w3.org/2000/svg" xmlns:xlink="http://www.w3.org/1999/xlink" x="0px" y="0px"
	 viewBox="0 0 1133 586.9" style="enable-background:new 0 0 1133 586.9;" xml:space="preserve">
<style type="text/css">
	.st0{fill:none;}
	.st1{fill:#FF0606;}
	.st2{fill:#FFFFFF;}
	.st3{fill:#CBAB00;}
	.st4{fill:#F3F315;}
	.st5{fill:#FF5327;}
	.st6{fill:#FF0DD1;}
</style>
<g>
	<rect x="116.9" y="446" width="316" height="140.9"/>
	<g id="Helmet_2_">
		<g>
			<path d="M335.5,225.7c38.1-3.5,75,2.2,108.3,15.4c-43-81.9-132.4-134.2-230.3-125.1C84.1,128-11,242.7,1,372.1
				c8.5,91.2,68,165.4,147.7,197c-13.8-26.4-22.8-55.8-25.8-87.3C110.9,352.4,206.1,237.8,335.5,225.7z"/>
		</g>
	</g>
	<g>
		<path class="st0" d="M412,427c-1.7,0.2-3.7,0.3-5.5,0.3c-4.7,0-24.7-14-24.7-14s18.7-8,24-12c5.3-4,11.3-1.7,11.3-1.7l0.5,0.5
			c-1.5-2.6-3.3-5.6-4.3-9.2c-2.6-9.2,14.4-11.7,14.5-20.8c0.1-9.1-18.2-22.3-26-34.1s-3.1-35.8-5.6-60.7
			c-2.5-24.9-75.7-104.4-75.7-104.4L117,235.5L56.9,440.9l109.6,100.9l121.6,12c0,0,5.6-75.8,43.6-86.1c38-10.3,48.4,0.3,61.5,0.3
			c13.1,0.1,11.8-9.1,11.9-20.9C405.2,438.1,409,432.2,412,427z"/>
		<path class="st1" d="M405.8,401.3c-5.3,4-24,12-24,12s20,14,24.7,14c1.8,0,3.8-0.2,5.5-0.3c0.9-1.6,1.8-3.2,2.4-4.7
			c2.7-6.5-7.4-8.5-7.4-8.5s3.5-0.7,10.1-4.6c4-2.3,2.7-5.2,0.5-9.1l-0.5-0.5C417.1,399.7,411.1,397.3,405.8,401.3z"/>
	</g>
	<rect x="203.1" class="st2" width="18" height="216"/>
	<rect x="167.4" y="36.7" class="st2" width="18" height="216"/>
	<rect x="131.7" y="73.5" class="st2" width="18" height="216"/>
</g>
<path class="st3" d="M977.3,553.8c0,0,5.6-75.8,43.6-86.1c38-10.3,48.4,0.3,61.5,0.3c13.1,0.1,11.8-9.1,11.9-20.9s6.6-18.3,9.3-24.8
	c2.7-6.5-7.4-8.5-7.4-8.5s3.5-0.7,10.1-4.6s-1.3-9.2-3.8-18.3c-2.6-9.2,14.4-11.7,14.5-20.8c0.1-9.1-18.2-22.3-26-34.1
	c-7.8-11.8-3.1-35.8-5.6-60.7c-2.5-24.9-75.7-104.4-75.7-104.4l-203.5,64.6l-60.1,205.4l109.6,100.9L977.3,553.8z"/>
<path class="st4" d="M1028.3,202c0,0-96,52-96,120s-4,150-4,150l-6,58l-90-8l-66-68l26-80l64-128l126-54L1028.3,202z"/>
<rect x="806.1" y="446" class="st5" width="316" height="140.9"/>
<g id="Helmet_1_">
	<g>
		<path class="st5" d="M1024.7,225.7c38.1-3.5,75,2.2,108.3,15.4c-43-81.9-132.4-134.2-230.3-125.1
			c-129.4,12-224.5,126.7-212.5,256.1c8.5,91.2,68,165.4,147.7,197c-13.8-26.4-22.8-55.8-25.8-87.3
			C800.1,352.4,895.3,237.8,1024.7,225.7z"/>
	</g>
	<g>
		<g>
			<path class="st2" d="M795.7,194.8L520,192c-28.4-0.3-55.1-7.9-75.1-21.3c-20.6-13.8-31.8-32.2-31.6-51.7l0-4l264.9,2.9
				c39.7,0.3,79.4,14.9,101.1,37c10.8,11,16.5,23.5,16.4,35.9L795.7,194.8z M421.5,123c1.3,15.3,11.1,29.7,27.9,41
				c18.7,12.6,43.9,19.7,70.7,19.9l267.5,2.8c-1-9-5.8-18-13.9-26.2c-20-20.4-58.4-34.3-95.5-34.6L421.5,123z"/>
		</g>
	</g>
	<g>
		<g>
			<path class="st2" d="M801.1,274.3l-221.7-2.9c-28.4-0.3-55.1-7.9-75.1-21.3c-20.6-13.8-31.8-32.2-31.6-51.7l0-4l221.7,3
				c35.9,0.3,69.2,12.5,89,32.7c11.7,12,17.8,25.9,17.7,40.3L801.1,274.3z M480.9,202.5c1.3,15.3,11.1,29.7,27.9,41
				c18.7,12.6,43.9,19.7,70.7,19.9l213.5,2.7c-0.9-10.8-6.2-21.3-15.2-30.6c-18.3-18.7-49.5-30-83.3-30.3L480.9,202.5z"/>
		</g>
	</g>
	<g>
		<g>
			<path class="st2" d="M821.1,354.3l-142.5-2.9c-28.4-0.3-55-7.9-75.1-21.3c-20.6-13.8-31.8-32.2-31.6-51.7l0-4l142.5,3
				c35.9,0.3,69.2,12.5,88.9,32.7c11.7,12,17.8,25.9,17.7,40.3L821.1,354.3z M580.1,282.5c1.3,15.3,11.1,29.7,27.9,41
				c18.7,12.6,43.9,19.7,70.7,19.9l134.3,2.7c-1-10.8-6.2-21.3-15.2-30.5c-18.3-18.7-49.5-30-83.3-30.3L580.1,282.5z"/>
		</g>
	</g>
</g>
<g>
	<path class="st0" d="M1101.2,427c-1.7,0.2-3.7,0.3-5.5,0.3c-4.7,0-24.7-14-24.7-14s18.7-8,24-12c5.3-4,11.3-1.7,11.3-1.7l0.5,0.5
		c-1.5-2.6-3.3-5.6-4.3-9.2c-2.6-9.2,14.4-11.7,14.5-20.8c0.1-9.1-18.2-22.3-26-34.1c-7.8-11.8-3.1-35.8-5.6-60.7
		c-2.5-24.9-75.7-104.4-75.7-104.4l-203.5,64.6l-60.1,205.4l109.6,100.9l121.6,12c0,0,5.6-75.8,43.6-86.1c38-10.3,48.4,0.3,61.5,0.3
		c13.1,0.1,11.8-9.1,11.9-20.9C1094.4,438.1,1098.2,432.2,1101.2,427z"/>
	<path class="st6" d="M1095,401.3c-5.3,4-24,12-24,12s20,14,24.7,14c1.8,0,3.8-0.2,5.5-0.3c0.9-1.6,1.8-3.2,2.4-4.7
		c2.7-6.5-7.4-8.5-7.4-8.5s3.5-0.7,10.1-4.6c4-2.3,2.7-5.2,0.5-9.1l-0.5-0.5C1106.3,399.7,1100.3,397.3,1095,401.3z"/>
</g>
</svg>
