<?xml version="1.0" encoding="utf-8"?>
<!-- Generator: Adobe Illustrator 22.0.1, SVG Export Plug-In . SVG Version: 6.00 Build 0)  -->
<svg version="1.1" id="Layer_1" xmlns="http://www.w3.org/2000/svg" xmlns:xlink="http://www.w3.org/1999/xlink" x="0px" y="0px"
	 viewBox="0 0 1064.9 944.4" style="enable-background:new 0 0 1064.9 944.4;" xml:space="preserve">
<style type="text/css">
	.st0{fill:#F3F315;}
	.st1{fill:#CBAB00;}
	.st2{fill:#FF5327;}
	.st3{fill:#FFFFFF;}
	.st4{opacity:0.2;}
	.st5{opacity:0.1;}
	.st6{fill:none;}
	.st7{fill:#FF0DD1;}
</style>
<path d="M829.9,176.5C821.5,120.4,873.4-53,669.5,16S437,212.5,231.5,226s-225,73.5-207,217.5S-91,836.4,125,756.9
	S404.5,529.5,500.5,651s205,243.9,295,125.4s348-235.5,246-309S856.3,350.4,829.9,176.5z"/>
<path class="st0" d="M776,626.7c0,0,3.3,86.7,5.3,113.3c2,26.7,46,46.7,62.7,64.7s6,76.7,6,76.7s16-38,17.3-55.3
	c1.3-17.3-1.3-93.3-31.4-141.1C821.5,662,836,504.7,836,504.7"/>
<path class="st0" d="M726.4,626.4c0,0-76.2,190.5-91.5,200.2c0,0,49.3,5.1,66.3-42.3s67.9-116.5,77-116.5"/>
<path class="st1" d="M861.4,683.7c0,0,7-59.5,45-69.8c38-10.3,44.2-6.7,57.3-6.7c13.1,0.1,14.6-18.4,14.7-30.2
	c0.1-11.8,6.6-18.3,9.3-24.8s-7.4-8.5-7.4-8.5s3.5-0.7,10.1-4.6c6.6-3.9-1.3-9.2-3.8-18.3c-2.6-9.2,14.4-11.7,14.5-20.8
	c0.1-9.1-18.2-22.3-26-34.1s-3.1-35.8-5.6-60.7s-75.7-104.4-75.7-104.4l-203.5,64.6l-19.4,198l68.9,108.3L861.4,683.7z"/>
<path class="st0" d="M909.6,335.3c2.6,0.4,32.7,2.9-4.6,34.2c-19.3,14.7-34.7,30.1-43.4,41.4c-9.1,11.6-11.5,19.1-12.8,24.4
	c0.2,15.5,14.8,41.3,21,63.5c8.3,25.4,10.4,52.8,9.8,54.3c0-1.4-2.4-25.6-20.4-53.1c-8.2-14.2-18.9-30.5-28.1-46.9
	c-9.1-16.1-16.6-32.3-16.7-39.4c-1.3-15,5.1-32.2,15.3-49.5c9.7-16.6,23.3-33.3,23-32"/>
<path class="st0" d="M912.4,331.9c0,0-96,52-96,120s-4,150-4,150l-6,58l-90-8l-66-68l26-80l64-128l126-54L912.4,331.9z"/>
<g>
	<path class="st0" d="M857.5,346c0,0-3.8,20.1-9.3,41.3c-5.2,21.4-12,43.9-10.4,55.4c3,11.5-4.4,56.8-11.9,102.9
		c-3.2,23-4.8,46.1-3,65c1.5,18.9,6.6,33.4,8.9,39.7c0.5,0.2-39-81.4-36.5-154.2"/>
</g>
<g id="Helmet_1_">
	<g>
		<path class="st2" d="M909.3,382.4c32.8-3,64.5,1.9,93.1,13.2c-37-70.4-113.8-115.4-198-107.6c-111.2,10.3-193,108.9-182.7,220.2
			c7.3,78.4,58.5,142.2,127,169.4c-11.9-22.7-19.6-48-22.2-75.1C716.2,491.3,798.1,392.8,909.3,382.4z"/>
	</g>
	<g>
		<g>
			<path class="st3" d="M715.3,331.2l-230.5-2.4c-23.8-0.2-46.1-6.6-62.8-17.8c-17.2-11.5-26.6-26.9-26.4-43.3l0-3.3l221.5,2.5
				c33.2,0.3,66.4,12.4,84.5,31c9.1,9.2,13.8,19.6,13.7,30L715.3,331.2z M402.4,271.2c1.1,12.8,9.3,24.9,23.3,34.3
				c15.7,10.5,36.7,16.4,59.1,16.7l223.6,2.3c-0.9-7.5-4.8-15-11.6-21.9c-16.7-17-48.8-28.7-79.8-29L402.4,271.2z"/>
		</g>
	</g>
	<g>
		<g>
			<path class="st3" d="M719.8,397.6l-185.4-2.4c-23.7-0.2-46-6.6-62.8-17.8c-17.2-11.5-26.6-26.9-26.4-43.3l0-3.4l185.4,2.5
				c30.1,0.3,57.9,10.5,74.4,27.3c9.8,10,14.9,21.6,14.8,33.7L719.8,397.6z M452,337.6c1.1,12.8,9.3,24.9,23.3,34.3
				c15.7,10.5,36.7,16.4,59.1,16.7l178.5,2.3c-0.8-9-5.2-17.8-12.8-25.6c-15.3-15.6-41.4-25.1-69.7-25.3L452,337.6z"/>
		</g>
	</g>
	<g>
		<g>
			<path class="st3" d="M736.5,464.5l-119.2-2.4c-23.7-0.2-46-6.6-62.8-17.8c-17.2-11.5-26.6-26.9-26.4-43.3l0-3.4l119.2,2.5
				c30,0.3,57.8,10.5,74.4,27.3c9.8,10,14.9,21.6,14.8,33.7L736.5,464.5z M535,404.5c1.1,12.8,9.3,24.8,23.3,34.3
				c15.7,10.5,36.7,16.4,59.1,16.7l112.3,2.3c-0.8-9-5.2-17.8-12.7-25.5c-15.3-15.6-41.4-25.1-69.7-25.3L535,404.5z"/>
		</g>
	</g>
</g>
<g class="st4">
	<g>
		<path class="st3" d="M194.5,528c7.7,0,7.7-12,0-12C186.7,516,186.7,528,194.5,528L194.5,528z"/>
	</g>
</g>
<g class="st4">
	<g>
		<path class="st3" d="M359.5,591c7.7,0,7.7-12,0-12C351.8,579,351.7,591,359.5,591L359.5,591z"/>
	</g>
</g>
<g class="st4">
	<g>
		<path class="st3" d="M242.5,405c7.7,0,7.7-12,0-12C234.7,393,234.7,405,242.5,405L242.5,405z"/>
	</g>
</g>
<g class="st4">
	<g>
		<path class="st3" d="M140.4,258c7.7,0,7.7-12,0-12C132.7,246,132.7,258,140.4,258L140.4,258z"/>
	</g>
</g>
<g class="st4">
	<g>
		<path class="st3" d="M122.4,507c7.7,0,7.7-12,0-12C114.7,495,114.7,507,122.4,507L122.4,507z"/>
	</g>
</g>
<g class="st4">
	<g>
		<path class="st3" d="M14.4,669c7.7,0,7.7-12,0-12C6.7,657,6.7,669,14.4,669L14.4,669z"/>
	</g>
</g>
<g class="st4">
	<g>
		<path class="st3" d="M149.5,669c7.7,0,7.7-12,0-12C141.7,657,141.7,669,149.5,669L149.5,669z"/>
	</g>
</g>
<g class="st4">
	<g>
		<path class="st3" d="M248.5,630c7.7,0,7.7-12,0-12C240.7,618,240.7,630,248.5,630L248.5,630z"/>
	</g>
</g>
<g class="st4">
	<g>
		<path class="st3" d="M377.5,435c7.7,0,7.7-12,0-12C369.8,423,369.7,435,377.5,435L377.5,435z"/>
	</g>
</g>
<g class="st4">
	<g>
		<path class="st3" d="M785.5,96c7.7,0,7.7-12,0-12C777.8,84,777.8,96,785.5,96L785.5,96z"/>
	</g>
</g>
<g class="st4">
	<g>
		<path class="st3" d="M602.5,96c7.7,0,7.7-12,0-12C594.8,84,594.8,96,602.5,96L602.5,96z"/>
	</g>
</g>
<g class="st4">
	<g>
		<path class="st3" d="M674.5,171c7.7,0,7.7-12,0-12C666.8,159,666.8,171,674.5,171L674.5,171z"/>
	</g>
</g>
<g class="st4">
	<g>
		<path class="st3" d="M551.5,171c7.7,0,7.7-12,0-12C543.8,159,543.8,171,551.5,171L551.5,171z"/>
	</g>
</g>
<g class="st4">
	<g>
		<path class="st3" d="M512.5,534c7.7,0,7.7-12,0-12C504.8,522,504.8,534,512.5,534L512.5,534z"/>
	</g>
</g>
<g class="st5">
	<g>
		<path class="st3" d="M113.4,357c15.4,0,15.5-24,0-24C98,333,98,357,113.4,357L113.4,357z"/>
	</g>
</g>
<g class="st5">
	<g>
		<path class="st3" d="M188.5,603c15.4,0,15.5-24,0-24C173,579,173,603,188.5,603L188.5,603z"/>
	</g>
</g>
<g class="st5">
	<g>
		<path class="st3" d="M383.5,492c15.4,0,15.5-24,0-24C368,468,368,492,383.5,492L383.5,492z"/>
	</g>
</g>
<g class="st5">
	<g>
		<path class="st3" d="M56.4,612c15.4,0,15.5-24,0-24C41,588,41,612,56.4,612L56.4,612z"/>
	</g>
</g>
<g>
	<path class="st0" d="M782.8,656c-0.8-0.2-17.9,35.9,8,61.3c16.7,13,9.4,29.9,10.4,48.7c-1.2,18.7,5.8,39.4,1.1,59.8
		c-2.4,20.3-16.4,40.3-35.8,56.1c-18.5,15.7-42.4,27.1-43.5,28.9c-4-0.4,30.8-57.2,20.2-101c-1.1-11.1,1.5-26.2,1.7-42.4
		c0.7-16.2-1-33.6-1-49.9c-0.1-16.4,1.5-31.7,6.3-44.7c4.2-12.9,11.6-23.4,8.7-30"/>
</g>
<g class="st5">
	<g>
		<path class="st3" d="M287.5,507c15.4,0,15.5-24,0-24C272,483,272,507,287.5,507L287.5,507z"/>
	</g>
</g>
<g class="st5">
	<g>
		<path class="st3" d="M536.5,180c15.4,0,15.5-24,0-24C521,156,521,180,536.5,180L536.5,180z"/>
	</g>
</g>
<g class="st5">
	<g>
		<path class="st3" d="M692.5,114c15.4,0,15.5-24,0-24C677.1,90,677,114,692.5,114L692.5,114z"/>
	</g>
</g>
<g class="st5">
	<g>
		<path class="st3" d="M758.5,219c15.4,0,15.5-24,0-24C743.1,195,743,219,758.5,219L758.5,219z"/>
	</g>
</g>
<g>
	<path class="st6" d="M985.2,556.9c-1.7,0.2-3.7,0.3-5.5,0.3c-4.7,0-24.7-14-24.7-14s18.7-8,24-12c5.3-4,11.3-1.7,11.3-1.7l0.5,0.5
		c-1.5-2.6-3.3-5.6-4.3-9.2c-2.6-9.2,14.4-11.7,14.5-20.8c0.1-9.1-18.2-22.3-26-34.1s-3.1-35.8-5.6-60.7
		c-2.5-24.9-75.7-104.4-75.7-104.4l-203.5,64.6L681.5,559l58.3,112.7l121.6,12c0,0,5.6-75.8,43.6-86.1c38-10.3,48.4,0.3,61.5,0.3
		c13.1,0.1,11.8-9.1,11.9-20.9C978.4,568,982.2,562,985.2,556.9z"/>
	<path class="st7" d="M979,531.2c-5.3,4-24,12-24,12s20,14,24.7,14c1.8,0,3.8-0.2,5.5-0.3c0.9-1.6,1.8-3.2,2.4-4.7
		c2.7-6.5-7.4-8.5-7.4-8.5s3.5-0.7,10.1-4.6c4-2.3,2.7-5.2,0.5-9.1l-0.5-0.5C990.4,529.5,984.4,527.2,979,531.2z"/>
</g>
<path class="st0" d="M730.9,611.4c0,0,32.2-0.7-51,151.5c-24,43.9-60,86.4-49.5,113.2C641,903,656,944.4,656,944.4s-3-63.4,30-81.7
	s72-80.5,66-90.3s21-114.7,46.5-122"/>
<path class="st0" d="M763.2,658.5c0,0,19.3,73-4.7,118.7s1.4,50.4,4.7,70.3c4,24.4-2,41.7-2,41.7s-6.7-20.9-21.3-42.9
	c-14.7-22-31.8-52.9-36.9-73.9c-9.3-38.4-13.1-60.9-7.1-75S763.2,658.5,763.2,658.5z"/>
<rect x="687.4" y="614.3" class="st2" width="294.2" height="102"/>
<g>
	<path class="st0" d="M794.3,473.5c0.2,3.3,0.2,23.3,6.5,57.7c5.7,32.6,17.8,79.7,27.5,95.1c9.2,13,12.3,26,14.5,42
		c2.1,16.2,2.7,23,2.7,22.7c0,2.2,0-20-2.6-41.7c-1.3-10.6-3.1-20.3-4.9-27.2c-1.8-7.2-3.6-11.6-3.7-18.6
		c-0.6-11.4,6-49.5,16.9-87.9c8.5-39.6,15.8-68.2-41.7-81.4"/>
</g>
</svg>
