<?xml version="1.0" encoding="utf-8"?>
<!-- Generator: Adobe Illustrator 22.0.1, SVG Export Plug-In . SVG Version: 6.00 Build 0)  -->
<svg version="1.1" id="Layer_1" xmlns="http://www.w3.org/2000/svg" xmlns:xlink="http://www.w3.org/1999/xlink" x="0px" y="0px"
	 viewBox="0 0 712.1 471.9" style="enable-background:new 0 0 712.1 471.9;" xml:space="preserve">
<style type="text/css">
	.st0{fill:#936E06;}
	.st1{fill:#FF5327;}
	.st2{fill:#B2098B;}
</style>
<path class="st0" d="M556.4,438.8c0,0,5.6-75.8,43.6-86.1s48.4,0.3,61.5,0.3c13.1,0.1,11.8-9.1,11.9-20.9
	c0.1-11.8,6.6-18.3,9.3-24.8c2.7-6.5-7.4-8.5-7.4-8.5s3.5-0.7,10.1-4.6c6.6-3.9-1.3-9.2-3.8-18.3c-2.6-9.2,14.4-11.7,14.5-20.8
	s-18.2-22.3-26-34.1c-7.8-11.8-3.1-35.8-5.6-60.7c-2.5-24.9-75.7-104.4-75.7-104.4l-203.5,64.6l-60.1,205.4l109.6,100.9L556.4,438.8
	z"/>
<rect x="385.2" y="313.9" class="st1" width="316" height="158"/>
<g id="Helmet_1_">
	<g>
		<path class="st1" d="M603.8,110.7c38.1-3.5,75,2.2,108.3,15.4C669.1,44.2,579.7-8.1,481.8,1c-129.4,12-224.5,126.7-212.5,256.1
			c8.5,91.2,68,165.4,147.7,197c-13.8-26.4-22.8-55.8-25.8-87.3C379.2,237.4,474.4,122.8,603.8,110.7z"/>
	</g>
	<g>
		<path class="st2" d="M385.2,211.7L385.2,211.7c0.2-21.9-26.6-39.9-59.9-40.2l-164.8-1.6v0c-0.2,21.9,26.6,39.9,59.9,40.2
			L385.2,211.7z"/>
	</g>
	<g>
		<path class="st2" d="M385.2,149.3L385.2,149.3c0.3-30.1-36.6-54.9-82.4-55.3L76.1,91.8v0c-0.3,30.1,36.6,54.9,82.4,55.3
			L385.2,149.3z"/>
	</g>
	<g>
		<path class="st2" d="M385.2,72.2L385.2,72.2c0.4-37.5-45.6-68.4-102.7-68.9L0,0.4l0,0C-0.4,38,45.6,68.8,102.7,69.4L385.2,72.2z"
			/>
	</g>
</g>
</svg>
