<?xml version="1.0" encoding="utf-8"?>
<!-- Generator: Adobe Illustrator 22.0.1, SVG Export Plug-In . SVG Version: 6.00 Build 0)  -->
<svg version="1.1" id="Layer_1" xmlns="http://www.w3.org/2000/svg" xmlns:xlink="http://www.w3.org/1999/xlink" x="0px" y="0px"
	 viewBox="0 0 4352 4336.2" style="enable-background:new 0 0 4352 4336.2;" xml:space="preserve">
<style type="text/css">
	.st0{fill:none;stroke:#0E4BFF;stroke-width:20;stroke-miterlimit:10;}
	.st1{fill:#F5F4EE;}
	.st2{fill:#FFFFFF;}
	.st3{fill:#275EFF;}
	.st4{fill:none;stroke:#FFBC0E;stroke-width:10;stroke-miterlimit:10;}
	.st5{fill:none;stroke:#0E4BFF;stroke-width:10;stroke-linecap:round;stroke-linejoin:round;stroke-miterlimit:10;}
	.st6{fill:none;stroke:#FFBC0E;stroke-width:10;stroke-linecap:round;stroke-linejoin:round;stroke-miterlimit:10;}
	.st7{fill:none;stroke:#0531B2;stroke-width:10;stroke-linecap:round;stroke-linejoin:round;stroke-miterlimit:10;}
	.st8{fill:#C2C2E4;stroke:#242A7C;stroke-width:10;stroke-linecap:round;stroke-linejoin:round;stroke-miterlimit:10;}
	.st9{fill:none;stroke:#0E4BFF;stroke-width:10;stroke-miterlimit:10;}
	.st10{fill:#B28100;}
	.st11{fill:#275EFF;stroke:#FFFFFF;stroke-width:10;stroke-miterlimit:10;}
	.st12{fill:#FF0DD1;stroke:#FFFFFF;stroke-width:10;stroke-miterlimit:10;}
	.st13{fill:#FFFFFF;stroke:#211AC9;stroke-width:10;stroke-miterlimit:10;}
	.st14{fill:none;stroke:#211AC9;stroke-width:10;stroke-miterlimit:10;}
	.st15{fill:#211AC9;}
	.st16{fill:#0E4BFF;}
</style>
<g id="Layer_57">
</g>
<g id="Layer_56">
</g>
<g id="Layer_55">
</g>
<g id="Layer_54">
</g>
<g id="Layer_53">
</g>
<g id="Layer_52">
</g>
<g id="Layer_51">
</g>
<g id="Layer_50">
	<path class="st0" d="M3024,3331.2"/>
</g>
<g id="Layer_49">
</g>
<g id="Layer_48">
</g>
<g id="Layer_47">
</g>
<g id="Layer_46">
</g>
<g id="Layer_45">
</g>
<g id="Layer_44">
</g>
<g id="Layer_43">
</g>
<g id="Layer_42">
</g>
<g id="Layer_41">
</g>
<g id="Layer_40">
</g>
<g id="Layer_39">
</g>
<g id="Layer_38">
</g>
<g id="Layer_37">
</g>
<g id="Layer_36">
</g>
<g id="Layer_35">
</g>
<g id="Layer_34">
</g>
<g id="Layer_33">
</g>
<g id="Layer_32">
</g>
<g id="Layer_31">
</g>
<g id="Layer_30">
</g>
<g id="Layer_29">
</g>
<g id="Layer_28">
</g>
<g id="Layer_27">
</g>
<g id="Layer_26">
</g>
<g id="Layer_25">
</g>
<g id="Layer_24">
</g>
<g id="Layer_23">
</g>
<g id="Layer_22">
</g>
<g id="Layer_21">
</g>
<g id="Layer_20">
</g>
<g id="Layer_19">
</g>
<g id="Layer_18">
</g>
<g id="Layer_17">
</g>
<g id="Layer_16">
</g>
<g id="Layer_15">
</g>
<g id="Layer_14">
</g>
<g id="Layer_13">
</g>
<g id="Layer_12">
</g>
<g id="Layer_11">
</g>
<g id="Layer_10">
</g>
<g id="Layer_9">
</g>
<g id="Layer_8">
</g>
<g id="Layer_7">
</g>
<g id="Layer_6">
</g>
<g id="Layer_5">
</g>
<g id="Layer_4">
</g>
<g id="Layer_3">
	<g>
		<rect x="30" y="30" class="st1" width="4292" height="4276.2"/>
		<path class="st2" d="M4292,60v4216.2H60V60H4292 M4352,0H0v4336.2h4352V0L4352,0z"/>
	</g>
	<path class="st3" d="M942,2910.2c-89.9-24.7-358-22-358,104s-126,110,0,247s28,155,88,281s224,240,388,216s498,18,466-54
		s256-112,161-197s-355-153-307-206s114-155,0-170s33-164-87-133S1029.2,2934.2,942,2910.2z"/>
	<path class="st4" d="M1370,3111.7l-1.5-175.3c-45.6,0.4-82.8,35.6-86.6,80.2c-4.7-60.5-55.5-107.9-117.1-107.6v0l-147.6,1.2
		l2,233.5l147.2-1.2h0h0l0.3,0v0c61.6-0.7,111.5-49,115.2-109.5C1286.5,3077.5,1324.3,3112.1,1370,3111.7z"/>
	<path class="st4" d="M1532,3228.7l-1.5-175.3c-45.6,0.4-82.8,35.6-86.6,80.2c-4.7-60.5-55.5-107.9-117.1-107.6v0l-147.6,1.2
		l2,233.5l147.2-1.2h0h0l0.3,0v0c61.6-0.7,111.5-49,115.2-109.5C1448.5,3194.5,1486.3,3229.1,1532,3228.7z"/>
	<path class="st5" d="M3185,1635.2c0,0-1904,8.1-1951,117c-66,153,201.7,168.6,278,176c128.4,12.4,516,0,516,0s251.9,3.3,311,19
		c49,13,651,115-981,337s-896,180-896,180"/>
	<path class="st6" d="M2495.4,3250.7c60.5-4.7,107.9-55.5,107.6-117.1h0l-1.2-147.6l-233.5,2l1.2,147.2c0,0,0,0,0,0v0l0,0.3h0
		c0.7,61.6,49,111.5,109.5,115.2c-44.5,4.5-79.1,42.3-78.7,87.9l175.3-1.5C2575.2,3291.6,2540,3254.4,2495.4,3250.7z"/>
	<path class="st5" d="M3253.9,1768.3c0,0-1837.2-57.9-1839.1,54.9c-2.5,142.1,1183.1-94.4,1158.3,226.7
		c-22.8,295.7-1530,279-1770,414.4"/>
	<path class="st5" d="M3156,1425.2c0,0-2168.1,190-2186.8,332.7c-18.7,142.7,509.5,260.9,980.8,235.9
		c388.5-20.6,543,56.1,112.8,97.1c-320.9,30.6-681.6,69.5-1292.3,31.1"/>
	<path class="st7" d="M1807,1047.2c0,0-53.5-73.1-84.4-66.1s-34.2,18.4-43.5,23.4s-11.8-2-16.3-10.3c-4.5-8.3-11.6-10.5-15.9-14.1
		c-4.3-3.6,2.1-8.8,2.1-8.8s-2.8,0.8-8.9,0.5s-2.6-7-4.2-14.4c-1.6-7.5-14.7-2.9-18.1-9.3c-3.5-6.5,4.5-22.7,5.6-34
		c1.1-11.3-11.3-26.6-18.9-45.2c-7.6-18.6,14.5-102.6,14.5-102.6"/>
	<g>
		<path class="st6" d="M1617.5,757.6c18.3-22.6,42.8-35.2,60.3-46.6c18.4-11.1,30-21.2,42.4-30.4c12.4-9,25.7-17.1,47.4-18.4
			c20.9-1.2,50.2,4.4,74.7,26.2c27.6,19.6,41.5,54.2,47,82.9c5.9,29.8,3.5,53.9,8.4,77.2c4.4,23.4,16.1,46,38.6,76
			c21,29.1,52.7,65.5,63.6,97.7"/>
	</g>
	<g>
		<path class="st6" d="M1618,757.5c16.9-19,35.9-29,49.9-38.4c14.7-9,24.4-17.4,37.4-23.7c12.8-6.1,28.8-10.2,52.5-7
			c22.8,3.1,53.3,13.4,74.3,33.5c25.7,20,33.6,46.7,37.8,69.1c4.1,23.1,4.5,41.9,11.7,61.4c6.6,19.5,20,39.6,38.6,64.6
			c17.8,24.3,40.9,53.4,48.3,74.5"/>
	</g>
	<g>
		<path class="st6" d="M1635.7,778c26.3-18.1,41-37.4,68-50.7c13.5-6,31-8.5,50.6-1.6c19.4,6.6,39.7,22.4,54.3,41.4
			c7,6.8,14.8,23.5,21.8,38.8c7.1,15.7,13,31.5,17.6,46c9,29.7,13.3,51.8,30.4,73.8c15.9,21.6,48.5,50.2,82.2,104.4
			c17.2,25.9,31,55.5,40.8,79.9c9.8,24.7,15.5,44.3,17.5,57.2"/>
	</g>
	<path class="st8" d="M1906.6,1015.2"/>
	<g>
		<path class="st9" d="M1609.6,751"/>
	</g>
	<path class="st10" d="M3116,2568.2c0,0,396-204,436-382c0,0,104,394,276,442"/>
	<path class="st10" d="M3418,2674.5c0,0,396-260.8,436-488.3c0,0,104,503.6,276,565"/>
	<path class="st5" d="M696,2186.2h642c0,0-612,48-642,90"/>
	<polyline class="st5" points="3116,1485.2 2418,1550.2 3156,1550.2 	"/>
	<path class="st4" d="M1658,3386.7l-1.5-175.3c-45.6,0.4-82.8,35.6-86.6,80.2c-4.7-60.5-55.5-107.9-117.1-107.6v0l-147.6,1.2
		l2,233.5l147.2-1.2h0h0l0.3,0v0c61.6-0.7,111.5-49,115.2-109.5C1574.5,3352.5,1612.3,3387.1,1658,3386.7z"/>
	<path class="st6" d="M2321.4,3353.7c60.5-4.7,107.9-55.5,107.6-117.1h0l-1.2-147.6l-233.5,2l1.2,147.2c0,0,0,0,0,0v0l0,0.3h0
		c0.7,61.6,49,111.5,109.5,115.2c-44.5,4.5-79.1,42.3-78.7,87.9l175.3-1.5C2401.2,3394.6,2366,3357.4,2321.4,3353.7z"/>
	<path class="st10" d="M3232,1139.2v441h157.4c-3.5-13.9-5.4-28.5-5.4-43.5c0-97.5,79-176.5,176.5-176.5s176.5,79,176.5,176.5
		c0,15-1.9,29.6-5.4,43.5H3888v-441H3232z"/>
	<path class="st10" d="M2319,1472.2l0-287l498,201v409l-168-116c0,0,21.8-248.1-72-282c-169-61-143.5,150-143.5,150L2319,1472.2z"/>
	<line class="st10" x1="2373.8" y1="1508" x2="2374" y2="1579.2"/>
	<rect x="942" y="946.2" class="st10" width="237" height="512"/>
	<rect x="1207" y="1056.2" class="st10" width="151" height="402"/>
	<rect x="942" y="914.2" class="st10" width="32" height="32"/>
	<rect x="993.2" y="914.2" class="st10" width="32" height="32"/>
	<rect x="1044.5" y="914.2" class="st10" width="32" height="32"/>
	<rect x="1095.8" y="914.2" class="st10" width="32" height="32"/>
	<rect x="1147" y="914.2" class="st10" width="32" height="32"/>
	<polyline class="st11" points="1446,1458.2 1309,1371.2 1207,1458.2 1044,1385.2 974,1312.2 830,1385.2 771,1425.2 729,1508.2 
		696,1664.2 	"/>
	<path class="st5" d="M1919,933.2"/>
	<path class="st5" d="M1949,1013.2"/>
	<path class="st12" d="M1945.9,2690.4c0,0,12-585,36-633c24-48,125.8-59.7,102-180s-66-72-72-180s23.7-480.3,18-540
		c-12-126-128.3-260.9-258-83c-18.5,25.4-11.4,79.9-42,113c-144,156,36,162,30,294s85,1209,85,1209"/>
	<path class="st12" d="M1839,1188c0,0,28-108.6,84-101.3s48,492.5,48,492.5l-48,372.5h-64l32-372.5
		C1891,1579.2,1837,1200.9,1839,1188"/>
	<g>
		<path class="st6" d="M1923.7,1273.4c14.5-15.4-3.7-128.1-42.6-209.2c-18.9-41.5-41.8-75.9-63-102.6
			c-21.2-27.8-40.8-47.9-52.3-85.5c-15.9-45.7-32.8-85.7-53.8-103.3c-20.3-19.1-44.7-15.8-60.6-11c-15.3,4.8-25.4,9.9-25.4,9.8
			c-0.7,2.7,30.1-10,64.2-5.7c34.3,3.2,71.8,23.2,88.5,65.9c9.6,21,22.8,42,42.2,62.3c19,20.9,44.2,41.1,69.7,75.3
			c52.9,63.7,99.7,180.8,98.9,209.7"/>
	</g>
	<g>
		<path class="st6" d="M1634.7,772.1c22.1-17.2,29.5-32.1,61.2-32.8c15,0.2,34.2,6.9,52.7,19.8c18.4,12.7,36.2,28.1,48.7,41.7
			c16.3,12.4,24.3,35.9,33.3,52.1c9.3,17.9,16,27.4,41.2,45.5c22.2,16,60.8,50.8,85.1,90.6c11.9,19,19,35.7,21.1,48
			c2.5,12.4,0.1,22,1.5,28.7"/>
	</g>
	<g>
		<path class="st6" d="M1649.7,767.4c-0.5,2.3,2.8,2.1,8.5,7.8c5.6,5.2,13.6,16.2,22.7,31c18.4,30.6,40.7,72.2,63.8,98.6
			c23.1,28,48.1,41.5,73,67.3c12.4,13.2,24.6,30.5,35.1,52.7c10.4,21.8,19,48.6,22,69.7c16.3,94.7,24.2,167,32,208.4
			c7.6,42.8,14.9,54.6,24.9,61.3"/>
	</g>
	<g>
		<path class="st6" d="M1667,753.1c-0.2,0.5,8,0.4,20.1,5c12.1,4.3,28,13.4,43.4,24.6c31.6,24.8,58.4,51.1,66.1,82.2
			c7,34.9,26.7,61.2,46.3,91.6c19.6,28.8,39.1,61.7,46.2,71.4c3.7,4.9,11.6,13.3,21.5,28.9c9.9,15.2,21.9,37.5,32.9,61.4
			c11,23.9,21.1,49.6,27.1,70.9c6.1,21.6,8.2,39,4.2,53.4"/>
	</g>
	<polygon class="st7" points="1851.6,2810.1 1844.1,2690.5 1943.9,2690.5 1933.9,2837.7 1891.8,2894.9 1842.1,2885.3 	"/>
	<path class="st10" d="M1820,2881.3l-23.1,22.8c-1.1,1-2.3,1.9-3.6,2.7l-103.3,56.1c-3.3,1.8-5.9,4.7-7.2,8.3l0,0
		c-4.2,10.9,4.5,22.4,16.1,21.4l231.6-19.6c8.3-0.7,14.6-7.7,14.5-16l-1-56.8c-0.2-11.9-5-72.6-15.4-66.8
		c-15.9,8.8-36.1,18.5-47.8,18.2c-11.5-0.3-21.7-11.2-28.7-21.3C1846.5,2822.2,1826.9,2874.5,1820,2881.3z"/>
	<path class="st13" d="M1924.7,2116l18.4-34.3l-8.9-51.3c0,0-8.5-18.2-7-35.9c1.4-17.6,6.3-31,6.3-31l-52.6-2.1
		c0,0-37.8,90.5-37.6,103.5c0.2,13,3.1,65.9,3.1,65.9s14.2-10,16-32.6c0.8-10.7,8.9-26.2,4.8-34.2l18,48.8l2.4,34.2
		c0,0-9.5,25.3-7,34.4s7.1,17.9,7.1,17.9l12.1-42.7l3.1-10.8l2.7-38.2l-11.3-43.2"/>
	<polyline class="st14" points="1913.2,2052.7 1920.5,2083.6 1912.9,2125.3 1926.4,2107.8 1929.3,2093.3 1931,2085 1930.8,2054.2 	
		"/>
	
		<rect x="1865.7" y="1911" transform="matrix(0.1574 0.9875 -0.9875 0.1574 3527.676 -222.4)" class="st15" width="56.9" height="89.9"/>
</g>
<g id="Layer_2">
	<g>
		<g>
			<path class="st16" d="M405,1345.1c7.7,0,7.7-11.9,0-11.9C397.3,1333.2,397.3,1345.1,405,1345.1L405,1345.1z"/>
		</g>
	</g>
	<path class="st12" d="M1831,979.2"/>
</g>
</svg>
