<?xml version="1.0" encoding="utf-8"?>
<!-- Generator: Adobe Illustrator 22.0.1, SVG Export Plug-In . SVG Version: 6.00 Build 0)  -->
<svg version="1.1" id="Layer_1" xmlns="http://www.w3.org/2000/svg" xmlns:xlink="http://www.w3.org/1999/xlink" x="0px" y="0px"
	 viewBox="0 0 3838.5 3104.4" style="enable-background:new 0 0 3838.5 3104.4;" xml:space="preserve">
<style type="text/css">
	.st0{fill:none;stroke:#0E4BFF;stroke-width:20;stroke-miterlimit:10;}
	.st1{fill:#275EFF;}
	.st2{fill:none;stroke:#FFBC0E;stroke-width:10;stroke-miterlimit:10;}
	.st3{fill:none;stroke:#0E4BFF;stroke-width:10;stroke-linecap:round;stroke-linejoin:round;stroke-miterlimit:10;}
	.st4{fill:none;stroke:#FFBC0E;stroke-width:10;stroke-linecap:round;stroke-linejoin:round;stroke-miterlimit:10;}
	.st5{fill:none;stroke:#0531B2;stroke-width:10;stroke-linecap:round;stroke-linejoin:round;stroke-miterlimit:10;}
	.st6{fill:#C2C2E4;stroke:#242A7C;stroke-width:10;stroke-linecap:round;stroke-linejoin:round;stroke-miterlimit:10;}
	.st7{fill:none;stroke:#0E4BFF;stroke-width:10;stroke-miterlimit:10;}
	.st8{fill:#B28100;}
	.st9{fill:#275EFF;stroke:#FFFFFF;stroke-width:10;stroke-miterlimit:10;}
	.st10{fill:#FF0DD1;stroke:#FFFFFF;stroke-width:10;stroke-miterlimit:10;}
	.st11{fill:#FFFFFF;stroke:#211AC9;stroke-width:10;stroke-miterlimit:10;}
	.st12{fill:none;stroke:#211AC9;stroke-width:10;stroke-miterlimit:10;}
	.st13{fill:#211AC9;}
	.st14{fill:#0E4BFF;}
</style>
<g id="Layer_57">
</g>
<g id="Layer_56">
</g>
<g id="Layer_55">
</g>
<g id="Layer_54">
</g>
<g id="Layer_53">
</g>
<g id="Layer_52">
</g>
<g id="Layer_51">
</g>
<g id="Layer_50">
	<path class="st0" d="M2732.5,2674.2"/>
</g>
<g id="Layer_49">
</g>
<g id="Layer_48">
</g>
<g id="Layer_47">
</g>
<g id="Layer_46">
</g>
<g id="Layer_45">
</g>
<g id="Layer_44">
</g>
<g id="Layer_43">
</g>
<g id="Layer_42">
</g>
<g id="Layer_41">
</g>
<g id="Layer_40">
</g>
<g id="Layer_39">
</g>
<g id="Layer_38">
</g>
<g id="Layer_37">
</g>
<g id="Layer_36">
</g>
<g id="Layer_35">
</g>
<g id="Layer_34">
</g>
<g id="Layer_33">
</g>
<g id="Layer_32">
</g>
<g id="Layer_31">
</g>
<g id="Layer_30">
</g>
<g id="Layer_29">
</g>
<g id="Layer_28">
</g>
<g id="Layer_27">
</g>
<g id="Layer_26">
</g>
<g id="Layer_25">
</g>
<g id="Layer_24">
</g>
<g id="Layer_23">
</g>
<g id="Layer_22">
</g>
<g id="Layer_21">
</g>
<g id="Layer_20">
</g>
<g id="Layer_19">
</g>
<g id="Layer_18">
</g>
<g id="Layer_17">
</g>
<g id="Layer_16">
</g>
<g id="Layer_15">
</g>
<g id="Layer_14">
</g>
<g id="Layer_13">
</g>
<g id="Layer_12">
</g>
<g id="Layer_11">
</g>
<g id="Layer_10">
</g>
<g id="Layer_9">
</g>
<g id="Layer_8">
</g>
<g id="Layer_7">
</g>
<g id="Layer_6">
</g>
<g id="Layer_5">
</g>
<g id="Layer_4">
</g>
<g id="Layer_3">
	<path class="st1" d="M650.5,2253.2c-89.9-24.7-358-22-358,104s-126,110,0,247s28,155,88,281s224,240,388,216s498,18,466-54
		s256-112,161-197s-355-153-307-206s114-155,0-170s33-164-87-133S737.7,2277.2,650.5,2253.2z"/>
	<path class="st2" d="M1078.5,2454.7l-1.5-175.3c-45.6,0.4-82.8,35.6-86.6,80.2c-4.7-60.5-55.5-107.9-117.1-107.6v0l-147.6,1.2
		l2,233.5l147.2-1.2h0h0l0.3,0v0c61.6-0.7,111.5-49,115.2-109.5C995,2420.5,1032.8,2455.1,1078.5,2454.7z"/>
	<path class="st2" d="M1240.5,2571.7l-1.5-175.3c-45.6,0.4-82.8,35.6-86.6,80.2c-4.7-60.5-55.5-107.9-117.1-107.6v0l-147.6,1.2
		l2,233.5l147.2-1.2h0h0l0.3,0v0c61.6-0.7,111.5-49,115.2-109.5C1157,2537.5,1194.8,2572.1,1240.5,2571.7z"/>
	<path class="st3" d="M2893.5,978.2c0,0-1904,8.1-1951,117c-66,153,201.7,168.6,278,176c128.4,12.4,516,0,516,0s251.9,3.3,311,19
		c49,13,651,115-981,337s-896,180-896,180"/>
	<path class="st4" d="M2203.9,2593.6c60.5-4.7,107.9-55.5,107.6-117.1h0l-1.2-147.6l-233.5,2l1.2,147.2c0,0,0,0,0,0l0,0l0,0.3h0
		c0.7,61.6,49,111.5,109.5,115.2c-44.5,4.5-79.1,42.3-78.7,87.9l175.3-1.5C2283.7,2634.6,2248.5,2597.4,2203.9,2593.6z"/>
	<path class="st3" d="M2962.4,1111.3c0,0-1837.2-57.9-1839.1,54.9c-2.5,142.1,1183.1-94.4,1158.3,226.7
		c-22.8,295.7-1530,279-1770,414.4"/>
	<path class="st3" d="M2864.5,768.2c0,0-2168.1,190-2186.8,332.7c-18.7,142.7,509.5,260.9,980.8,235.9
		c388.5-20.6,543,56.1,112.8,97.1c-320.9,30.6-681.6,69.5-1292.3,31.1"/>
	<path class="st5" d="M1515.5,390.2c0,0-53.5-73.1-84.4-66.1s-34.2,18.4-43.5,23.4c-9.3,5-11.8-2-16.3-10.3
		c-4.5-8.3-11.6-10.5-15.9-14.1c-4.3-3.6,2.1-8.8,2.1-8.8s-2.8,0.8-8.9,0.5c-6.1-0.3-2.6-7-4.2-14.4s-14.7-2.9-18.1-9.3
		s4.5-22.7,5.6-34c1.1-11.3-11.3-26.6-18.9-45.2s14.5-102.6,14.5-102.6"/>
	<g>
		<path class="st4" d="M1326,100.6c18.3-22.6,42.8-35.2,60.3-46.6c18.4-11.1,30-21.2,42.4-30.4c12.4-9,25.7-17.1,47.4-18.4
			c20.9-1.2,50.2,4.4,74.7,26.2c27.6,19.6,41.5,54.2,47,82.9c5.9,29.8,3.5,53.9,8.4,77.2c4.4,23.4,16.1,46,38.6,76
			c21,29.1,52.7,65.5,63.6,97.7"/>
	</g>
	<g>
		<path class="st4" d="M1326.5,100.5c16.9-19,35.9-29,49.9-38.4c14.7-9,24.4-17.4,37.4-23.7c12.8-6.1,28.8-10.2,52.5-7
			c22.8,3.1,53.3,13.4,74.3,33.5c25.7,20,33.6,46.7,37.8,69.1c4.1,23.1,4.5,41.9,11.7,61.4c6.6,19.5,20,39.6,38.6,64.6
			c17.8,24.3,40.9,53.4,48.3,74.5"/>
	</g>
	<g>
		<path class="st4" d="M1344.2,121c26.3-18.1,41-37.4,68-50.7c13.5-6,31-8.5,50.6-1.6c19.4,6.6,39.7,22.4,54.3,41.4
			c7,6.8,14.8,23.5,21.8,38.8c7.1,15.7,13,31.5,17.6,46c9,29.7,13.3,51.8,30.4,73.8c15.9,21.6,48.5,50.2,82.2,104.4
			c17.2,25.9,31,55.5,40.8,79.9c9.8,24.7,15.5,44.3,17.5,57.2"/>
	</g>
	<path class="st6" d="M1615.2,358.2"/>
	<g>
		<path class="st7" d="M1318.1,94"/>
	</g>
	<path class="st8" d="M2824.5,1911.2c0,0,396-204,436-382c0,0,104,394,276,442"/>
	<path class="st8" d="M3126.5,2017.5c0,0,396-260.8,436-488.3c0,0,104,503.6,276,565"/>
	<path class="st3" d="M404.5,1529.2h642c0,0-612,48-642,90"/>
	<polyline class="st3" points="2824.5,828.2 2126.5,893.2 2864.5,893.2 	"/>
	<path class="st2" d="M1366.5,2729.7l-1.5-175.3c-45.6,0.4-82.8,35.6-86.6,80.2c-4.7-60.5-55.5-107.9-117.1-107.6v0l-147.6,1.2
		l2,233.5l147.2-1.2h0h0l0.3,0v0c61.6-0.7,111.5-49,115.2-109.5C1283,2695.5,1320.8,2730.1,1366.5,2729.7z"/>
	<path class="st4" d="M2029.9,2696.6c60.5-4.7,107.9-55.5,107.6-117.1h0l-1.2-147.6l-233.5,2l1.2,147.2c0,0,0,0,0,0l0,0l0,0.3h0
		c0.7,61.6,49,111.5,109.5,115.2c-44.5,4.5-79.1,42.3-78.7,87.9l175.3-1.5C2109.7,2737.6,2074.5,2700.4,2029.9,2696.6z"/>
	<path class="st8" d="M2940.5,482.2v441h157.4c-3.5-13.9-5.4-28.5-5.4-43.5c0-97.5,79-176.5,176.5-176.5s176.5,79,176.5,176.5
		c0,15-1.9,29.6-5.4,43.5h156.4v-441H2940.5z"/>
	<path class="st8" d="M2027.6,815.2l0-287l498,201v409l-168-116c0,0,21.8-248.1-72-282c-169-61-143.5,150-143.5,150L2027.6,815.2z"
		/>
	<line class="st8" x1="2082.3" y1="851" x2="2082.5" y2="922.2"/>
	<rect x="650.5" y="289.2" class="st8" width="237" height="512"/>
	<rect x="915.5" y="399.2" class="st8" width="151" height="402"/>
	<rect x="650.5" y="257.2" class="st8" width="32" height="32"/>
	<rect x="701.8" y="257.2" class="st8" width="32" height="32"/>
	<rect x="753" y="257.2" class="st8" width="32" height="32"/>
	<rect x="804.3" y="257.2" class="st8" width="32" height="32"/>
	<rect x="855.5" y="257.2" class="st8" width="32" height="32"/>
	<polyline class="st9" points="1154.5,801.2 1017.5,714.2 915.5,801.2 752.5,728.2 682.5,655.2 538.5,728.2 479.5,768.2 
		437.5,851.2 404.5,1007.2 	"/>
	<path class="st3" d="M1627.5,276.2"/>
	<path class="st3" d="M1657.5,356.2"/>
	<path class="st10" d="M1654.4,2033.3c0,0,12-585,36-633s125.8-59.7,102-180c-23.8-120.3-66-72-72-180s23.7-480.3,18-540
		c-12-126-128.3-260.9-258-83c-18.5,25.4-11.4,79.9-42,113c-144,156,36,162,30,294s85,1209,85,1209"/>
	<path class="st10" d="M1547.5,531c0,0,28-108.6,84-101.3s48,492.5,48,492.5l-48,372.5h-64l32-372.5
		C1599.5,922.2,1545.5,543.9,1547.5,531"/>
	<g>
		<path class="st4" d="M1632.2,616.4c14.5-15.4-3.7-128.1-42.6-209.2c-18.9-41.5-41.8-75.9-63-102.6c-21.2-27.8-40.8-47.9-52.3-85.5
			c-15.9-45.7-32.8-85.7-53.8-103.3c-20.3-19.1-44.7-15.8-60.6-11c-15.3,4.8-25.4,9.9-25.4,9.8c-0.7,2.7,30.1-10,64.2-5.7
			c34.3,3.2,71.8,23.2,88.5,65.9c9.6,21,22.8,42,42.2,62.3c19,20.9,44.2,41.1,69.7,75.3c52.9,63.7,99.7,180.8,98.9,209.7"/>
	</g>
	<g>
		<path class="st4" d="M1343.2,115.1c22.1-17.2,29.5-32.1,61.2-32.8c15,0.2,34.2,6.9,52.7,19.8c18.4,12.7,36.2,28.1,48.7,41.7
			c16.3,12.4,24.3,35.9,33.3,52.1c9.3,17.9,16,27.4,41.2,45.5c22.2,16,60.8,50.8,85.1,90.6c11.9,19,19,35.7,21.1,48
			c2.5,12.4,0.1,22,1.5,28.7"/>
	</g>
	<g>
		<path class="st4" d="M1358.2,110.4c-0.5,2.3,2.8,2.1,8.5,7.8c5.6,5.2,13.6,16.2,22.7,31c18.4,30.6,40.7,72.2,63.8,98.6
			c23.1,28,48.1,41.5,73,67.3c12.4,13.2,24.6,30.5,35.1,52.7c10.4,21.8,19,48.6,22,69.7c16.3,94.7,24.2,167,32,208.4
			c7.6,42.8,14.9,54.6,24.9,61.3"/>
	</g>
	<g>
		<path class="st4" d="M1375.5,96.1c-0.2,0.5,8,0.4,20.1,5c12.1,4.3,28,13.4,43.4,24.6c31.6,24.8,58.4,51.1,66.1,82.2
			c7,34.9,26.7,61.2,46.3,91.6c19.6,28.8,39.1,61.7,46.2,71.4c3.7,4.9,11.6,13.3,21.5,28.9c9.9,15.2,21.9,37.5,32.9,61.4
			c11,23.9,21.1,49.6,27.1,70.9c6.1,21.6,8.2,39,4.2,53.4"/>
	</g>
	<polygon class="st5" points="1560.1,2153.1 1552.7,2033.5 1652.4,2033.5 1642.5,2180.7 1600.3,2237.9 1550.7,2228.3 	"/>
	<path class="st8" d="M1528.5,2224.3l-23.1,22.8c-1.1,1-2.3,1.9-3.6,2.6l-103.3,56.1c-3.3,1.8-5.9,4.7-7.2,8.3l0,0
		c-4.2,10.9,4.5,22.4,16.1,21.4L1639,2316c8.3-0.7,14.6-7.7,14.5-16l-1-56.8c-0.2-11.9-5-72.6-15.4-66.8
		c-15.9,8.8-36.1,18.5-47.8,18.2c-11.5-0.3-21.7-11.2-28.7-21.3C1555,2165.2,1535.5,2217.4,1528.5,2224.3z"/>
	<path class="st11" d="M1633.2,1459l18.4-34.3l-8.9-51.3c0,0-8.5-18.2-7-35.9c1.4-17.6,6.3-31,6.3-31l-52.6-2.1
		c0,0-37.8,90.5-37.6,103.5c0.2,13,3.1,65.9,3.1,65.9s14.2-10,16-32.6c0.8-10.7,8.9-26.2,4.8-34.2l18,48.8l2.4,34.2
		c0,0-9.5,25.3-7,34.4c2.4,9.1,7.1,17.9,7.1,17.9l12.1-42.7l3.1-10.8l2.7-38.2l-11.3-43.2"/>
	<polyline class="st12" points="1621.7,1395.7 1629.1,1426.6 1621.4,1468.2 1634.9,1450.7 1637.8,1436.3 1639.5,1428 1639.3,1397.2 
			"/>
	
		<rect x="1574.2" y="1254" transform="matrix(0.1574 0.9875 -0.9875 0.1574 2633.2419 -488.1649)" class="st13" width="56.9" height="89.9"/>
</g>
<g id="Layer_2">
	<g>
		<g>
			<path class="st14" d="M113.5,688.1c7.7,0,7.7-11.9,0-11.9C105.9,676.2,105.8,688.1,113.5,688.1L113.5,688.1z"/>
		</g>
	</g>
	<path class="st10" d="M1539.5,322.2"/>
</g>
</svg>
