<?xml version="1.0" encoding="utf-8"?>
<!-- Generator: Adobe Illustrator 22.0.1, SVG Export Plug-In . SVG Version: 6.00 Build 0)  -->
<svg version="1.1" id="Layer_1" xmlns="http://www.w3.org/2000/svg" xmlns:xlink="http://www.w3.org/1999/xlink" x="0px" y="0px"
	 viewBox="0 0 458.3 573.8" style="enable-background:new 0 0 458.3 573.8;" xml:space="preserve">
<style type="text/css">
	.st0{fill:none;stroke:#CC0000;stroke-width:7;stroke-miterlimit:10;}
	.st1{fill:none;stroke:#FFEC00;stroke-width:7;stroke-miterlimit:10;}
	.st2{fill:#D8976A;}
	.st3{fill:#444331;}
	.st4{fill:#F0FFEE;}
	.st5{fill:#005B93;}
	.st6{fill:#FFFFFF;}
	.st7{fill:none;stroke:#ABAAB2;stroke-width:3;stroke-miterlimit:10;}
	.st8{fill:#B1FF5F;}
	.st9{fill:#919191;}
	.st10{fill:#FF641F;}
	.st11{fill:#FFCC99;}
	.st12{fill:#247C15;}
	.st13{fill:none;stroke:#161414;stroke-width:3;stroke-miterlimit:10;}
	.st14{fill:#E20EE2;}
	.st15{fill:#082C4A;}
	.st16{fill:#95533B;}
	.st17{fill:#161414;}
	.st18{fill:none;stroke:#0C00F7;stroke-width:7;stroke-miterlimit:10;}
</style>
<circle class="st0" cx="72.7" cy="69.6" r="52.5"/>
<circle class="st0" cx="448.7" cy="195.6" r="52.5"/>
<polygon class="st1" points="180.5,179.4 93.7,282.3 208.5,330 "/>
<polygon class="st1" points="352.5,-40.6 293.7,-2.3 336.5,77.4 "/>
<g>
	<circle class="st2" cx="103.7" cy="269.4" r="35.7"/>
	<rect x="93.4" y="299.6" class="st2" width="20.7" height="18.1"/>
	<path class="st3" d="M78.8,257.6c2-2,7.5-15.2,11.2-18.1c3.7-2.9,13.6,9.4,20.2,9.4s9.6-6.8,14.6-6.8c4.9,0,10,23,12.3,23
		c2.3,0,2.6-2.2,2.6-2.2s0-4.1,0-7s-1.7-15.5-4.3-18.1c-2.6-2.6,7-4.2,7.7-7.6c0.6-3.3-9.6,2.5-6.9,1.4c2.7-1,2.6-4.5,2.6-6.1
		c0-1.5-8.6,2.4-8.6,2.4c2.7-1.3,0.7-4.6-3.5-1.3c-4.3,3.4-26.2-5.3-36.8-5.3c-10.7,0-18.5,15.5-18.5,15.5l-6.9-3.9
		c0,0,6.3,5.3,3.7,7.3c-2.6,2.1-5.2,18.3,0,22C70.5,264.1,74.7,261.7,78.8,257.6z"/>
	<path class="st4" d="M61,430.6v-93.2c0-11.5,9.4-20.8,20.8-20.8h45.6c11.5,0,20.8,9.4,20.8,20.8v93.2H61L61,430.6z"/>
	<path class="st5" d="M148.7,430.6h-43.8H61.1L60.8,499l-0.3,82.8c6.9,2.7,22.5,12.6,30,0c7.5-12.6,11.2-97.4,19-97.4
		c7.6,0,1.1,77.6,9,91.4c7.9,13.8,26.3,13.6,33,11l-1.4-85.3L148.7,430.6L148.7,430.6L148.7,430.6z"/>
	<path class="st2" d="M151.6,359.5l22.6,29.6c0.7,1,0.8,2.2,0.2,3.3L140.5,446l2.8,10.8l47.6-61.2c3.1-3.9,3.1-9.4,0-13.3L159,342.5
		L151.6,359.5z"/>
	<polygon class="st6" points="146.9,357.2 153.3,363.6 160.9,342.1 143,324 	"/>
	<line class="st7" x1="144.1" y1="460.7" x2="138.4" y2="439.9"/>
	<path class="st2" d="M57.6,359c0,0-14.7,54.5-19.5,52.8c-3.9-1.4-14.3-3.7-16.1-13.8c-1.9-10.1,27-55,28-56L57.6,359z"/>
	<polygon class="st4" points="62.5,357.2 56.2,363.6 48.6,342.1 66.4,324 	"/>
	
		<ellipse transform="matrix(0.7163 -0.6977 0.6977 0.7163 -250.7626 166.3902)" class="st8" cx="79.3" cy="391.6" rx="24.9" ry="42.6"/>
	<path class="st2" d="M34.7,410.6c5.4,3.3,48.9,4.9,53.3,6.5c4.3,1.7,4.8,8,12,13.2c7.3,5.3,10.4,4.5,13.5,0.4
		c2.9-4.1-12.2-14.4-11.5-15.5c1.1-1.7,4.1,2.8,6.5,3.7s0.2-2.8,0.2-2.8s-5.1-5.6-10.3-8.6c-5.2-3-34.9-8.8-47.7-15.2
		c-13.8-6.9-16.7,2.8-16.7,2.8S27.7,406.5,34.7,410.6z"/>
	<circle class="st2" cx="61.1" cy="375.1" r="11.2"/>
</g>
<g>
	<path class="st9" d="M338.9,581.4c5,1.7,22.2,36.4,28,18s-1.8-134.2,3.8-134.2c7.2,0,10.8,109.2,16.2,125.2c5.4,15.9,11.8-1.3,18-4
		l3.4-105.7l1.6-66.6l-36.3,1.1l-36.3,1.1l0.2,70.9L338.9,581.4z"/>
	<path class="st10" d="M380.9,374.4h-15.2c-15.7,0-28.5-12.8-28.5-28.5v-51.6c0-15.7,12.8-28.5,28.5-28.5H377
		c17.9,0,32.4,14.5,32.4,32.4v47.6C409.3,361.6,396.6,374.4,380.9,374.4z"/>
	<path class="st11" d="M347.3,347.2c0,0-27.7,25.8-35.3,40.5c-7.5,14.7-12.5,36.8-12.5,36.8l8.6,2.8l14-35.5l30.6-34.7L347.3,347.2z
		"/>
	<circle class="st11" cx="372.8" cy="303.7" r="29.8"/>
	<polygon class="st12" points="341.6,348.8 333.1,381.8 338.4,376.5 	"/>
	<polygon class="st12" points="405,348.8 408.2,376.5 403.2,373.4 415.7,391 401,399.7 379.9,404.3 381.5,417.5 434.5,396.9 
		407.8,352.4 	"/>
	<path class="st11" d="M309.5,439.4l-2-7.1l0.7-4.9l-8.6-2.8c0,0-0.7,3.7-1.1,4.9c-1.1,2.3-2.7,4.7-4.2,8.8
		c-1.1,2.9-0.1,10.2,4.2,10.6c5.4,0.5,8.1-7.2,8.1-9.6c0-2.5-0.3,7.1,1.2,7.5C310.2,447.4,309.5,439.4,309.5,439.4z"/>
	<path class="st11" d="M289.9,449.4L289.9,449.4c0.7,0.3,1.5,0.1,1.8-0.6l6.5-12.5c0.3-0.7,0.1-1.5-0.6-1.8l0,0
		c-0.7-0.3-1.5-0.1-1.7,0.3l-6.5,12.5C289,448.2,289.3,449,289.9,449.4z"/>
	<path class="st11" d="M292.4,455.6L292.4,455.6c0.7,0.3,1.5-0.1,1.7-0.8l6-16.6c0.3-0.7-0.1-1.5-0.8-1.7l0,0
		c-0.7-0.3-1.5,0.1-1.7,0.8l-6,16.6C291.3,454.6,291.7,455.4,292.4,455.6z"/>
	<path class="st11" d="M296.4,458.2L296.4,458.2c0.7,0.2,1.5-0.3,1.7-1l4.4-17.1c0.2-0.7-0.3-1.5-1-1.7l0,0c-0.7-0.2-1.5,0.3-1.7,1
		l-4.4,17.1C295.2,457.3,295.7,458,296.4,458.2z"/>
	<path class="st11" d="M300.6,459.3L300.6,459.3c0.9,0.1,1.7-0.4,1.9-1.3l3.1-16.8c0.1-0.9-0.4-1.7-1.3-1.9l0,0
		c-0.3-0.1-0.5,0-0.7-0.1c-0.3-0.1-0.6,0.1-0.7,0.5l-3.1,16.5v0.1C299.6,458.6,300,459.1,300.6,459.3z"/>
	<path class="st13" d="M364.3,301.1h-6.8c-3.2,0-5.7-2.6-5.7-5.7l0,0c0-3.2,2.6-5.7,5.7-5.7h6.8c3.2,0,5.7,2.6,5.7,5.7l0,0
		C370.1,298.5,367.5,301.1,364.3,301.1z"/>
	<path class="st13" d="M389.4,301.1h-6.8c-3.2,0-5.7-2.6-5.7-5.7l0,0c0-3.2,2.6-5.7,5.7-5.7h6.8c3.2,0,5.7,2.6,5.7,5.7l0,0
		C395.1,298.5,392.5,301.1,389.4,301.1z"/>
	<line class="st13" x1="370.1" y1="295.3" x2="376.9" y2="295.3"/>
	<path class="st12" d="M337.2,426.1h72.7v-65.8c0-9.5-7.8-17.4-17.4-17.4h-38.1c-9.5,0-17.4,7.8-17.4,17.4L337.2,426.1L337.2,426.1z
		"/>
	<polygon class="st11" points="359.5,343.1 372.8,367.6 383.9,343.1 	"/>
	<path class="st12" d="M341.6,348.8c0,0-27.9,31-30.9,36.9c-3.1,5.9-7.2,19-7.2,19l12.6,5.9l8.5-19.3l8.4-9.6"/>
	<path class="st11" d="M378.1,416.4l-6.8,1.2c0,0-5.9,0.8-8.9,2.1c-2.1,0.5-6.7,1.7-6.3,2.6c0.7,1.5,1.5,2.1,3.9,1.9
		c-1.7,3.3-6.1,5.9-3.7,8.4c0.7,0.8,1.9,0.9,1.9,0.9s-0.4,1.1,0.2,1.7c0.6,0.6,2.2,0.5,2.2,0.5s-0.3,1.4,0.3,1.9
		c0.7,0.5,2.1,0.3,2.1,0.3s0.3,2.2,3,1.5c1.7-0.5,3.1-1.2,5.1-2.7c3.7-2.7,7.7-6.7,7.7-6.7l4.5-3.8l0.8-1.5L378.1,416.4z"/>
	<polygon class="st12" points="382.2,413.4 376.4,416.7 381.7,427.7 389,423.9 	"/>
	<polygon class="st6" points="411.5,386.5 424.8,377.3 436.7,397.5 389.5,425.5 380.9,410.8 412.7,389.4 	"/>
	<g>
		<g>
			<path class="st14" d="M399,405.5c-0.4-1.6-2.3-2.2-3.5-1.1c-1.5,1.1-1.3,3.3-0.6,4.9c0.6,1.3,1.7,3.7,3.4,3.7
				c0.7,0,1.6-0.3,2.1-0.9c0.7-0.9,0.3-1.8,0.5-2.7c0.4-1.3-1.5-1.7-1.9-0.5c-0.1,0.5,0,1.1-0.1,1.6c-0.3,1-0.9,0.1-1.2-0.3
				c-0.4-0.5-0.7-1.1-1-1.8c-0.1-0.4-0.3-0.9-0.3-1.3c0-0.2,0-0.3,0.1-0.5c0-0.4,0.2-0.5,0.7-0.5C397.4,407.3,399.4,406.8,399,405.5
				L399,405.5z"/>
		</g>
	</g>
	<g>
		<g>
			<path class="st14" d="M405.2,401.8c-0.6-0.6-1.5-1.6-2.4-1.6c-0.9,0-1.4,0.7-1.5,1.5c-0.1,1.1,0.4,2.1,1.1,2.9
				c0.4,0.5,0.9,0.9,1.4,1.4c0.2,0.2,0.8,0.5,0.6,0.9c-0.3,0.4-1.2,0.2-1.4-0.3c-0.4-1.2-2.3-0.7-1.9,0.5c0.4,1.1,1.3,1.9,2.5,1.9
				c1.1,0.1,2.5-0.3,2.9-1.3s-0.2-2.1-0.9-2.8c-0.6-0.6-1.3-1.1-1.8-1.8c-0.1-0.1-0.3-0.3-0.3-0.5c0-0.3-0.2-0.4-0.5-0.2
				c0,0.1,0.7,0.7,0.9,0.8C404.6,404.1,406,402.7,405.2,401.8L405.2,401.8z"/>
		</g>
	</g>
	<g>
		<g>
			<path class="st14" d="M413.1,398.1c-1.3-1.1-5.9-3.5-5.9-0.1c0,1.2,0.8,2.4,1.7,3.1c0.5,0.3,1.3,0.5,1.7,0.9
				c0.6,0.7-0.5,0.9-1,0.7c-0.5-0.1-0.9-0.5-1.2-0.7c-1-0.8-2.4,0.6-1.4,1.4c1.1,0.9,2.3,1.7,3.8,1.3c1.2-0.3,2.2-1.3,2.1-2.7
				c-0.1-1.5-1.3-1.8-2.4-2.4c-0.4-0.3-0.7-0.5-1-0.9c-0.1-0.1-0.1-0.3-0.2-0.5c-0.1-0.5-0.1-0.5-0.1-0.3c-0.1,0,0.9,0.4,1.1,0.5
				c0.5,0.2,1,0.5,1.4,0.9C412.7,400.3,414.1,398.9,413.1,398.1L413.1,398.1z"/>
		</g>
	</g>
	<rect x="364.1" y="328.9" class="st11" width="17.3" height="15.1"/>
</g>
<g>
	<path class="st15" d="M311.8,433.6c1.4,2.1,3.3,4.2,5.2,6c24.4,20.9,12.6,58.9-3.4,81.6c-2.1,2.6-4.2,5.1-6.6,7.5
		c-15.9,16.7-35.9,26.6-57.7,26.6c-15.5,0-30.2-5.1-43.1-14c-2.6-1.8-5.1-3.7-7.4-5.9c-2.8-3.5-6.4-6.2-7.3-10.7
		c-0.9-22.6-9-41.5-26.2-58.7c-7.2-7.2-4.5-19.9-2.7-29.8c0.3-2.9,0.4-5.7,0.2-8.5c-0.2-2.8-0.5-5.6-0.8-8.4
		c-5.7-18.3-2.1-38.2,17.8-47.2c19-9,12.6-34.3,24.4-50.6c2.7-2.7,6.3-5.4,10-6.9c2.7-1.4,5.5-2.8,8.3-3.9
		c8.5-3.4,17.5-5.2,26.8-5.2c6.2,0,12.3,0.8,18.1,2.3c3,0.8,5.9,1.7,8.7,2.9c6.5,2.6,14.6,5.3,18.2,11.6c4.4,7.8,8.4,15.4,12.6,22.8
		c1.4,2.4,2.9,5,4.3,7.3c18.1,19.4,26.3,44.7,3.7,66.4c-1.8,1.8-4.5,5.4-4.8,8.8C310.2,429.9,310.5,431.8,311.8,433.6z"/>
	<g>
		<path class="st6" d="M296.3,575.2v-36.4h-90.7v40.5c12.5,3.7,25.7,5.7,39.5,5.7C263,585,280.4,581.5,296.3,575.2z"/>
	</g>
	
		<ellipse transform="matrix(0.1602 -0.9871 0.9871 0.1602 -152.0729 558.6669)" class="st16" cx="252.3" cy="368.7" rx="40.5" ry="40.5"/>
	<rect x="240.5" y="402.9" class="st16" width="23.5" height="20.5"/>
	<rect x="208.7" y="520.3" class="st16" width="84.7" height="18.5"/>
	<path class="st16" d="M287,435c0,0,37.7,35,47.9,55c10.2,20,17,49.9,17,49.9l-11.6,3.8l-19.1-48.1l-41.5-47.1L287,435z"/>
	<path class="st6" d="M300.6,523.3h-98.7v-77.6c0-12.9,10.6-23.6,23.6-23.6h51.6c12.9,0,23.6,10.6,23.6,23.6L300.6,523.3
		L300.6,523.3z"/>
	<polygon class="st6" points="294.5,437.1 314.8,457.5 306.2,481.9 299,474.7 	"/>
	<polygon class="st6" points="208.7,437.1 195.7,454.8 197,481.9 204.2,474.7 	"/>
	<rect x="205.5" y="547.2" class="st17" width="90.7" height="3.8"/>
	<rect x="205.5" y="558.1" class="st17" width="90.7" height="3.8"/>
	<rect x="205.5" y="569" class="st17" width="90.7" height="3.8"/>
	<rect x="205.5" y="579.9" class="st17" width="90.7" height="3.8"/>
	<path class="st16" d="M338.2,560l2.7-9.7l-0.9-6.7l11.6-3.8c0,0,0.9,5.1,1.5,6.6c1.4,3.1,3.6,6.4,5.7,11.9
		c1.4,3.9,0.1,13.8-5.7,14.4c-7.3,0.6-11-9.8-11-13c0-3.3,0.4,9.7-1.6,10.2C337.2,570.9,338.2,560,338.2,560z"/>
	<path class="st16" d="M364.7,573.6L364.7,573.6c-0.9,0.5-2,0.1-2.4-0.8l-8.8-17c-0.5-0.9-0.1-2,0.8-2.4l0,0c0.9-0.5,2-0.1,2.3,0.4
		l8.8,17C366,571.9,365.6,573.1,364.7,573.6z"/>
	<path class="st16" d="M361.4,582L361.4,582c-1,0.4-2-0.2-2.3-1.1l-8.1-22.5c-0.4-1,0.2-2,1.1-2.3l0,0c1-0.4,2,0.2,2.3,1.1l8.1,22.5
		C362.9,580.5,362.3,581.6,361.4,582z"/>
	<path class="st16" d="M356,585.5L356,585.5c-1,0.3-2-0.4-2.3-1.4l-6-23.2c-0.3-1,0.4-2,1.4-2.3l0,0c1-0.3,2,0.4,2.3,1.4l6,23.2
		C357.6,584.2,357,585.2,356,585.5z"/>
	<path class="st16" d="M350.3,586.9L350.3,586.9c-1.2,0.2-2.3-0.5-2.6-1.8l-4.2-22.8c-0.2-1.2,0.5-2.3,1.8-2.6l0,0
		c0.4-0.1,0.7,0,1-0.1c0.5-0.1,0.8,0.2,0.9,0.6l4.2,22.4v0.1C351.6,586,351.1,586.8,350.3,586.9z"/>
</g>
<rect x="219.7" y="80.6" class="st18" width="68.3" height="68.3"/>
<rect x="-35.5" y="237.1" class="st18" width="68.3" height="68.3"/>
</svg>
