<?xml version="1.0" encoding="utf-8"?>
<!-- Generator: Adobe Illustrator 22.0.1, SVG Export Plug-In . SVG Version: 6.00 Build 0)  -->
<svg version="1.1" id="Layer_1" xmlns="http://www.w3.org/2000/svg" xmlns:xlink="http://www.w3.org/1999/xlink" x="0px" y="0px"
	 viewBox="0 0 863.2 589" style="enable-background:new 0 0 863.2 589;" xml:space="preserve">
<style type="text/css">
	.st0{fill:#FFFFFF;}
	.st1{fill:#082C4A;}
	.st2{fill:#95533B;}
	.st3{fill:#CC0000;}
	.st4{fill:#161414;}
	.st5{fill:#FFCC99;}
	.st6{fill:#755B32;}
	.st7{fill:none;}
	.st8{fill:#005B93;}
	.st9{fill:none;stroke:#ABAAB2;stroke-width:3;stroke-miterlimit:10;}
	.st10{fill:#B1FF5F;}
	.st11{fill:#C6C6C6;}
	.st12{fill:#FF641F;}
	.st13{fill:#247C15;}
	.st14{fill:none;stroke:#161414;stroke-width:3;stroke-miterlimit:10;}
	.st15{fill:#E20EE2;}
</style>
<g>
	<circle class="st0" cx="710.4" cy="434.1" r="152.7"/>
	<path class="st1" d="M784.5,419.1c1.6,2.3,3.6,4.6,5.8,6.7c27,23.2,14,65.2-3.8,90.4c-2.3,2.9-4.7,5.7-7.3,8.3
		C761.6,543,739.4,554,715.3,554c-17.2,0-33.5-5.6-47.7-15.5c-2.9-2-5.6-4.1-8.2-6.5c-3.1-3.9-7.1-6.9-8.1-11.9c-1-25-10-46-29-65
		c-8-8-5-22-3-33c0.3-3.2,0.4-6.3,0.2-9.4c-0.2-3.1-0.5-6.2-0.9-9.3c-6.3-20.3-2.3-42.3,19.7-52.3c21-10,14-38,27-56
		c3-3,7-6,11.1-7.6c3-1.6,6.1-3.1,9.2-4.3c9.4-3.8,19.4-5.8,29.7-5.8c6.9,0,13.6,0.9,20.1,2.6c3.3,0.9,6.5,1.9,9.6,3.2
		c7.2,2.9,16.2,5.9,20.2,12.9c4.9,8.6,9.3,17.1,14,25.3c1.6,2.7,3.2,5.5,4.8,8.1c20.1,21.5,29.1,49.5,4.1,73.5c-2,2-5,6-5.3,9.8
		C782.7,415,783.1,417.1,784.5,419.1z"/>
	<g>
		<path class="st0" d="M767.3,575.9v-40.3H666.8v44.9c13.8,4.1,28.5,6.3,43.7,6.3C730.5,586.8,749.7,582.9,767.3,575.9z"/>
	</g>
	<circle class="st2" cx="718.6" cy="347.2" r="44.8"/>
	<rect x="705.6" y="385.1" class="st2" width="26" height="22.7"/>
	<rect x="670.3" y="515.1" class="st2" width="93.8" height="20.5"/>
	<path class="st2" d="M757,420.6c0,0,41.7,38.8,53,60.9c11.3,22.2,18.8,55.3,18.8,55.3l-12.9,4.2l-21.1-53.3l-46-52.2L757,420.6z"/>
	<path class="st3" d="M772.1,518.4H662.8v-85.9c0-14.3,11.7-26.1,26.1-26.1h57.2c14.3,0,26.1,11.7,26.1,26.1V518.4z"/>
	<polygon class="st3" points="765.4,423 787.8,445.6 778.3,472.6 770.3,464.6 	"/>
	<polygon class="st3" points="670.3,423 655.9,442.6 657.4,472.6 665.4,464.6 	"/>
	<rect x="666.8" y="544.9" class="st4" width="100.5" height="4.2"/>
	<rect x="666.8" y="557" class="st4" width="100.5" height="4.2"/>
	<rect x="666.8" y="569" class="st4" width="100.5" height="4.2"/>
	<rect x="666.8" y="581.1" class="st4" width="100.5" height="4.2"/>
	<path class="st2" d="M813.8,559.1l3-10.7l-1-7.4l12.9-4.2c0,0,1,5.6,1.7,7.3c1.6,3.4,4,7.1,6.3,13.2c1.6,4.3,0.1,15.3-6.3,15.9
		c-8.1,0.7-12.2-10.8-12.2-14.4c0-3.7,0.4,10.7-1.8,11.3C812.6,571.1,813.8,559.1,813.8,559.1z"/>
	<path class="st2" d="M843.1,574.1L843.1,574.1c-1,0.5-2.2,0.1-2.7-0.9l-9.8-18.8c-0.5-1-0.1-2.2,0.9-2.7l0,0c1-0.5,2.2-0.1,2.5,0.4
		l9.8,18.8C844.5,572.3,844.1,573.6,843.1,574.1z"/>
	<path class="st2" d="M839.5,583.4L839.5,583.4c-1.1,0.4-2.2-0.2-2.6-1.2l-9-24.9c-0.4-1.1,0.2-2.2,1.2-2.6l0,0
		c1.1-0.4,2.2,0.2,2.6,1.2l9,24.9C841.1,581.8,840.5,583,839.5,583.4z"/>
	<path class="st2" d="M833.5,587.3L833.5,587.3c-1.1,0.3-2.2-0.4-2.5-1.5l-6.6-25.7c-0.3-1.1,0.4-2.2,1.5-2.5l0,0
		c1.1-0.3,2.2,0.4,2.5,1.5l6.6,25.7C835.2,585.9,834.6,587,833.5,587.3z"/>
	<path class="st2" d="M827.2,588.9L827.2,588.9c-1.3,0.2-2.6-0.6-2.9-2l-4.7-25.2c-0.2-1.3,0.6-2.6,2-2.9l0,0c0.4-0.1,0.8,0,1.1-0.1
		c0.5-0.1,0.9,0.2,1,0.7l4.6,24.8c0,0,0,0.1,0,0.1C828.6,587.9,828,588.8,827.2,588.9z"/>
</g>
<g>
	<circle class="st0" cx="152.7" cy="436.2" r="152.7"/>
	<circle class="st5" cx="154.7" cy="332.4" r="44.8"/>
	<rect x="141.7" y="370.3" class="st5" width="26" height="22.7"/>
	<path class="st6" d="M199.5,323.6c6.5-4.6,3.3-25,0-27.6c-3.3-2.6,4.6-9.2,4.6-9.2l-8.7,4.9c0,0-9.8-19.5-23.2-19.5
		c-13.3,0-40.8,10.9-46.2,6.6c-5.3-4.2-7.8,0-4.4,1.6c0,0-10.8-4.9-10.8-3c0,2-0.1,6.4,3.3,7.7c3.3,1.3-9.5-6-8.7-1.8
		s12.9,6.2,9.6,9.5c-3.3,3.3-5.4,19.1-5.4,22.7c0,3.6,0,8.8,0,8.8s0.4,2.8,3.3,2.8s9.2-28.9,15.4-28.9c6.2,0,10,8.5,18.3,8.5
		c8.3,0,20.8-15.5,25.4-11.8c4.6,3.6,11.5,20.2,14,22.7C191.1,322.8,196.4,325.8,199.5,323.6z"/>
	<path class="st1" d="M208.2,534.7H98.9v-117c0-14.3,11.7-26.1,26.1-26.1h57.2c14.3,0,26.1,11.7,26.1,26.1V534.7z"/>
	<path class="st7" d="M152.7,283.5C68.4,283.5,0,351.9,0,436.2C0,501.4,40.8,557.1,98.3,579v-44.3h109.9v43.9
		c56.9-22.2,97.3-77.6,97.3-142.4C305.5,351.9,237.1,283.5,152.7,283.5z"/>
	<path class="st8" d="M98.3,534.7V579c16.9,6.5,35.3,10,54.4,10c19.6,0,38.3-3.7,55.5-10.4v-43.9H98.3z"/>
	<path class="st5" d="M85.4,424.2l-40,49.8c-3.9,4.9-3.9,11.8,0,16.7l59.7,76.8l3.5-13.5l-42.5-67.2c-0.8-1.3-0.7-2.9,0.2-4.1
		l28.3-37.2L85.4,424.2z"/>
	<polygon class="st1" points="105.4,401 83,423.6 92.5,450.6 100.5,442.6 	"/>
	<line class="st9" x1="111.2" y1="546.4" x2="104" y2="572.4"/>
	<path class="st5" d="M222.2,423.6c1.2,1.2,37.5,57.5,35.1,70.2c-2.3,12.7-15.3,15.5-20.2,17.3c-6,2.2-24.5-66.2-24.5-66.2
		L222.2,423.6z"/>
	<polygon class="st1" points="201.5,401 223.9,423.6 214.4,450.6 206.4,442.6 	"/>
	
		<ellipse transform="matrix(0.6977 -0.7163 0.7163 0.6977 -291.9435 279.6391)" class="st10" cx="185.4" cy="485.8" rx="53.5" ry="31.2"/>
	<path class="st5" d="M242.1,490.1c0,0-3.6-12.2-20.9-3.5c-16.1,8-53.4,15.3-59.9,19.1c-6.5,3.8-12.9,10.8-12.9,10.8
		s-2.6,4.7,0.3,3.5c2.9-1.2,6.7-6.8,8.1-4.7c0.9,1.4-18.1,14.4-14.4,19.5c3.8,5.1,7.8,6.2,16.9-0.5c9.1-6.6,9.7-14.5,15.1-16.6
		c5.5-2,60.1-4,66.9-8.1C250.1,504.4,242.1,490.1,242.1,490.1z"/>
	<circle class="st5" cx="208.2" cy="465.1" r="14.1"/>
</g>
<g>
	<circle class="st0" cx="438.4" cy="152.7" r="152.7"/>
	<path class="st11" d="M390.4,297.8c15.1,5,31.2,7.7,48,7.7c21.7,0,42.3-4.5,61-12.7V231l-109,3.4V297.8z"/>
	<path class="st12" d="M455.8,171.3h-22.9c-23.6,0-42.8-19.2-42.8-42.8V51c0-23.6,19.2-42.8,42.8-42.8h17.1
		c26.9,0,48.7,21.8,48.7,48.7v71.6C498.6,152.1,479.4,171.3,455.8,171.3z"/>
	<path class="st5" d="M405.3,130.5c0,0-41.7,38.8-53,60.9s-18.8,55.3-18.8,55.3l12.9,4.2l21.1-53.3l46-52.2L405.3,130.5z"/>
	<circle class="st5" cx="443.6" cy="65" r="44.8"/>
	<polygon class="st13" points="396.8,132.9 384,182.5 392,174.5 	"/>
	<polygon class="st13" points="492,132.9 496.8,174.5 489.3,169.8 508.2,196.3 486.1,209.4 454.4,216.3 456.7,236.1 536.4,205.1 
		496.2,138.2 	"/>
	<path class="st5" d="M348.5,269l-3-10.7l1-7.4l-12.9-4.2c0,0-1,5.6-1.7,7.3c-1.6,3.4-4,7.1-6.3,13.3c-1.6,4.3-0.1,15.3,6.3,15.9
		c8.1,0.7,12.2-10.8,12.2-14.4c0-3.7-0.4,10.7,1.8,11.3C349.6,281.1,348.5,269,348.5,269z"/>
	<path class="st5" d="M319.1,284L319.1,284c1,0.5,2.2,0.1,2.7-0.9l9.8-18.8c0.5-1,0.1-2.2-0.9-2.7h0c-1-0.5-2.2-0.1-2.5,0.4
		l-9.8,18.8C317.7,282.3,318.1,283.5,319.1,284z"/>
	<path class="st5" d="M322.8,293.4L322.8,293.4c1.1,0.4,2.2-0.2,2.6-1.2l9-24.9c0.4-1.1-0.2-2.2-1.2-2.6v0c-1.1-0.4-2.2,0.2-2.6,1.2
		l-9,24.9C321.1,291.8,321.7,293,322.8,293.4z"/>
	<path class="st5" d="M328.8,297.3L328.8,297.3c1.1,0.3,2.2-0.4,2.5-1.5l6.6-25.7c0.3-1.1-0.4-2.2-1.5-2.5h0
		c-1.1-0.3-2.2,0.4-2.5,1.5l-6.6,25.7C327,295.9,327.7,297,328.8,297.3z"/>
	<path class="st5" d="M335.1,298.9L335.1,298.9c1.3,0.2,2.6-0.6,2.9-2l4.7-25.2c0.2-1.3-0.6-2.6-2-2.9l0,0c-0.4-0.1-0.8,0-1.1-0.1
		c-0.5-0.1-0.9,0.2-1,0.7l-4.6,24.8c0,0,0,0.1,0,0.1C333.6,297.9,334.2,298.7,335.1,298.9z"/>
	<path class="st14" d="M430.9,61.1h-10.2c-4.8,0-8.6-3.9-8.6-8.6v0c0-4.8,3.9-8.6,8.6-8.6h10.2c4.8,0,8.6,3.9,8.6,8.6v0
		C439.6,57.2,435.7,61.1,430.9,61.1z"/>
	<path class="st14" d="M468.6,61.1h-10.2c-4.8,0-8.6-3.9-8.6-8.6v0c0-4.8,3.9-8.6,8.6-8.6h10.2c4.8,0,8.6,3.9,8.6,8.6v0
		C477.2,57.2,473.3,61.1,468.6,61.1z"/>
	<line class="st14" x1="439.6" y1="52.4" x2="449.8" y2="52.4"/>
	<path class="st13" d="M390.1,249.1h109.3v-98.9c0-14.3-11.7-26.1-26.1-26.1h-57.2c-14.3,0-26.1,11.7-26.1,26.1V249.1z"/>
	<polygon class="st5" points="423.6,124.2 443.6,161.1 460.3,124.2 	"/>
	<path class="st13" d="M396.8,132.9c0,0-41.9,46.6-46.5,55.5s-10.8,28.6-10.8,28.6l19,8.9l12.8-29l12.7-14.5"/>
	<path class="st5" d="M451.7,234.4l-10.2,1.8c0,0-8.9,1.2-13.4,3.2c-3.1,0.7-10.1,2.5-9.5,3.9c1,2.2,2.2,3.1,5.9,2.9
		c-2.6,4.9-9.1,8.9-5.6,12.7c1.1,1.2,2.9,1.3,2.9,1.3s-0.6,1.6,0.3,2.5c0.9,0.9,3.3,0.8,3.3,0.8s-0.5,2.1,0.4,2.9
		c1,0.8,3.2,0.5,3.2,0.5s0.4,3.3,4.5,2.3c2.6-0.7,4.6-1.8,7.7-4.1c5.5-4,11.6-10,11.6-10l6.7-5.7l1.2-2.2L451.7,234.4z"/>
	<polygon class="st13" points="457.8,229.9 449,234.9 457,251.4 468,245.7 	"/>
	<polygon class="st0" points="501.8,189.5 521.9,175.7 539.7,206.1 468.7,248.2 455.9,226 503.7,193.9 	"/>
	<g>
		<g>
			<path class="st15" d="M483.1,218.1c-0.6-2.4-3.4-3.3-5.3-1.7c-2.3,1.7-1.9,5-0.9,7.3c0.9,2,2.5,5.6,5.1,5.6
				c1.1,0,2.4-0.5,3.1-1.4c1-1.3,0.4-2.7,0.8-4.1c0.6-1.9-2.3-2.6-2.9-0.8c-0.2,0.8,0,1.7-0.2,2.4c-0.4,1.5-1.3,0.2-1.8-0.5
				c-0.6-0.8-1.1-1.7-1.5-2.7c-0.2-0.6-0.4-1.3-0.4-1.9c0-0.3,0-0.5,0.1-0.8c0-0.6,0.3-0.8,1-0.7C480.7,220.8,483.6,220,483.1,218.1
				L483.1,218.1z"/>
		</g>
	</g>
	<g>
		<g>
			<path class="st15" d="M492.3,212.5c-0.9-0.9-2.2-2.4-3.6-2.4c-1.3,0-2.1,1.1-2.2,2.3c-0.2,1.6,0.6,3.2,1.6,4.4
				c0.6,0.8,1.4,1.4,2.1,2.1c0.3,0.3,1.2,0.8,0.9,1.3c-0.4,0.6-1.8,0.3-2.1-0.4c-0.6-1.8-3.5-1-2.9,0.8c0.6,1.7,1.9,2.8,3.7,2.9
				c1.6,0.1,3.7-0.4,4.4-2c0.7-1.6-0.3-3.1-1.4-4.2c-0.9-0.9-2-1.7-2.7-2.7c-0.2-0.2-0.4-0.5-0.4-0.8c0-0.5-0.3-0.6-0.7-0.3
				c0,0.2,1.1,1.1,1.3,1.2C491.5,216,493.6,213.9,492.3,212.5L492.3,212.5z"/>
		</g>
	</g>
	<g>
		<g>
			<path class="st15" d="M504.2,206.9c-1.9-1.6-8.8-5.2-8.8-0.1c0,1.8,1.2,3.6,2.6,4.7c0.7,0.5,2,0.8,2.6,1.4
				c0.9,1.1-0.8,1.3-1.5,1.1c-0.7-0.1-1.3-0.7-1.8-1.1c-1.5-1.2-3.6,0.9-2.1,2.1c1.6,1.3,3.5,2.5,5.7,2c1.8-0.4,3.3-2,3.1-4
				c-0.2-2.2-2-2.7-3.6-3.6c-0.6-0.4-1.1-0.8-1.5-1.4c-0.1-0.2-0.2-0.4-0.3-0.7c-0.1-0.7-0.2-0.8-0.2-0.4c-0.1,0,1.3,0.6,1.6,0.7
				c0.8,0.3,1.5,0.8,2.1,1.3C503.6,210.2,505.7,208.1,504.2,206.9L504.2,206.9z"/>
		</g>
	</g>
	
		<rect x="430.6" y="102.8" transform="matrix(-1 -4.498503e-11 4.498503e-11 -1 887.2399 228.3642)" class="st5" width="26" height="22.7"/>
</g>
</svg>
