<?xml version="1.0" encoding="utf-8"?>
<!-- Generator: Adobe Illustrator 22.0.1, SVG Export Plug-In . SVG Version: 6.00 Build 0)  -->
<svg version="1.1" id="Layer_1" xmlns="http://www.w3.org/2000/svg" xmlns:xlink="http://www.w3.org/1999/xlink" x="0px" y="0px"
	 viewBox="0 0 520.1 361.8" style="enable-background:new 0 0 520.1 361.8;" xml:space="preserve">
<style type="text/css">
	.st0{fill:#D8976A;}
	.st1{fill:#444331;}
	.st2{fill:#FFFFFF;}
	.st3{fill:#005B93;}
	.st4{fill:none;stroke:#ABAAB2;stroke-width:3;stroke-miterlimit:10;}
	.st5{fill:#B1FF5F;}
	.st6{fill:#919191;}
	.st7{fill:#FF641F;}
	.st8{fill:#FFCC99;}
	.st9{fill:#247C15;}
	.st10{fill:none;stroke:#161414;stroke-width:3;stroke-miterlimit:10;}
	.st11{fill:#E20EE2;}
	.st12{fill:#082C4A;}
	.st13{fill:#95533B;}
	.st14{fill:#CC0000;}
	.st15{fill:#161414;}
</style>
<g>
	<circle class="st0" cx="110.3" cy="60.2" r="44.8"/>
	<rect x="97.3" y="98.1" class="st0" width="26" height="22.7"/>
	<path class="st1" d="M79,45.4c2.5-2.5,9.4-19.1,14-22.7c4.6-3.7,17.1,11.8,25.4,11.8s12.1-8.5,18.3-8.5s12.5,28.9,15.4,28.9
		c2.9,0,3.3-2.8,3.3-2.8s0-5.2,0-8.8s-2.1-19.4-5.4-22.7s8.8-5.3,9.6-9.5s-12,3.1-8.7,1.8c3.4-1.3,3.3-5.7,3.3-7.7
		c0-1.9-10.8,3-10.8,3c3.4-1.6,0.9-5.8-4.4-1.6C133.6,10.9,106.1,0,92.8,0C79.4,0,69.6,19.5,69.6,19.5l-8.7-4.9c0,0,7.9,6.6,4.6,9.2
		s-6.5,23,0,27.6C68.6,53.6,73.9,50.6,79,45.4z"/>
	<path class="st2" d="M56.7,262.5v-117c0-14.4,11.8-26.1,26.1-26.1H140c14.4,0,26.1,11.8,26.1,26.1v117H56.8H56.7z"/>
	<path class="st3" d="M166.7,262.5H56.8V364c17.2,6.7,35.9,10.4,55.5,10.4c19.1,0,37.5-3.5,54.4-10V262.5L166.7,262.5z"/>
	<path class="st0" d="M170.4,173.3l28.3,37.2c0.9,1.2,1,2.8,0.2,4.1l-42.5,67.2l3.5,13.5l59.7-76.8c3.9-4.9,3.9-11.8,0-16.7
		l-40-49.8L170.4,173.3z"/>
	<polygon class="st2" points="164.5,170.4 172.5,178.4 182,151.4 159.6,128.8 	"/>
	<line class="st4" x1="161" y1="300.2" x2="153.8" y2="274.2"/>
	<path class="st0" d="M52.4,172.7c0,0-18.5,68.4-24.5,66.2c-4.9-1.8-17.9-4.6-20.2-17.3c-2.4-12.7,33.9-69,35.1-70.2L52.4,172.7z"/>
	<polygon class="st2" points="58.6,170.4 50.6,178.4 41.1,151.4 63.5,128.8 	"/>
	
		<ellipse transform="matrix(0.7163 -0.6977 0.6977 0.7163 -126.4495 116.113)" class="st5" cx="79.6" cy="213.6" rx="31.2" ry="53.5"/>
	<path class="st0" d="M23.7,237.4c6.8,4.1,61.4,6.1,66.9,8.1c5.4,2.1,6,10,15.1,16.6c9.1,6.7,13.1,5.6,16.9,0.5
		c3.7-5.1-15.3-18.1-14.4-19.5c1.4-2.1,5.2,3.5,8.1,4.7c2.9,1.2,0.3-3.5,0.3-3.5s-6.4-7-12.9-10.8c-6.5-3.8-43.8-11.1-59.9-19.1
		c-17.3-8.7-20.9,3.5-20.9,3.5S14.9,232.2,23.7,237.4z"/>
	<circle class="st0" cx="56.8" cy="192.9" r="14.1"/>
</g>
<g>
	<path class="st6" d="M370.8,410.8c15.1,5,35.1-28.5,51.9-28.5c21.7,0,38.4-0.8,57.1-9V244.2l-109,3.4V410.8z"/>
	<path class="st7" d="M436.2,184.5h-22.9c-23.6,0-42.8-19.2-42.8-42.8V64.2c0-23.6,19.2-42.8,42.8-42.8h17.1
		c26.9,0,48.7,21.8,48.7,48.7v71.6C479,165.3,459.8,184.5,436.2,184.5z"/>
	<path class="st8" d="M385.7,143.7c0,0-41.7,38.8-53,60.9s-18.8,55.3-18.8,55.3l12.9,4.2l21.1-53.3l46-52.2L385.7,143.7z"/>
	<circle class="st8" cx="424" cy="78.2" r="44.8"/>
	<polygon class="st9" points="377.2,146.1 364.4,195.7 372.4,187.7 	"/>
	<polygon class="st9" points="472.4,146.1 477.2,187.7 469.7,183 488.6,209.5 466.5,222.6 434.8,229.5 437.1,249.3 516.8,218.3 
		476.6,151.4 	"/>
	<path class="st8" d="M328.9,282.2l-3-10.7l1-7.4l-12.9-4.2c0,0-1,5.6-1.7,7.3c-1.6,3.4-4,7.1-6.3,13.3c-1.6,4.3-0.1,15.3,6.3,15.9
		c8.1,0.7,12.2-10.8,12.2-14.4c0-3.7-0.4,10.7,1.8,11.3C330,294.3,328.9,282.2,328.9,282.2z"/>
	<path class="st8" d="M299.5,297.2L299.5,297.2c1,0.5,2.2,0.1,2.7-0.9l9.8-18.8c0.5-1,0.1-2.2-0.9-2.7l0,0c-1-0.5-2.2-0.1-2.5,0.4
		l-9.8,18.8C298.1,295.5,298.5,296.7,299.5,297.2z"/>
	<path class="st8" d="M303.2,306.6L303.2,306.6c1.1,0.4,2.2-0.2,2.6-1.2l9-24.9c0.4-1.1-0.2-2.2-1.2-2.6l0,0
		c-1.1-0.4-2.2,0.2-2.6,1.2l-9,24.9C301.5,305,302.1,306.2,303.2,306.6z"/>
	<path class="st8" d="M309.2,310.5L309.2,310.5c1.1,0.3,2.2-0.4,2.5-1.5l6.6-25.7c0.3-1.1-0.4-2.2-1.5-2.5l0,0
		c-1.1-0.3-2.2,0.4-2.5,1.5l-6.6,25.7C307.4,309.1,308.1,310.2,309.2,310.5z"/>
	<path class="st8" d="M315.5,312.1L315.5,312.1c1.3,0.2,2.6-0.6,2.9-2l4.7-25.2c0.2-1.3-0.6-2.6-2-2.9l0,0c-0.4-0.1-0.8,0-1.1-0.1
		c-0.5-0.1-0.9,0.2-1,0.7l-4.6,24.8v0.1C314,311.1,314.6,311.9,315.5,312.1z"/>
	<path class="st10" d="M411.3,74.3h-10.2c-4.8,0-8.6-3.9-8.6-8.6l0,0c0-4.8,3.9-8.6,8.6-8.6h10.2c4.8,0,8.6,3.9,8.6,8.6l0,0
		C420,70.4,416.1,74.3,411.3,74.3z"/>
	<path class="st10" d="M449,74.3h-10.2c-4.8,0-8.6-3.9-8.6-8.6l0,0c0-4.8,3.9-8.6,8.6-8.6H449c4.8,0,8.6,3.9,8.6,8.6l0,0
		C457.6,70.4,453.7,74.3,449,74.3z"/>
	<line class="st10" x1="420" y1="65.6" x2="430.2" y2="65.6"/>
	<path class="st9" d="M370.5,262.3h109.3v-98.9c0-14.3-11.7-26.1-26.1-26.1h-57.2c-14.3,0-26.1,11.7-26.1,26.1v98.9H370.5z"/>
	<polygon class="st8" points="404,137.4 424,174.3 440.7,137.4 	"/>
	<path class="st9" d="M377.2,146.1c0,0-41.9,46.6-46.5,55.5s-10.8,28.6-10.8,28.6l19,8.9l12.8-29l12.7-14.5"/>
	<path class="st8" d="M432.1,247.6l-10.2,1.8c0,0-8.9,1.2-13.4,3.2c-3.1,0.7-10.1,2.5-9.5,3.9c1,2.2,2.2,3.1,5.9,2.9
		c-2.6,4.9-9.1,8.9-5.6,12.7c1.1,1.2,2.9,1.3,2.9,1.3s-0.6,1.6,0.3,2.5s3.3,0.8,3.3,0.8s-0.5,2.1,0.4,2.9c1,0.8,3.2,0.5,3.2,0.5
		s0.4,3.3,4.5,2.3c2.6-0.7,4.6-1.8,7.7-4.1c5.5-4,11.6-10,11.6-10l6.7-5.7l1.2-2.2L432.1,247.6z"/>
	<polygon class="st9" points="438.2,243.1 429.4,248.1 437.4,264.6 448.4,258.9 	"/>
	<polygon class="st2" points="482.2,202.7 502.3,188.9 520.1,219.3 449.1,261.4 436.3,239.2 484.1,207.1 	"/>
	<g>
		<g>
			<path class="st11" d="M463.5,231.3c-0.6-2.4-3.4-3.3-5.3-1.7c-2.3,1.7-1.9,5-0.9,7.3c0.9,2,2.5,5.6,5.1,5.6
				c1.1,0,2.4-0.5,3.1-1.4c1-1.3,0.4-2.7,0.8-4.1c0.6-1.9-2.3-2.6-2.9-0.8c-0.2,0.8,0,1.7-0.2,2.4c-0.4,1.5-1.3,0.2-1.8-0.5
				c-0.6-0.8-1.1-1.7-1.5-2.7c-0.2-0.6-0.4-1.3-0.4-1.9c0-0.3,0-0.5,0.1-0.8c0-0.6,0.3-0.8,1-0.7C461.1,234,464,233.2,463.5,231.3
				L463.5,231.3z"/>
		</g>
	</g>
	<g>
		<g>
			<path class="st11" d="M472.7,225.7c-0.9-0.9-2.2-2.4-3.6-2.4c-1.3,0-2.1,1.1-2.2,2.3c-0.2,1.6,0.6,3.2,1.6,4.4
				c0.6,0.8,1.4,1.4,2.1,2.1c0.3,0.3,1.2,0.8,0.9,1.3c-0.4,0.6-1.8,0.3-2.1-0.4c-0.6-1.8-3.5-1-2.9,0.8c0.6,1.7,1.9,2.8,3.7,2.9
				c1.6,0.1,3.7-0.4,4.4-2c0.7-1.6-0.3-3.1-1.4-4.2c-0.9-0.9-2-1.7-2.7-2.7c-0.2-0.2-0.4-0.5-0.4-0.8c0-0.5-0.3-0.6-0.7-0.3
				c0,0.2,1.1,1.1,1.3,1.2C471.9,229.2,474,227.1,472.7,225.7L472.7,225.7z"/>
		</g>
	</g>
	<g>
		<g>
			<path class="st11" d="M484.6,220.1c-1.9-1.6-8.8-5.2-8.8-0.1c0,1.8,1.2,3.6,2.6,4.7c0.7,0.5,2,0.8,2.6,1.4
				c0.9,1.1-0.8,1.3-1.5,1.1c-0.7-0.1-1.3-0.7-1.8-1.1c-1.5-1.2-3.6,0.9-2.1,2.1c1.6,1.3,3.5,2.5,5.7,2c1.8-0.4,3.3-2,3.1-4
				c-0.2-2.2-2-2.7-3.6-3.6c-0.6-0.4-1.1-0.8-1.5-1.4c-0.1-0.2-0.2-0.4-0.3-0.7c-0.1-0.7-0.2-0.8-0.2-0.4c-0.1,0,1.3,0.6,1.6,0.7
				c0.8,0.3,1.5,0.8,2.1,1.3C484,223.4,486.1,221.3,484.6,220.1L484.6,220.1z"/>
		</g>
	</g>
	<rect x="411" y="116.1" class="st8" width="26" height="22.7"/>
</g>
<g>
	<path class="st12" d="M335.6,200.1c1.6,2.3,3.6,4.6,5.8,6.7c27,23.2,14,65.2-3.8,90.4c-2.3,2.9-4.7,5.7-7.3,8.3
		C312.7,324,290.5,335,266.4,335c-17.2,0-33.5-5.6-47.7-15.5c-2.9-2-5.6-4.1-8.2-6.5c-3.1-3.9-7.1-6.9-8.1-11.9c-1-25-10-46-29-65
		c-8-8-5-22-3-33c0.3-3.2,0.4-6.3,0.2-9.4s-0.5-6.2-0.9-9.3c-6.3-20.3-2.3-42.3,19.7-52.3c21-10,14-38,27-56c3-3,7-6,11.1-7.6
		c3-1.6,6.1-3.1,9.2-4.3c9.4-3.8,19.4-5.8,29.7-5.8c6.9,0,13.6,0.9,20.1,2.6c3.3,0.9,6.5,1.9,9.6,3.2c7.2,2.9,16.2,5.9,20.2,12.9
		c4.9,8.6,9.3,17.1,14,25.3c1.6,2.7,3.2,5.5,4.8,8.1c20.1,21.5,29.1,49.5,4.1,73.5c-2,2-5,6-5.3,9.8
		C333.8,196,334.2,198.1,335.6,200.1z"/>
	<g>
		<path class="st2" d="M318.4,356.9v-40.3H217.9v44.9c13.8,4.1,28.5,6.3,43.7,6.3C281.6,367.8,300.8,363.9,318.4,356.9z"/>
	</g>
	<circle class="st13" cx="269.7" cy="128.2" r="44.8"/>
	<rect x="256.7" y="166.1" class="st13" width="26" height="22.7"/>
	<rect x="221.4" y="296.1" class="st13" width="93.8" height="20.5"/>
	<path class="st13" d="M308.1,201.6c0,0,41.7,38.8,53,60.9c11.3,22.2,18.8,55.3,18.8,55.3L367,322l-21.1-53.3l-46-52.2L308.1,201.6z
		"/>
	<path class="st14" d="M323.2,299.4H213.9v-85.9c0-14.3,11.7-26.1,26.1-26.1h57.2c14.3,0,26.1,11.7,26.1,26.1L323.2,299.4
		L323.2,299.4z"/>
	<polygon class="st14" points="316.5,204 338.9,226.6 329.4,253.6 321.4,245.6 	"/>
	<polygon class="st14" points="221.4,204 207,223.6 208.5,253.6 216.5,245.6 	"/>
	<rect x="217.9" y="325.9" class="st15" width="100.5" height="4.2"/>
	<rect x="217.9" y="338" class="st15" width="100.5" height="4.2"/>
	<rect x="217.9" y="350" class="st15" width="100.5" height="4.2"/>
	<rect x="217.9" y="362.1" class="st15" width="100.5" height="4.2"/>
	<path class="st13" d="M364.9,340.1l3-10.7l-1-7.4l12.9-4.2c0,0,1,5.6,1.7,7.3c1.6,3.4,4,7.1,6.3,13.2c1.6,4.3,0.1,15.3-6.3,15.9
		c-8.1,0.7-12.2-10.8-12.2-14.4c0-3.7,0.4,10.7-1.8,11.3C363.7,352.1,364.9,340.1,364.9,340.1z"/>
	<path class="st13" d="M394.2,355.1L394.2,355.1c-1,0.5-2.2,0.1-2.7-0.9l-9.8-18.8c-0.5-1-0.1-2.2,0.9-2.7l0,0
		c1-0.5,2.2-0.1,2.5,0.4l9.8,18.8C395.6,353.3,395.2,354.6,394.2,355.1z"/>
	<path class="st13" d="M390.6,364.4L390.6,364.4c-1.1,0.4-2.2-0.2-2.6-1.2l-9-24.9c-0.4-1.1,0.2-2.2,1.2-2.6l0,0
		c1.1-0.4,2.2,0.2,2.6,1.2l9,24.9C392.2,362.8,391.6,364,390.6,364.4z"/>
	<path class="st13" d="M384.6,368.3L384.6,368.3c-1.1,0.3-2.2-0.4-2.5-1.5l-6.6-25.7c-0.3-1.1,0.4-2.2,1.5-2.5l0,0
		c1.1-0.3,2.2,0.4,2.5,1.5l6.6,25.7C386.3,366.9,385.7,368,384.6,368.3z"/>
	<path class="st13" d="M378.3,369.9L378.3,369.9c-1.3,0.2-2.6-0.6-2.9-2l-4.7-25.2c-0.2-1.3,0.6-2.6,2-2.9l0,0
		c0.4-0.1,0.8,0,1.1-0.1c0.5-0.1,0.9,0.2,1,0.7l4.6,24.8v0.1C379.7,368.9,379.1,369.8,378.3,369.9z"/>
</g>
</svg>
